<svg xmlns="http://www.w3.org/2000/svg" viewBox="0 0 762 762" fill="none" shape-rendering="auto"><metadata xmlns:rdf="http://www.w3.org/1999/02/22-rdf-syntax-ns#" xmlns:xsi="http://www.w3.org/2001/XMLSchema-instance" xmlns:dc="http://purl.org/dc/elements/1.1/" xmlns:dcterms="http://purl.org/dc/terms/"><rdf:RDF><rdf:Description><dc:title>Adventurer</dc:title><dc:creator>Lisa Wischofsky</dc:creator><dc:source xsi:type="dcterms:URI">https://www.figma.com/community/file/1184595184137881796</dc:source><dcterms:license xsi:type="dcterms:URI">https://creativecommons.org/licenses/by/4.0/</dcterms:license><dc:rights>Remix of „Adventurer” (https://www.figma.com/community/file/1184595184137881796) by „Lisa Wischofsky”, licensed under „CC BY 4.0” (https://creativecommons.org/licenses/by/4.0/)</dc:rights></rdf:Description></rdf:RDF></metadata><mask id="viewboxMask"><rect width="762" height="762" rx="0" ry="0" x="0" y="0" fill="#fff" /></mask><g mask="url(#viewboxMask)"><path d="M396 164.8a224.8 224.8 0 0 1 104.8 42.4c6.2 4.9 12.5 9.4 18 15a225.4 225.4 0 0 1 71.8 149 58.5 58.5 0 0 1 50.9 42.2 71 71 0 0 1-27.6 76.5c-11 7.7-24.5 12-38 11.7-5 0-10-1.6-15-1.8-1.9 2.2-3.3 4.9-4.8 7.3A223.3 223.3 0 0 1 389 609.8c-11 .7-21.9 2-33 .7a223.7 223.7 0 0 1-178.8-342.3A223.4 223.4 0 0 1 352 163.5c14.6-1.4 29.4-.3 44 1.3Z" fill="#000"/><path fill-rule="evenodd" clip-rule="evenodd" d="M498.8 213.2A216 216 0 0 0 363 169c-13-.2-26.2 1.6-39 4a218 218 0 0 0-113.6 365.5 218.5 218.5 0 0 0 260.4 40.2c35-18.8 64.2-47.3 84.4-81.5l-3-1.6c-2.8-1.4-5.7-3-8-5-2.2-2-.3-5.8 2.7-4.7 1.5.7 3 1.6 4.4 2.4a55 55 0 0 0 59.6-3.6 64.5 64.5 0 0 0 25-69.8 53.1 53.1 0 0 0-24-31 52.6 52.6 0 0 0-47-2.8c-1.6.8-3.4 1.5-5 1.3-2.5-.2-2.8-4.2-.6-5.2 8-4 16.5-5.6 25.4-6.4a217 217 0 0 0-72-146.4c-4.4-4-8.7-8.1-13.9-11.3Zm107.6 196.2c2-1.2 1.3-5.1-1.4-5-2 0-4.2.8-6.2 1.6l-1.4.4a95.1 95.1 0 0 0-25.5 12.4c-2.2 2-2.2 4.4.1 6.2a92 92 0 0 0 5.2 2.8 36 36 0 0 1 13 9.2c-.2 1.9-2 3.4-3.4 4.5l-.2.2c-3.9 3-8.8 5-13.6 7-2.5 1-4.9 2-7.1 3.1-1.7.8-2.6 2.2-1.6 3.9 1 2 3.2 1.1 5 .5l.6-.2 5.4-2.3c5.4-2.3 11-4.5 15.4-8 2.7-2.1 5.1-5.1 5.4-8.7-.5-3.4-2.7-5.7-5.3-7.8a83 83 0 0 0-11.6-7.2l-1.1-.6c5.4-3 10.8-5.6 16.6-7.7l5-1.7a52 52 0 0 0 6.7-2.6Z" fill="#763900"/><g transform="translate(-161 -83)"><path d="M555 424a65.3 65.3 0 0 1 66.3 75.5c-1 7.6-4 14.4-6.8 21.4-1.5.6-3 1.2-4.4 1.6-3.2 0-6.4-1.4-9.4-2.2a176.2 176.2 0 0 0-47.7-7 97.3 97.3 0 0 0-39.3 8.4c-2.9 1.3-5.7 3-8.6 3.9-3.6-.3-4.4-3.2-6-5.8A65.9 65.9 0 0 1 512 442c11.6-11 27-17.5 43-18Z" fill="#000"/><path d="M557 429.9a58.8 58.8 0 0 1 57.1 43.1 59.9 59.9 0 0 1-4.2 43.5c-6.2-.9-11.9-3-18-4.3a156.5 156.5 0 0 0-51.4-3.5 91.3 91.3 0 0 0-34.8 11.2 59.9 59.9 0 0 1 9.8-73.4 59.1 59.1 0 0 1 41.5-16.6Z" fill="#fff"/><path d="M381.2 447a55.4 55.4 0 0 1 60 45.4 55 55 0 1 1-59.9-45.4Z" fill="#000"/><path d="M376.5 453.7A49.6 49.6 0 0 1 436 506a49.9 49.9 0 0 1-45.1 45 49.3 49.3 0 0 1-14.5-97.3Z" fill="#fff"/><path d="M519.4 474.7a15.9 15.9 0 1 1 7.1 30.9c-9.2 2.2-18.8-5-19-14.6a15.7 15.7 0 0 1 12-16.3ZM403.4 485.6c9.6-3.2 20 4.4 20.4 14.3.8 8.9-6.9 17.1-15.8 16.8-8.6.4-16-7.1-16-15.7-.2-7 4.8-13.5 11.4-15.4ZM598.8 532.7l3.2 1c-.5 1.7-.3 3.3-1.7 4.5A39.8 39.8 0 0 1 575 548c-3.8-.1-8.6-1-11.5-3.8l-.4-3.6 2.8-1c4.5 2.2 9 3.5 14.1 2.3 7.5-1.3 12.6-5.5 18.8-9.3ZM347 547.8c2.3-.5 4 1.4 5.6 2.6a52.7 52.7 0 0 0 33.4 11.4c5.8.1 10.9-2.2 16.7-1.3-.5 2.4 0 4.4-3 5a58 58 0 0 1-52.8-12.4c-1.8-1.4-2.2-4.4.2-5.3Z" fill="#000"/></g><g transform="translate(-161 -83)"><path d="M531 352.3a85.8 85.8 0 0 1 60.6 15.1 82.9 82.9 0 0 1 29 33c1 3-.4 3.8-2.6 5.3-4-2.2-6.9-5.6-10.5-8.3-13-9.7-28-16.3-43.7-20.2-15-3.5-30.6-5-45.8-2.8-4.8.4-9.3 2-14 2.7-2.4.2-5.1-1.2-4.2-4 1.9-4.2 4.2-8.6 7.6-11.7a45 45 0 0 1 23.6-9ZM383 428.8c13.4-.8 26.3-.6 39 4.3 5.9 2.3 11.6 5.9 14 12a14 14 0 0 1-1.8 12.6c-4.9-.7-9.4-2.6-14.1-3.8a203 203 0 0 0-71-6c-5 .4-10 2-14.8 1.8-1.8-.5-1.2-2.2-1-3.5.9-2.5 3.6-3.9 5.8-5.1a119.2 119.2 0 0 1 43.9-12.3Z" fill="#000"/></g><g transform="translate(-161 -83)"><path d="M473 557.8a84.3 84.3 0 0 1 43.7 8.6 188.2 188.2 0 0 1-65.7 15.5c-7.2 0-14.3.2-21.5-.6.7-5.9 3-9.6 7.7-13a68 68 0 0 1 35.8-10.5Z" fill="#D31E1E"/><path d="m525 563.7 1.2 2.3c.4 2.7-2 3.4-3.8 4.4a184 184 0 0 1-85.8 17c-5-.6-10.2-.7-15-2-2.3-1-2.6-4-.3-5.2 2.7 0 5.5.9 8.2 1 7.2 1 14.3.7 21.5.7 22.5-.8 45-6.8 65.7-15.5 2.8-1.2 5.2-2.6 8.3-2.7Z" fill="#000"/><path d="M510.2 575.4c-2 10.1-10.3 17.2-19.2 21.6a56.4 56.4 0 0 1-34 4.8c-8.7-1.8-16.5-6.2-20.4-14.5a184 184 0 0 0 73.7-12Z" fill="#D31E1E"/></g><g transform="translate(-161 -83)"><path d="M611.4 569.4c4.5-2.8 10.3 1.4 8.7 6.6-1.2 4.5-7.3 5.3-10 1.9a6 6 0 0 1 1.3-8.5ZM337.1 571c2.3-1.3 5.7-.6 7.4 1.4 3 3 1 9.6-3.6 9.3-2.1-1.8-3.5-4.4-4.6-7-.6-1.6-.8-2.6.8-3.7ZM650.5 571.6c1.3-.7 3-.5 4.4-.3 3.4.8 5.4 5.1 3.5 8.2-1.6 2.9-5.1 4-8 2.2-3.9-2.2-3.7-8 0-10.1ZM372.2 574.1c4-2.2 9.5 1.2 8.7 5.9-.4 4.7-6.1 6.3-9.5 3.6-3-2.5-2.5-7.4.8-9.5ZM632.5 591.6c4.2-1.5 8.9 1.8 8 6.4-.7 5-7.1 6.3-10.1 2.6-2.6-3-1.3-7.3 2.1-9ZM358 593.8c3.7.4 6.4 4.5 4.8 8-1.2 2.5-3.3 3-5.8 3.8-1.6-2.2-3.7-4.3-4.9-6.8-.8-3.2 3-5.6 6-5Z" fill="#7A624E"/></g><g transform="translate(-161 -83)"></g><g transform="translate(-161 -83)"><g fill="#000"><path d="M546 236.8a220 220 0 0 1 141.8 52.3 189.7 189.7 0 0 1 60.4 97.9c5.5 21.9 6.6 44.4 4.3 66.8-.4 1.8-.5 5.6-3 5.6-4.2.2-8.5 0-12.7 1.2a64.9 64.9 0 0 0-31.2 17c-1 1-2 2.2-3.6 1.8-1.6 0-2.3-2-2.1-3.4.3-3 1.5-6 2.1-9 1.6-6.7 1.9-13.2 2.5-20 .6-6.8-.3-13.3-.9-20-.4-3.8-1.2-7.3-2-11a54.2 54.2 0 0 1-26.5-7c-15.8-9-27.3-25-35.5-40.8-9.8-19-16-40-20.2-60.8a441.8 441.8 0 0 1-91.2 25.9 561.7 561.7 0 0 1-101.2 9 386 386 0 0 1-71.2-6c-2-.4-3.5-1.1-3.6-3.3 1-3.8 4-7.3 6.5-10.3 9-11 19-21 29.9-30.1A242 242 0 0 1 546 236.8Z"/><path d="M718.6 474.6c0 1 .3 2.7-.5 3.5-2.2 2.4-5.1 4.2-7.6 6.4-2.6 2.2-4.8 4.9-7.5 6.9-2.7.5-4-2-2.7-4.1 2.7-3.8 6.7-6.8 10.2-9.8 2.7-2 4.5-4.7 8-3Z"/></g><path d="M520.2 243.8c41.3-4.2 83.5 2.8 120.8 21.2a194.1 194.1 0 0 1 79.2 70.7 181 181 0 0 1 26.4 118 68 68 0 0 0-38.6 14c2.8-16.5 3.5-33.4 0-49.8-.7-2.4-1.2-5.3-2.8-7.1-1.6-1.2-4.3-.8-6.2-1-8 .2-16-2.8-22.9-7a87.5 87.5 0 0 1-27.6-30.3 211 211 0 0 1-22.2-60.5c-.8-3.3-1.1-6.8-2.3-10-.9-1.4-2.4-1.8-4-1.2-3.6 1.3-7.1 3-10.7 4.3a443.8 443.8 0 0 1-82.3 22.5 588.4 588.4 0 0 1-81 8.7c-14.6.2-29.4.4-44-.4-14.3-1-28.4-2.4-42.5-4.8a232.8 232.8 0 0 1 160.7-87.3Z" fill="#85c2c6"/></g><g transform="translate(-161 -83)"></g></g></svg>