<svg xmlns="http://www.w3.org/2000/svg" viewBox="0 0 400 400" fill="none" shape-rendering="auto"><metadata xmlns:rdf="http://www.w3.org/1999/02/22-rdf-syntax-ns#" xmlns:xsi="http://www.w3.org/2001/XMLSchema-instance" xmlns:dc="http://purl.org/dc/elements/1.1/" xmlns:dcterms="http://purl.org/dc/terms/"><rdf:RDF><rdf:Description><dc:title>Adventurer Neutral</dc:title><dc:creator>Lisa Wischofsky</dc:creator><dc:source xsi:type="dcterms:URI">https://www.figma.com/community/file/1184595184137881796</dc:source><dcterms:license xsi:type="dcterms:URI">https://creativecommons.org/licenses/by/4.0/</dcterms:license><dc:rights>Remix of „Adventurer Neutral” (https://www.figma.com/community/file/1184595184137881796) by „Lisa Wischofsky”, licensed under „CC BY 4.0” (https://creativecommons.org/licenses/by/4.0/)</dc:rights></rdf:Description></rdf:RDF></metadata><mask id="viewboxMask"><rect width="400" height="400" rx="0" ry="0" x="0" y="0" fill="#fff" /></mask><g mask="url(#viewboxMask)"><rect fill="#9e5622" width="400" height="400" x="0" y="0" /><g transform="translate(-279 -322)"><path d="M556 424.07a65.28 65.28 0 0 1 38.21 11.72 66.38 66.38 0 0 1 25.55 35.69c2.03 8.44 3.26 17.76 1.73 26.36-.34 2.67-3.16 3.58-5.48 3.72-22.92 1.12-45.4 3.72-68.02 6.37-13.15.92-26.15 2.81-39.22 4.54-4.57.55-8.58 1.7-13.07-.02-4.7-13.26-5.45-27.76-1.52-41.31a65.08 65.08 0 0 1 25.49-35.44A64.79 64.79 0 0 1 556 424.07Z" fill="#000"/><path d="M566.19 430.48a59.9 59.9 0 0 1 38.69 23.59c7.72 10.54 11.98 23.86 11.5 36.93-.17 1.36.17 3.47-.68 4.57-4.17.7-8.5.77-12.7 1.15-18.38 1.14-36.61 3.35-54.88 5.53 1.29-3.37 2.5-6.57 2.63-10.23.4-9.56-5.03-18.9-13.67-23.1-7.93-4.11-18.77-3.17-25.87 2.29-6.37 4.73-10.35 12.82-9.79 20.8 0 6 2.59 11.22 6.37 15.73-2.44.23-4.87.5-7.3.75a58.83 58.83 0 0 1 1.85-43.11 59.17 59.17 0 0 1 32.69-31.45c9.91-4.07 20.61-4.84 31.16-3.45Z" fill="#fff"/><path d="M415.92 455.07a54.98 54.98 0 0 1 22.55 27.5 55.8 55.8 0 0 1 1.3 34.35c-3.95 1.23-7.7.76-11.77.75-25.4-.28-50.64-.3-76 1.43-5.57-.31-13 1.8-17.82-1.36-1.63-6.9-2.98-13.6-2.05-20.72a55.18 55.18 0 0 1 14.86-33.04 55.09 55.09 0 0 1 32-16.6 55.24 55.24 0 0 1 36.93 7.69Z" fill="#000"/><path d="M410.45 458.52c18.96 10.1 29.6 32.88 24.63 53.87-1.89.03-3.78.06-5.67.13 2.51-4.85 3.8-10.1 2.83-15.56-1.25-8.23-7.5-15.16-15.4-17.62a23.63 23.63 0 0 0-14.04.47c-8.31 3.06-14.47 11.22-14.46 20.19-.29 4.37 1.04 8.24 2.82 12.14-15.4.07-30.77 1.03-46.16 1.93-1.75-.18-5.82.57-6.13-1.9-4.43-18.7 3.54-39.04 19.11-50.2 15.1-11.13 36.05-12.56 52.48-3.45Z" fill="#fff"/></g><g transform="translate(-279 -322)"><path d="M501.99 384.96c9.9.12 19.87 3.23 28.83 7.31 3.36 1.88 7.05 4 7.3 8.3-5.13-.87-10.13-2.07-15.37-2.3-11.6-.67-23.13 1.37-33.25 7.24-2.54 1.41-4.95 3.26-7.64 4.35-1.8.27-3.92-2-3.94-3.73-.18-5.81 1.95-11.92 6.53-15.7 5.03-4.23 11.15-5.3 17.54-5.47ZM414.03 402.61c5.81.15 10.93 5.3 12.51 10.64.8 2.63-.46 5.72-3.53 5.61-8.82.2-18.2.03-26.81 2.26-7.52 2-14.74 6.7-21.36 10.74-1.22.81-2.57.96-3.98 1.22.33-1.93.64-3.66 1.94-5.2a97.47 97.47 0 0 1 10.74-12.31c5.88-5.17 13-8.96 20.32-11.66a25.26 25.26 0 0 1 10.17-1.29Z" fill="#000"/></g><g transform="translate(-279 -322)"><path d="M469.99 539.64c9.45-.62 18.37 5.2 25.18 11.18 9.6 8.8 17.31 20.09 23.54 31.49a209.12 209.12 0 0 1 23.56 76.68c.5 4.4 1.53 8.68-2.43 11.86-7.32 3.5-15.84 4.95-23.84 6-15.97 1.39-32.52-.84-48-4.84-2.35-.75-4.52-.89-5.43-3.57a210.22 210.22 0 0 1-17.97-65.91c-1.01-12.34-1.07-24.9 1.8-37.02 1.62-6.56 4.25-13.27 8.72-18.42 3.72-4.3 9.1-7.4 14.87-7.45Z" fill="#000"/><path d="M474.49 545.63c9.4 2.08 17.07 9.35 23.35 16.25-13.95 5.98-30.9 9.6-45.86 5.81 1.27-6.17 3.77-12.91 8.25-17.5 3.6-3.78 9.07-5.9 14.26-4.56Z" fill="#fff"/><path d="M501.86 566.88c12.64 16.83 21.52 36.66 27.44 56.79-6.29 1.3-11.94 3.96-17.5 7.1-11.57 6.75-22.43 15.88-30.04 26.97-2.28 3.53-4.69 6.5-4.54 10.94a170.9 170.9 0 0 0-8.96-2.06c-8.42-17.85-13.97-37.13-16.92-56.63-1.6-12.46-2.48-24.55-.38-37.02 5.4 1.04 10.5 2.3 16.05 1.94 5-.39 10.05-.95 15-1.89 6.89-1.27 13.25-3.89 19.85-6.14Z" fill="#8F2E45"/><path d="M527.55 629.64c1.5-.65 2.4.12 3.76.63 2.74 11.73 5.07 23.5 5.63 35.56-7.95 3.25-16.2 4.63-24.68 5.56-10.48.94-20.25-.66-30.6-1.8a74.98 74.98 0 0 1 17.9-23c8.13-7.1 17.68-13.57 27.99-16.95Z" fill="#EA869E"/></g><g transform="translate(-279 -322)"></g></g></svg>