<svg xmlns="http://www.w3.org/2000/svg" viewBox="0 0 400 400" fill="none" shape-rendering="auto"><metadata xmlns:rdf="http://www.w3.org/1999/02/22-rdf-syntax-ns#" xmlns:xsi="http://www.w3.org/2001/XMLSchema-instance" xmlns:dc="http://purl.org/dc/elements/1.1/" xmlns:dcterms="http://purl.org/dc/terms/"><rdf:RDF><rdf:Description><dc:title>Adventurer Neutral</dc:title><dc:creator>Lisa Wischofsky</dc:creator><dc:source xsi:type="dcterms:URI">https://www.figma.com/community/file/1184595184137881796</dc:source><dcterms:license xsi:type="dcterms:URI">https://creativecommons.org/licenses/by/4.0/</dcterms:license><dc:rights>Remix of „Adventurer Neutral” (https://www.figma.com/community/file/1184595184137881796) by „Lisa Wischofsky”, licensed under „CC BY 4.0” (https://creativecommons.org/licenses/by/4.0/)</dc:rights></rdf:Description></rdf:RDF></metadata><mask id="viewboxMask"><rect width="400" height="400" rx="0" ry="0" x="0" y="0" fill="#fff" /></mask><g mask="url(#viewboxMask)"><rect fill="#763900" width="400" height="400" x="0" y="0" /><g transform="translate(-279 -322)"><path d="M617.23 468.82c1.16 1.34 2.37 2.36 2.84 4.14a65.5 65.5 0 0 1-7.98 51.11 65.74 65.74 0 0 1-34.83 27.28 65.88 65.88 0 0 1-36.24 1.27 65.18 65.18 0 0 1-40.77-30.86c-7.18-12.23-9.85-26.73-8.06-40.75.53-3.4 1.75-7.26 5.57-8.09 8.61-1.53 17.56-1.34 26.27-2.27 24.31-1.49 48.65-2.37 73-2.08 6.76-.37 13.46.4 20.2.25Z" fill="#000"/><path d="m607.09 474.28 7.45.37c3.8 14.15 1.78 29.85-5.17 42.73a59.07 59.07 0 0 1-32.1 27.84c-14.68 5.57-31.38 4.73-45.56-1.92a59.34 59.34 0 0 1-29.82-31.09c-4.2-10.22-5.99-22.1-3.63-32.98a17.6 17.6 0 0 1 5.7-1.4c16.9-1.37 33.84-2.38 50.78-3.11-.4 5.34-.18 10.53 2.1 15.47a26.66 26.66 0 0 0 18.61 15.04c4.89.87 9.94.6 14.61-1.13 8.19-2.82 14.36-9.95 16.48-18.27.92-3.9.66-7.59.54-11.55Z" fill="#fff"/><path d="M432.03 480.67c2.01-.23 3.8.3 5.74.68 4.2 9.05 4.82 19.93 3.38 29.69a55.08 55.08 0 0 1-23.63 36.48 54.76 54.76 0 0 1-37.5 8.79 54.68 54.68 0 0 1-38.26-23.14c-6.82-9.7-10.02-21.43-10-33.24 6.52-3.27 13.17-3.72 20.48-5.47 20.5-4.17 41.07-8.1 61.75-11.22 6-1 11.97-2.04 18.04-2.57Z" fill="#000"/><path d="M433.71 486.06c1.44 5.27 2.74 10.43 2.6 15.94-.2 9.5-3 19.08-8.31 27-9.89 15.06-28.07 23.77-46 21.87a49.72 49.72 0 0 1-32.18-16.71c-7.5-8.47-11.57-19.33-12.24-30.58 14.45-3.54 29.14-6.22 43.76-9 1.32 6.48 4.55 12.27 10.11 16.02 9.04 6.32 21.92 5.38 29.9-2.26 6.12-5.72 8.04-13.57 7.2-21.73l5.16-.54Z" fill="#fff"/></g><g transform="translate(-279 -322)"><path d="M397.06 373.14c6.81.19 14.18 2.86 17.93 8.88 1.05 1.45.63 3.68.72 5.4-6.29.15-12.49.33-18.64 1.83-15.06 3.48-29.35 10.86-41.64 20.15-8.37 6.38-16.34 14.1-21.95 23.07-1.43 2.22-2.41 5.03-4.3 6.89-1.23.26-2.56.28-3.82.35-.05-1.77-.23-3.46.2-5.19 5.73-20.86 19.84-39.34 38.13-50.81 9.83-5.84 21.73-11.05 33.37-10.57ZM578.52 411.66c10.4 1.67 21.2 3.85 30 9.97l-.2 4.78c-4.07 1.6-7.3-.14-11.31-.77-6.82-1.2-13.9-1.25-20.83-1.11-29.25 1.32-58.23 9.9-83.97 23.74-1.44.63-2.9 1.06-4.4 1.54-2.6-5.36-3.62-10.91-.14-16.17 5.13-7.67 15.2-12.39 23.63-15.44 21.34-7.36 44.88-9 67.23-6.53Z" fill="#000"/></g><g transform="translate(-279 -322)"><path d="M535.03 562.93c9.64 1.78 18.64 8.36 22.66 17.4 3.3 7.29 4.24 15.74 3.54 23.67-1.11 11.35-7.23 22.08-15 30.25-8.7 9.5-20.77 15.9-33.23 18.82-20.17 4.42-41.87 5.15-62.03.33-14.26-3.37-27.76-9.79-38.58-19.78-4.47-4.23-8.92-9.14-10.93-15.05-2.64-7.62-2.32-16.43 1.48-23.6a20.2 20.2 0 0 1 17.04-10.63c12.69-.78 23.87 4.19 36 4.7 7.82.14 15.89-1.05 23.18-3.9 11.37-4.8 21.29-14.52 32.86-19.16 7.35-3.04 15.07-4.58 23-3.05Z" fill="#000"/><path d="M538.01 569.9c6.94 2.53 12.73 7.89 15.12 14.96-2.94 2.53-5.85 5.05-9 7.3-3.6 2.63-7.19 4.4-9.93 8.04-3.23 3.94-5.95 9.87-10.37 12.5-3.4-.37-6.67-2.86-9.83-4.05-2.45-.6-5.4.47-7.8 1.06-12.17 3.53-24.57 5.15-37.2 5.87-3.23.07-6.43.2-9.59.95 0 1.24.06 2.45.3 3.68 1.86 1.5 5 1.35 7.3 1.46a191.17 191.17 0 0 0 45-7.29c3.68.11 9.34 5.23 13.89 3.53 5.34-2.5 8.93-9.06 12.36-13.63 1.89-2.72 4.5-4.05 7.17-5.86 3.36-2.22 6.46-4.74 9.56-7.28.65 5.61 1.08 11.34-.35 16.88-2.28 9.36-8.17 17.98-15.08 24.57-9.95 9.67-23.55 14.65-37.07 16.63-11.94 1.57-24.5 2.43-36.48.84-17.37-1.79-35.16-8.03-48.4-19.68-5.06-4.63-9.76-8.85-11.18-15.89-2.35-8.7.37-20.82 10.11-23.62 8.19-1.88 17.76.53 25.88 2.22 12.05 2.8 25.09 2.4 36.82-1.64 13.96-4.91 24.9-17.13 38.79-21.37 6.31-2.14 13.7-2.61 19.98-.17Z" fill="#fff"/></g><g transform="translate(-279 -322)"></g></g></svg>