<svg xmlns="http://www.w3.org/2000/svg" viewBox="0 0 400 400" fill="none" shape-rendering="auto"><metadata xmlns:rdf="http://www.w3.org/1999/02/22-rdf-syntax-ns#" xmlns:xsi="http://www.w3.org/2001/XMLSchema-instance" xmlns:dc="http://purl.org/dc/elements/1.1/" xmlns:dcterms="http://purl.org/dc/terms/"><rdf:RDF><rdf:Description><dc:title>Adventurer Neutral</dc:title><dc:creator>Lisa Wischofsky</dc:creator><dc:source xsi:type="dcterms:URI">https://www.figma.com/community/file/1184595184137881796</dc:source><dcterms:license xsi:type="dcterms:URI">https://creativecommons.org/licenses/by/4.0/</dcterms:license><dc:rights>Remix of „Adventurer Neutral” (https://www.figma.com/community/file/1184595184137881796) by „Lisa Wischofsky”, licensed under „CC BY 4.0” (https://creativecommons.org/licenses/by/4.0/)</dc:rights></rdf:Description></rdf:RDF></metadata><mask id="viewboxMask"><rect width="400" height="400" rx="0" ry="0" x="0" y="0" fill="#fff" /></mask><g mask="url(#viewboxMask)"><rect fill="#f2d3b1" width="400" height="400" x="0" y="0" /><g transform="translate(-279 -322)"><path d="M559.01 424.1a65.32 65.32 0 0 1 43.93 18.98c5.76 5.61 9.95 12.31 13.6 19.43 7.87-5.09 15.8-10.08 23.76-15.03a50.52 50.52 0 0 1 3.56 3.46c-3.17 3.52-7.07 5.39-10.96 7.93-4.77 3.03-9.55 6.03-14.3 9.08 3.17 10 4.53 20.39 2.8 30.81a64.8 64.8 0 0 1-20.75 38.93A64.57 64.57 0 0 1 558 554.53a64.54 64.54 0 0 1-36.9-10.63 65.67 65.67 0 0 1-26.4-34.58c-4.57-14.5-4.06-30.74 1.8-44.81a65.1 65.1 0 0 1 28.11-31.9c10.31-6.05 22.51-8.86 34.4-8.5Z" fill="#000"/><path d="M549.27 430.26c14.65-1.77 29.27 1.62 41.4 10.04a59.45 59.45 0 0 1 20.39 73.64c-6.12 13.64-17.67 24.9-31.58 30.43a58.17 58.17 0 0 1-32.48 3.67 59.6 59.6 0 0 1-40.35-26.68 61.43 61.43 0 0 1-9.37-29.31 60.38 60.38 0 0 1 13.41-40.36 59.47 59.47 0 0 1 38.58-21.43Z" fill="#fff"/><path d="M414.05 453.95a55.06 55.06 0 0 1 23.87 27.2c3.5 8.51 4.54 17.78 3.61 26.9a54.83 54.83 0 0 1-27.1 41.38c-16.49 9.64-37.66 9.77-54.3.41a55 55 0 0 1-27.4-38.84c-1.8-8.9-.64-17.67 1.9-26.3-5.83-3.62-12.14-6.61-17.75-10.54-1.95-1.1-1.44-4.12.68-4.64 1.65-.48 3.18.6 4.6 1.28 4.83 2.83 9.64 5.66 14.48 8.47 6.58-14.13 18.65-25.2 33.6-29.87a55.21 55.21 0 0 1 43.81 4.55Z" fill="#000"/><path d="M378.27 453.29a49.32 49.32 0 0 1 42.11 12.35 50.02 50.02 0 0 1 15.93 36.37 51.36 51.36 0 0 1-6.07 23.26 49.5 49.5 0 0 1-33.98 24.9c-8.07 1.72-16.23 1.1-24.08-1.36-19.1-5.88-33.31-23.78-34.38-43.79-.98-12.79 3.48-25.72 11.85-35.4a49.5 49.5 0 0 1 28.62-16.33Z" fill="#fff"/><path d="M527.27 466.19c7.37-.9 15.21 1.78 20.25 7.3a24.2 24.2 0 0 1 6.4 15.46 23.88 23.88 0 0 1-8.72 19.24c-6.96 5.83-17.24 6.92-25.36 2.96-8.64-4.1-14.23-13.6-13.38-23.18.7-11.14 9.74-20.51 20.81-21.78ZM358.54 480.84c11.4-3.87 24.34 3 27.54 14.6 3.77 11.68-4.02 24.85-16.03 27.31-10.63 2.65-22.19-3.54-25.66-13.94-3.92-11.13 2.75-24.59 14.15-27.97Z" fill="#000"/></g><g transform="translate(-279 -322)"><path d="M452.03 395.85c.66 4.64-1.5 9.35-4.2 13-3.6 4.46-7.82 8.36-12.86 11.13-7.66 4.35-15.96 7.7-24.2 10.81-23.78 8.79-48.55 15.1-73.5 19.48-3.36.54-6.98 1.5-10.37 1.11-1.92-.92-2-2.82-1.1-4.52 2.33-1.8 5.48-2.72 8.18-3.89 35.94-14.72 71.88-29.45 107.8-44.2 3.36-1.25 6.6-3.38 10.25-2.92ZM478.97 396c49.32 7.61 98.68 15.15 148.01 22.75 2.58.42 5.33.58 7.8 1.41 2.45 1.14 1.71 5.04-.95 5.26-9.6.95-19.18 1.82-28.83 1.95-15.39.1-30.64.32-45.98-1.18-20.9-1.64-42.24-4.59-62.25-11.06-6.97-2.4-14.88-5.46-20.27-10.64-1.8-1.9-4.09-4.28-3.17-7.13 1.22-2.13 3.6-1.6 5.64-1.36Z" fill="#000"/></g><g transform="translate(-279 -322)"><path d="M505.02 633.16c9.06.53 16.84 6.73 24.11 11.4-13.1-.12-26.35 2.18-38.98 5.54-9.44 2.61-18.6 6-27.08 10.96 3.26-8.09 7.87-18.07 16.6-21.4 4-1.93 7.7-1.13 11.94-.82 3.92-3.32 8-6.13 13.4-5.68Z" fill="#D31E1E"/><path d="M529.13 644.56c2.47.2 4.68 1.43 3.9 4.25-1.38 2.08-4.46 1.3-6.64 1.51-14.9.63-29.68 3.43-43.79 8.28-4.83 1.7-9.55 3.58-13.94 6.24-2 .93-3.37 2.59-5.67 1.42-2.15-1.55-1.16-3.48.08-5.2 8.48-4.96 17.64-8.35 27.08-10.96 12.63-3.36 25.89-5.66 38.98-5.54Z" fill="#000"/><path d="M526.39 650.32a39.78 39.78 0 0 1-24.48 18.5c-11 3.05-23.16 1.14-33.24-3.98 4.39-2.66 9.1-4.54 13.94-6.24a154.94 154.94 0 0 1 43.79-8.28Z" fill="#D31E1E"/></g><g transform="translate(-279 -322)"><path fill-rule="evenodd" clip-rule="evenodd" d="M589 446.02c12.76.73 25.74 1.84 37.38 7.57 1.16.52 2.25 1.22 3.34 1.9 1.38.9 2.77 1.77 4.29 2.3 2.3.37 4.64.44 7 .52 2.67.09 5.35.18 7.95.7 2.16.77 2.3 2.83 2.42 4.8v1c-.02 2.19-.04 4.24-2.33 5.37-2.21.25-4.46.24-6.7.23h-3.17c1.26 18.16-2.42 36.45-11.5 52.28-9.66 17.1-25.26 30.69-43.86 37.2a78.74 78.74 0 0 1-34.82 4 81.36 81.36 0 0 1-42.57-18.29 88.7 88.7 0 0 1-28.74-44.53c-.9-2.9-1.46-5.9-2.02-8.9-.6-3.25-1.2-6.5-2.24-9.6-1.98-5.44-10.5-8.81-14.51-3.67-3.27 3.72-3.25 8.08-3.22 12.6.01 1.16.02 2.33-.03 3.5-.81 27.02-17.12 53.14-41.27 65.38-14.13 7.32-30.77 9.4-46.2 5.33a62.04 62.04 0 0 1-30.72-19.2c-10.8-12.26-16.55-28.93-16.8-45.17-.5-.12-1-.18-1.48-.24-1.41-.17-2.72-.33-3.35-1.96l-.07-.46c-.32-2.13-.83-5.46 1.42-6.47 1-.5 2.03-.92 3.05-1.33 2.19-.89 4.33-1.76 6.2-3.46 10.62-9.27 24.1-13.95 37.58-17.36a151.97 151.97 0 0 1 68.93-.89c5.82 1.39 12.08 1.59 17.77-.43 7.08-2.38 14.84-3.5 22.28-2.54 5.8.56 11.89.35 17.36-1.87 12.15-4.65 23.96-9.15 36.6-12.3a201.86 201.86 0 0 1 62.03-6Zm-25 12.94c17.65-.96 36.07-.78 53.28 3.73 7.14 1.68 13.37 8.09 14.26 15.47 1.3 7.9.28 15.57-1.36 23.32a80.57 80.57 0 0 1-24.67 39.05c-10.5 9.05-23.72 15.36-37.5 17.2-14.95 2.3-30.74-.6-44.13-7.61-14-7.22-25.74-19.05-33.2-32.89-5.27-10.71-8.3-23.62-6.34-35.5a98.03 98.03 0 0 1 20.17-10.3c18.9-7.2 39.37-10.89 59.48-12.47Zm-134.78 19.81a139.53 139.53 0 0 0-34.7-1.92c-15.93 1.2-31.36 3.69-46.39 9.31-5.22 2.04-10.6 4.52-15.04 7.97-4.12 2.85-5.47 9.18-5.69 13.85.33 8.92 3.64 17.87 8.04 25.57 7.92 13.73 21.5 23.9 37.06 27.1 9.84 2.21 19.97 1.39 29.56-1.56 26.32-8.35 46.38-34.3 46.64-62.1a46.96 46.96 0 0 0-1.45-10c-.29-1.64-1.75-2.49-3.1-3.26l-.58-.34c-4.48-2.24-9.46-3.65-14.35-4.63Z" fill="#000"/></g></g></svg>