<svg xmlns="http://www.w3.org/2000/svg" viewBox="0 0 400 400" fill="none" shape-rendering="auto"><metadata xmlns:rdf="http://www.w3.org/1999/02/22-rdf-syntax-ns#" xmlns:xsi="http://www.w3.org/2001/XMLSchema-instance" xmlns:dc="http://purl.org/dc/elements/1.1/" xmlns:dcterms="http://purl.org/dc/terms/"><rdf:RDF><rdf:Description><dc:title>Adventurer Neutral</dc:title><dc:creator>Lisa Wischofsky</dc:creator><dc:source xsi:type="dcterms:URI">https://www.figma.com/community/file/1184595184137881796</dc:source><dcterms:license xsi:type="dcterms:URI">https://creativecommons.org/licenses/by/4.0/</dcterms:license><dc:rights>Remix of „Adventurer Neutral” (https://www.figma.com/community/file/1184595184137881796) by „Lisa Wischofsky”, licensed under „CC BY 4.0” (https://creativecommons.org/licenses/by/4.0/)</dc:rights></rdf:Description></rdf:RDF></metadata><mask id="viewboxMask"><rect width="400" height="400" rx="0" ry="0" x="0" y="0" fill="#fff" /></mask><g mask="url(#viewboxMask)"><rect fill="#ecad80" width="400" height="400" x="0" y="0" /><g transform="translate(-279 -322)"><path d="M587.37 431.61a65.1 65.1 0 0 1 27.94 28.7c5.58-3.44 11.26-6.7 16.83-10.18 1.56-.93 3.14-1.94 4.89-2.46 1.93.56 2.77 1.31 2.72 3.44-.47 1.3-1.75 2-2.83 2.76-6.46 3.95-13.07 7.67-19.41 11.81 6.07 14.16 5.97 31.18.8 45.61a65.5 65.5 0 0 1-29.9 35.15 65.13 65.13 0 0 1-43.58 7 65.15 65.15 0 0 1-43.5-29.87 63.26 63.26 0 0 1-9.64-33.57 64.44 64.44 0 0 1 16.82-44.5c9.47-10.43 22.53-17.96 36.46-20.3a65.09 65.09 0 0 1 42.4 6.41Z" fill="#000"/><path d="M549.2 430.27c14.66-1.79 29.3 1.6 41.46 10.02a59.1 59.1 0 0 1 23.46 32.72 59.16 59.16 0 0 1-3.06 40.93c-6.2 13.86-18.05 25.26-32.25 30.69a57.97 57.97 0 0 1-31.8 3.4 59.6 59.6 0 0 1-40.36-26.66 61.47 61.47 0 0 1-9.37-29.35 60.43 60.43 0 0 1 13.41-40.34 59.53 59.53 0 0 1 38.51-21.41Z" fill="#fff"/><path d="M414.7 454.33a54.92 54.92 0 0 1 24.53 30.46c2.68 8.02 3.17 16.86 2.07 25.2a54.85 54.85 0 0 1-61.29 46.3c-15.79-1.8-30.36-10.98-39.03-24.27-5.54-8.33-8.47-18.05-9.1-28-.32-7.07 1.17-13.62 2.92-20.39a238.5 238.5 0 0 1-12.8-8.6c-1.7-1.23-1.84-2.14-1.54-4.17 1.3-1.26 2.74-1.6 4.35-.65 4.2 2.57 8.15 5.53 12.25 8.24 6.7-14.02 19.04-24.86 33.97-29.29a55.12 55.12 0 0 1 43.66 5.17Z" fill="#000"/><path d="M378.2 453.3c18.68-3.52 38.38 4.7 49.14 20.33 7.5 10.77 10.85 24.96 7.88 37.84a48.94 48.94 0 0 1-14.57 26.2A49.55 49.55 0 0 1 391 550.94c-20.13 1.85-40.14-9.82-48.62-28.14a49.3 49.3 0 0 1 35.82-69.5Z" fill="#fff"/><path d="M526.47 467.49c12-2.85 24.87 4.22 29.35 15.63a26.1 26.1 0 0 1-.08 18.72 25.64 25.64 0 0 1-41.14 9.56 25.7 25.7 0 0 1-6.76-27.6 25.54 25.54 0 0 1 18.63-16.31ZM398.22 478.36a23.17 23.17 0 0 1 24.44 11c3.46 5.59 3.67 12.26 2.25 18.53a23.78 23.78 0 0 1-15.87 15.27c-7.51 2.4-16.26.06-21.98-5.24-7.35-6.8-9.5-18-5.05-27a23 23 0 0 1 16.21-12.56Z" fill="#000"/></g><g transform="translate(-279 -322)"><path d="M530.99 353.9c17.06 1.95 34 7.42 48.62 16.5 6.84 4.33 13.98 9.93 18.27 16.9.9 1.17 1.25 3.53-.22 4.34-1.19 1.18-2.85.5-4.15-.1-16.36-8.83-35.52-13.28-53.92-15.02-13.52-.79-28.3-.86-41.16 3.86-2.92 1.03-5.5 2.98-8.47 3.85-1.37.25-2.43-1.11-2.88-2.26-1.81-4.7-2.23-10.24.18-14.8 2.6-5.35 7.91-8.65 13.31-10.66 9.68-3.6 20.27-3.32 30.42-2.61ZM414.04 408.09c8.18 2.36 14.6 10.77 13.54 19.42-1.87.56-3.6 1-5.58.73-14.22-1.45-29.3 1.52-42.82 5.85-14.05 4.67-28.5 11.6-39.42 21.77-1.34 1.3-4.25 2.95-5.5.75-1.73-2.36.02-4.07 1.38-5.97 12.84-16.22 29.69-30.97 48.9-39.03 8.9-3.65 20.04-6.5 29.5-3.53Z" fill="#000"/></g><g transform="translate(-279 -322)"><path d="M397.16 574.5c18.25-.16 37.53-.27 55.83-.38 15.65-.52 31.34-.22 47-.46 3.82-.04 7.34-.2 10.9 1.4 4.25 1.92 7.85 6.05 7.62 10.93.36 6.4-5.56 10.94-11.5 11.3-33 .13-66 .4-99 .56-4.38-.1-8.12 1-12.36-.48l-.82-2.29c1.66-5.65 2.44-11.14-.14-16.68-1.03-2.03.23-3.9 2.47-3.9Z" fill="#000"/><path d="M510.49 581.58c2.16 1.83 3.27 4.85 1.35 7.29-2.42 3.37-7.56 2.6-11.15 2.54-.04-4-.07-8-.08-12.02 3.35.28 7.2-.21 9.88 2.2ZM401.71 580.18l5.03-.02c.16 4.03.22 8.05.15 12.1h-5.12c.41-4.08.45-8-.06-12.08ZM412.52 580.16c4.52-.07 9.04-.06 13.57-.04.12 4 .23 8 .27 12-4.4.07-8.8.08-13.2.08-.22-4.02-.4-8.03-.64-12.04ZM432.14 579.88c6.32-.04 12.64-.05 18.96-.1.07 4 .1 8.02.1 12.03-6.34-.07-12.65.3-18.97.24-.13-4.06-.17-8.1-.09-12.17ZM456.8 579.78c6.23-.08 12.46-.06 18.7-.14.12 4 .24 8.03.3 12.04-6.2.13-12.4.03-18.6.18-.3-4.03-.4-8.05-.4-12.08ZM481.4 579.5c4.47.17 8.95.07 13.43.03.03 4 .06 8.03.01 12.05-4.43 0-8.85.13-13.28 0-.05-4.04-.29-8.05-.17-12.08Z" fill="#fff"/></g><g transform="translate(-279 -322)"></g></g></svg>