<svg xmlns="http://www.w3.org/2000/svg" viewBox="0 0 400 400" fill="none" shape-rendering="auto"><metadata xmlns:rdf="http://www.w3.org/1999/02/22-rdf-syntax-ns#" xmlns:xsi="http://www.w3.org/2001/XMLSchema-instance" xmlns:dc="http://purl.org/dc/elements/1.1/" xmlns:dcterms="http://purl.org/dc/terms/"><rdf:RDF><rdf:Description><dc:title>Adventurer Neutral</dc:title><dc:creator>Lisa Wischofsky</dc:creator><dc:source xsi:type="dcterms:URI">https://www.figma.com/community/file/1184595184137881796</dc:source><dcterms:license xsi:type="dcterms:URI">https://creativecommons.org/licenses/by/4.0/</dcterms:license><dc:rights>Remix of „Adventurer Neutral” (https://www.figma.com/community/file/1184595184137881796) by „Lisa Wischofsky”, licensed under „CC BY 4.0” (https://creativecommons.org/licenses/by/4.0/)</dc:rights></rdf:Description></rdf:RDF></metadata><mask id="viewboxMask"><rect width="400" height="400" rx="0" ry="0" x="0" y="0" fill="#fff" /></mask><g mask="url(#viewboxMask)"><rect fill="#9e5622" width="400" height="400" x="0" y="0" /><g transform="translate(-279 -322)"><path d="M380.24 447.22a55.22 55.22 0 0 1 38.11 9.43 55.05 55.05 0 0 1 22.82 36.06c1.19 8.28.93 17.07-1.63 25.08a54.93 54.93 0 0 1-25.11 31.65 54.67 54.67 0 0 1-33.47 6.98c-16.14-1.57-31.14-10.83-39.98-24.4-5.54-8.33-8.46-18.04-9.11-27.98-.3-12.3 3.26-24.62 10.56-34.57a55.01 55.01 0 0 1 37.81-22.25Z" fill="#000"/><path d="M378.24 453.29c19.42-3.65 39.86 5.43 50.31 22.16 6.62 10.5 9.5 23.85 6.67 36.03a49.3 49.3 0 0 1-22.5 32.27 50.26 50.26 0 0 1-22.73 7.28c-19.82 1.35-39.3-10.22-47.62-28.26a49.26 49.26 0 0 1 35.87-69.48Z" fill="#fff"/><path d="M589.99 474.91c13.08-.6 26.98-1.27 39.85 1.48 2.15.57 2.9 1.32 2.29 3.67-2.1 1.76-6.1 3.3-6.83 6.12-.03 6 9.05 5.9 9.7 10.8-.3 2.95-2.43 3.33-4.98 3.14a384.71 384.71 0 0 0-23.02-1.4c-16.02-.1-32.02-.24-48 .87-7.57.7-15.22.63-22.78 1.17-11.11 1.03-22.13 1.31-33.14 3.36-2.67.5-5.5 1.11-8.23 1.06-2.01-1.24-3.05-5.54-.56-6.86 5.33-3.02 11.33-5.1 17.18-6.87 15.08-4.97 30.76-8.25 46.26-11.64 10.64-2.42 21.43-3.76 32.26-4.9ZM405.43 479.68c3.46-.9 6.9-1 10.4-.2 8.85 2.08 15.44 10.42 15.31 19.54.24 11.12-10.03 21.17-21.19 20.13-9.28-.52-17.48-7.87-18.76-17.12-1.7-9.8 4.73-19.67 14.24-22.35Z" fill="#000"/></g><g transform="translate(-279 -322)"><path d="M501.99 384.96c9.9.12 19.87 3.23 28.83 7.31 3.36 1.88 7.05 4 7.3 8.3-5.13-.87-10.13-2.07-15.37-2.3-11.6-.67-23.13 1.37-33.25 7.24-2.54 1.41-4.95 3.26-7.64 4.35-1.8.27-3.92-2-3.94-3.73-.18-5.81 1.95-11.92 6.53-15.7 5.03-4.23 11.15-5.3 17.54-5.47ZM414.03 402.61c5.81.15 10.93 5.3 12.51 10.64.8 2.63-.46 5.72-3.53 5.61-8.82.2-18.2.03-26.81 2.26-7.52 2-14.74 6.7-21.36 10.74-1.22.81-2.57.96-3.98 1.22.33-1.93.64-3.66 1.94-5.2a97.47 97.47 0 0 1 10.74-12.31c5.88-5.17 13-8.96 20.32-11.66a25.26 25.26 0 0 1 10.17-1.29Z" fill="#000"/></g><g transform="translate(-279 -322)"><path d="M505.02 633.16c9.06.53 16.84 6.73 24.11 11.4-13.1-.12-26.35 2.18-38.98 5.54-9.44 2.61-18.6 6-27.08 10.96 3.26-8.09 7.87-18.07 16.6-21.4 4-1.93 7.7-1.13 11.94-.82 3.92-3.32 8-6.13 13.4-5.68Z" fill="#D31E1E"/><path d="M529.13 644.56c2.47.2 4.68 1.43 3.9 4.25-1.38 2.08-4.46 1.3-6.64 1.51-14.9.63-29.68 3.43-43.79 8.28-4.83 1.7-9.55 3.58-13.94 6.24-2 .93-3.37 2.59-5.67 1.42-2.15-1.55-1.16-3.48.08-5.2 8.48-4.96 17.64-8.35 27.08-10.96 12.63-3.36 25.89-5.66 38.98-5.54Z" fill="#000"/><path d="M526.39 650.32a39.78 39.78 0 0 1-24.48 18.5c-11 3.05-23.16 1.14-33.24-3.98 4.39-2.66 9.1-4.54 13.94-6.24a154.94 154.94 0 0 1 43.79-8.28Z" fill="#D31E1E"/></g><g transform="translate(-279 -322)"><path fill-rule="evenodd" clip-rule="evenodd" d="M577.04 416.1c16.03 2.47 31.24 9.63 42.99 20.86a80.3 80.3 0 0 1 24.24 45.54c1.78 12.34 1.1 25.15-2.8 37.04a79.23 79.23 0 0 1-25.44 37.5A79.64 79.64 0 0 1 564 575.23c-14.18-.1-28.4-4.38-40.5-11.72-23.74-14.43-38.9-41.4-38.21-69.26-4.95-5.36-10.7-9.6-18.3-9.71-7.78.07-14.32 5.68-17.23 12.6.78 6.7 1.53 13.27.63 20.02-1.7 15.12-8 29.64-18.58 40.66A70.05 70.05 0 0 1 382 579.83a69.6 69.6 0 0 1-35.05-8.76 69.78 69.78 0 0 1-32.3-38.71c-3.43-10.4-4.98-22.02-2.92-32.86a69.67 69.67 0 0 1 23.86-42.88c12.8-11.05 29.55-16.8 46.4-16.77 12.06.48 23.94 3.63 34.33 9.83a69.78 69.78 0 0 1 30.66 37.6c4.88-5.7 11.3-9.9 19.02-9.94 7.36-.37 14.18 2.55 19.7 7.27 1.7-8.66 3.83-17.07 7.9-24.97 8.88-18.08 24.8-32.3 43.62-39.33 12.7-4.85 26.4-5.96 39.82-4.2Zm-25.54 7.81c19.43-3.94 40.2.78 56.21 12.38 21.3 15.03 33 41.83 29.67 67.68a72.72 72.72 0 0 1-23.86 45.57 72.4 72.4 0 0 1-38.56 17.7 72.55 72.55 0 0 1-71.1-33.11c-9.1-14.4-13.1-32.28-10.5-49.16a72.47 72.47 0 0 1 18.06-38.53 72.54 72.54 0 0 1 40.08-22.53Zm-147.37 27.97c-11.18-4.55-23.8-5.55-35.62-3.26a62.64 62.64 0 0 0-36.57 22.34c-8.74 10.92-13.81 25.01-13.56 39.04-.22 16.16 6.52 32.29 17.9 43.73a62.42 62.42 0 0 0 30 17c15.46 3.52 32.04 1.39 45.78-6.67 15.41-8.7 26.57-24.55 30.12-41.82 2.14-12.06 1.31-24.55-3.44-35.92a62.7 62.7 0 0 0-34.61-34.44Z" fill="#000"/></g></g></svg>