<svg xmlns="http://www.w3.org/2000/svg" viewBox="0 0 400 400" fill="none" shape-rendering="auto"><metadata xmlns:rdf="http://www.w3.org/1999/02/22-rdf-syntax-ns#" xmlns:xsi="http://www.w3.org/2001/XMLSchema-instance" xmlns:dc="http://purl.org/dc/elements/1.1/" xmlns:dcterms="http://purl.org/dc/terms/"><rdf:RDF><rdf:Description><dc:title>Adventurer Neutral</dc:title><dc:creator>Lisa Wischofsky</dc:creator><dc:source xsi:type="dcterms:URI">https://www.figma.com/community/file/1184595184137881796</dc:source><dcterms:license xsi:type="dcterms:URI">https://creativecommons.org/licenses/by/4.0/</dcterms:license><dc:rights>Remix of „Adventurer Neutral” (https://www.figma.com/community/file/1184595184137881796) by „Lisa Wischofsky”, licensed under „CC BY 4.0” (https://creativecommons.org/licenses/by/4.0/)</dc:rights></rdf:Description></rdf:RDF></metadata><mask id="viewboxMask"><rect width="400" height="400" rx="0" ry="0" x="0" y="0" fill="#fff" /></mask><g mask="url(#viewboxMask)"><rect fill="#f2d3b1" width="400" height="400" x="0" y="0" /><g transform="translate(-279 -322)"><path d="M550.27 424.38a65.85 65.85 0 0 1 34.46 5.92 65.02 65.02 0 0 1 27.52 24.52 64.86 64.86 0 0 1 8.78 46.18c-2.62 15.25-11.05 29.23-23.03 38.97-16.48 13.6-39.38 18.04-59.8 11.9a65.42 65.42 0 0 1-38.32-30.76c-7.42-12.96-9.7-28.23-7.33-42.9a64.9 64.9 0 0 1 18.4-35.26 65.17 65.17 0 0 1 39.32-18.57Z" fill="#000"/><path d="M549.23 430.27c9.32-.98 18.71-.35 27.55 2.92a59.66 59.66 0 0 1 33.08 28.93c5.89 11.3 7.76 24.3 5.8 36.86a60.18 60.18 0 0 1-17.48 33.21c-9.48 9.35-22.52 15.1-35.7 16.47a59.94 59.94 0 0 1-43.07-13.03c-9.46-7.5-15.92-17.77-19.8-29.11-5.25-18.02-1.63-38.17 9.75-53.13a59.47 59.47 0 0 1 39.88-23.12Z" fill="#fff"/><path d="M521.23 467.28c7.3-1.89 15.52.27 20.87 5.62a22 22 0 0 1 5.6 22.95c-3.5 11.19-16.53 17.96-27.64 14.08-11.45-3.35-18.17-16.1-14.6-27.48a22.37 22.37 0 0 1 15.77-15.17ZM332.97 478.46c14.43.75 28.78 1.53 43.05 3.91 21.13 3.42 42.86 8.97 62.12 18.47 2.85 1.6 2.45 3.3 1.6 6.06-2.42.05-4.41-.24-6.71-1-11.15-3.39-22.56-5.26-34.03-7.17-10.45-1.44-20.56-3.19-31-3.72-10.97-1.1-21.89-.72-32.98-.66-1.97-.1-5.02.62-6.6-.75-.76-2.14.78-4.69 1.32-6.78-.94-1.57-3.08-3.45-2.4-5.43.87-2.4 3.35-2.93 5.63-2.93Z" fill="#000"/></g><g transform="translate(-279 -322)"><path d="M568.44 405.96c-.6-2.92-2.48-4.87-4.6-6.82-11.98-10.95-29.88-15.87-45.64-11.58-9.72 2.4-18.51 8.36-23.63 17.06-2.83 5.03-4.78 10.54-3.98 16.4.08.42.13.83.18 1.23.2 1.63.37 3 2.44 3.54 2.17.12 4.4-.29 6.54-.68l.31-.06 6.22-1.2c5.24-1 10.48-2 15.68-3.19a640.08 640.08 0 0 0 44.88-11.08c1.77-.25 1.7-1.62 1.63-3.02l-.03-.6ZM430.1 431.05c-.81-9.8-8.9-17.41-17.88-20.31a39.68 39.68 0 0 0-38.34 9.13c-4.45 4.18-8.39 9.97-9.12 16.14-.08 2.74 2.36 2.78 4.44 2.82.26 0 .52 0 .77.02 3.02-.08 6.05-.14 9.07-.2 9.34-.17 18.7-.35 27.98-1.3 2.4-.21 4.83-.38 7.24-.54 4.26-.3 8.52-.58 12.74-1.14 2.42.03 3.28-2.6 3.1-4.62Z" fill="#000"/></g><g transform="translate(-279 -322)"><path d="M517.87 557.3c2.33.2 3.18 2.72 2.32 4.67-1.4 3.57-3.16 7-4.64 10.53-8.44 19.32-19.56 37.08-31.84 54.17-1.4 1.83-2.87 3.96-4.81 5.27-2.97.78-6.1.75-8.65-1.18a129.37 129.37 0 0 1-24.3-22.74c-7.03-7.83-13.5-16.1-18.86-25.17-1.05-2.12-2.54-4.48-1.19-6.81 1-1.56 3.22-2 4.86-2.55 11.13-3.1 22.19-6.48 33.39-9.29a235.06 235.06 0 0 1 35.86-5.71c5.9-.54 11.94-1.42 17.86-1.2Z" fill="#000"/><path d="M513.81 563.01c-8.96 21.23-21 40.76-34.34 59.5-.92 1.13-2.13 2.82-3.66 3.08-2.18.55-3.7-.86-5.38-2-8.5-6.52-15.77-14.18-22.74-22.27a137.4 137.4 0 0 1-16.59-22.31c14.95-4 29.9-8.63 45.12-11.4 12.45-2.5 25-3.27 37.59-4.6Z" fill="#8F2E45"/></g><g transform="translate(-279 -322)"></g></g></svg>