<svg xmlns="http://www.w3.org/2000/svg" viewBox="0 0 400 400" fill="none" shape-rendering="auto"><metadata xmlns:rdf="http://www.w3.org/1999/02/22-rdf-syntax-ns#" xmlns:xsi="http://www.w3.org/2001/XMLSchema-instance" xmlns:dc="http://purl.org/dc/elements/1.1/" xmlns:dcterms="http://purl.org/dc/terms/"><rdf:RDF><rdf:Description><dc:title>Adventurer Neutral</dc:title><dc:creator>Lisa Wischofsky</dc:creator><dc:source xsi:type="dcterms:URI">https://www.figma.com/community/file/1184595184137881796</dc:source><dcterms:license xsi:type="dcterms:URI">https://creativecommons.org/licenses/by/4.0/</dcterms:license><dc:rights>Remix of „Adventurer Neutral” (https://www.figma.com/community/file/1184595184137881796) by „Lisa Wischofsky”, licensed under „CC BY 4.0” (https://creativecommons.org/licenses/by/4.0/)</dc:rights></rdf:Description></rdf:RDF></metadata><mask id="viewboxMask"><rect width="400" height="400" rx="0" ry="0" x="0" y="0" fill="#fff" /></mask><g mask="url(#viewboxMask)"><rect fill="#9e5622" width="400" height="400" x="0" y="0" /><g transform="translate(-279 -322)"><path d="M551.26 424.28c22.14-1.95 44.44 7.9 57.71 25.75a66.1 66.1 0 0 1 13.2 39.97c-.27 12.75-4.02 25.34-11.26 35.89-8.84 13.1-22.73 23-38.11 26.7a65.2 65.2 0 0 1-73.29-32.14c-7.12-12.81-9.26-27.78-6.96-42.2a65.29 65.29 0 0 1 58.72-53.98Z" fill="#000"/><path d="M549.27 430.26a59.62 59.62 0 0 1 44.29 12.15c14.44 11.16 23.28 29.33 22.8 47.6.05 22.95-14.44 44.84-35.55 53.82-10.6 4.63-22.39 6.3-33.8 4.22a59.6 59.6 0 0 1-40.36-26.68 61.43 61.43 0 0 1-9.37-29.31 60.42 60.42 0 0 1 13.41-40.36 59.52 59.52 0 0 1 38.58-21.43Z" fill="#fff"/><path d="M381.25 447.09a54.98 54.98 0 0 1 58.67 39.98 55 55 0 0 1-26.76 63.08 54.6 54.6 0 0 1-33.18 6.15c-15.78-1.82-30.34-11-39-24.28-5.54-8.32-8.46-18.03-9.11-27.97-.31-12.55 3.4-25.11 11-35.17a55.12 55.12 0 0 1 38.38-21.8Z" fill="#000"/><path d="M378.26 453.29a49.1 49.1 0 0 1 32.85 5.6c17.73 9.8 28.17 31.01 24.42 51.02A49.54 49.54 0 0 1 391 550.94c-20.15 1.85-40.17-9.84-48.64-28.18a49.26 49.26 0 0 1 5.04-50.33 49.4 49.4 0 0 1 30.86-19.14Z" fill="#fff"/><path d="M526.47 467.49c12.02-2.86 24.89 4.24 29.36 15.65 2.2 6 2.32 12.7-.08 18.66a25.56 25.56 0 0 1-19.7 15.97 25.68 25.68 0 0 1-22.47-7.35 25.7 25.7 0 0 1-5.46-27.34 25.5 25.5 0 0 1 18.35-15.59ZM398.26 478.35c12.27-2.56 24.75 5.81 27.12 18.08.66 5.63.55 11.35-2.68 16.22-4.79 8-14.36 12.76-23.63 11.14-10.66-1.7-19-10.97-19.33-21.79a23.04 23.04 0 0 1 18.52-23.65Z" fill="#000"/></g><g transform="translate(-279 -322)"><g fill="#000"><path d="M517.07 379.66c.86-.91 2.17-2.3 1.77-3.56-.35-2.45-3.58-3.11-5.22-1.46a221.7 221.7 0 0 0-8.34 7.33c-2.16 1.96-4.3 3.92-6.5 5.8a117.9 117.9 0 0 1-3.06 2.73c-2.64 2.3-5.21 4.56-7.32 7.5.33.33.6.68.88 1.02.72.9 1.4 1.74 2.73 1.81 1.5-.08 2.71-1.13 3.82-2.1l.41-.35c4.3-4 8.7-7.9 13.1-11.8 2.52-2.24 5.05-4.47 7.55-6.73l.06-.07.12-.12ZM539.69 378.66c.54-1.8-.18-2.95-1.6-4-2-.34-3.84.74-5.58 1.76-.44.26-.87.51-1.3.74-4.43 2.64-8.92 5.2-13.4 7.77-4.83 2.76-9.66 5.51-14.4 8.37-1.63.86-1.65 2.04-1.68 3.44 0 .45-.02.93-.08 1.42.46.1.9.24 1.31.38 1.2.4 2.27.75 3.58-.05 5.06-2.8 10.07-5.7 15.09-8.62a959.63 959.63 0 0 1 14.42-8.28c1.36-.8 2.87-1.67 3.65-2.94ZM566.39 378.4c2.1-.74 4.24.22 4.44 2.6-.08 2.3-1.76 2.9-3.53 3.51l-.77.28c-12.18 3.72-24.35 7.5-36.5 11.31-.37.09-.73.2-1.08.3-1.34.4-2.64.78-4 .08-1.82-1.26-1.8-4.32.36-5.22 1.8-.82 3.73-1.38 5.65-1.93a4048.39 4048.39 0 0 0 14.1-4.35c7.1-2.22 14.2-4.44 21.33-6.58ZM589.38 390.36c1.02-1.63.62-2.97-.45-4.43-2.25-.73-4.9-.11-7.4.47-.87.2-1.72.4-2.52.53-2.84.58-5.7 1.14-8.54 1.7h-.02c-4.14.81-8.27 1.62-12.4 2.5-1.87.47-3.69 1.64-3.1 3.87.65 2.02 2.02 2.45 4.03 2.12 4.01-.7 8-1.52 12-2.35 3.85-.8 7.7-1.6 11.56-2.27l1.3-.26c1.93-.36 4.05-.75 5.54-1.88ZM405.8 394.7c1.93 1.26 3.85 2.5 5.81 3.7.74.48 1.5.94 2.25 1.4 1.73 1.05 3.47 2.11 5 3.4 1.7 1.35 1.2 4.27-.83 5-1.8.35-3.06-.44-4.43-1.29l-.94-.56c-4.3-2.78-8.62-5.51-12.95-8.25l-4.17-2.64c-.1-.08-.22-.17-.35-.25l-.37-.27c-1.1-.75-2.42-1.66-2.4-2.93-.35-2.43 2.22-4.08 4.37-2.87 3.08 1.7 6.05 3.64 9.01 5.57Z"/><path d="M383.94 395.53a45.88 45.88 0 0 0-5.95-1.72c-2.5-.5-4.12 2.02-3.31 4.28 1.14 1.27 2.56 1.75 4.08 2.26l.4.14.32.1c4.02 1.26 8.03 2.55 12.03 3.85h.03c4.14 1.34 8.27 2.68 12.42 3.96 2.46.78 4.88.57 5.36-2.42-.17-2.11-2-2.8-3.72-3.44l-.15-.05-.23-.09-.5-.2c-6.06-1.95-12.14-3.89-18.22-5.83-.85-.26-1.7-.55-2.56-.84ZM587.13 395.34c3.45-.22 6.9-.28 10.37-.34 2.5-.05 5-.1 7.5-.2.4.03.84.03 1.3.03 1.67 0 3.6 0 4.35 1.53 1.26 1.74-.2 3.78-2.02 4.19-2.91.62-6.04.6-9.1.58-1.19 0-2.37-.01-3.53.02-1 0-2 .04-3 .07-1.68.05-3.36.1-5.04.04-1.22 0-3.12-.35-3.5-1.7a3 3 0 0 1 2.67-4.22ZM360.28 402.87c-2.04-.1-4.17-.2-6.08.32-1.5 1.2-1.47 3.44-.15 4.8 1.66.7 3.64.86 5.45 1l.16.01.32.03c3.43.16 6.85.37 10.27.58 3.92.25 7.83.49 11.74.66.85.02 1.72.1 2.6.18 1.84.18 3.72.35 5.44-.06a2.78 2.78 0 0 0 1.12-4.59c-.84-.99-1.87-1.05-2.98-1.12-.38-.03-.77-.05-1.16-.11l-12.51-.81-12.5-.81c-.57-.01-1.14-.04-1.73-.07ZM348.97 411.64l4.48-.33c4.19-.34 8.4-.68 12.56-.42 2.93.26 3.13 4.75.25 5.42-2.9.73-5.97.84-9.03.96-1.76.06-3.52.13-5.23.31-1.17.04-2.36.15-3.55.25-2.47.22-4.96.44-7.36.12-2.45-.43-2.74-4.43-.52-5.35 1.77-.65 3.79-.73 5.76-.8.9-.04 1.79-.07 2.64-.16ZM345.51 425.36c2.91-.95 2.78-5.26-.48-5.63-2.85.03-5.72.55-8.57 1.06-1.35.24-2.69.48-4.02.67-.74.18-1.6.3-2.52.4-2.27.28-4.78.6-6.04 2.18-1.16 2.39.53 4.6 3.07 4.38 6.17-.74 12.5-1.76 18.56-3.06Z"/></g></g><g transform="translate(-279 -322)"><path d="M524.16 555.86c.61 6.97-.8 13.29-1.53 20.14a244.24 244.24 0 0 1-19.15 70.23c-3.65 7.33-6.72 15.74-13.94 20.34-3.86 2.79-9.11 1.94-13.2.16-4.48-2.23-8.94-4.98-12.4-8.63a171.31 171.31 0 0 1-29.95-42.13c-6.76-12.54-11.65-25.76-17.12-38.87-.92-2.1-1.13-4.11 1.07-5.43 4.38-.1 8.65 1.41 13.06 1.45 9.89.33 20 .52 29.81-.88 17.69-2.04 35.09-7.15 51.54-13.9 4.22-1.53 7.13-4.31 11.8-2.48Z" fill="#000"/><path d="M518.92 562c-2.1 16.35-4.16 32.05-8.89 47.96-9.07-.71-18.45 2.59-26.46 6.61-10.54 5.48-21.2 13.48-27.26 23.89-7.57-9.81-13.74-20.42-19.35-31.44-5.4-10.14-9.36-20.75-13.97-31.24 9.45.8 18.5 2.05 28 1 23.2-.72 46.68-7.68 67.93-16.78Z" fill="#8F2E45"/><path d="M508.19 616.1c-3.83 13.3-8.82 26.4-15.55 38.52-1.62 2.89-3.68 5.84-6.7 7.39-4.1 1.71-9.13-1.19-12.46-3.5-5.34-3.38-8.58-8.29-12.86-12.75 1.94-5.34 6.2-9.98 10.4-13.7 7.82-6.68 17.1-12.04 27-14.9 3.33-1.04 6.71-1.16 10.17-1.06Z" fill="#EA869E"/></g><g transform="translate(-279 -322)"><path fill-rule="evenodd" clip-rule="evenodd" d="M577.04 416.1c16.03 2.47 31.24 9.63 42.99 20.86a80.3 80.3 0 0 1 24.24 45.54c1.78 12.34 1.1 25.15-2.8 37.04a79.23 79.23 0 0 1-25.44 37.5A79.64 79.64 0 0 1 564 575.23c-14.18-.1-28.4-4.38-40.5-11.72-23.74-14.43-38.9-41.4-38.21-69.26-4.95-5.36-10.7-9.6-18.3-9.71-7.78.07-14.32 5.68-17.23 12.6.78 6.7 1.53 13.27.63 20.02-1.7 15.12-8 29.64-18.58 40.66A70.05 70.05 0 0 1 382 579.83a69.6 69.6 0 0 1-35.05-8.76 69.78 69.78 0 0 1-32.3-38.71c-3.43-10.4-4.98-22.02-2.92-32.86a69.67 69.67 0 0 1 23.86-42.88c12.8-11.05 29.55-16.8 46.4-16.77 12.06.48 23.94 3.63 34.33 9.83a69.78 69.78 0 0 1 30.66 37.6c4.88-5.7 11.3-9.9 19.02-9.94 7.36-.37 14.18 2.55 19.7 7.27 1.7-8.66 3.83-17.07 7.9-24.97 8.88-18.08 24.8-32.3 43.62-39.33 12.7-4.85 26.4-5.96 39.82-4.2Zm-25.54 7.81c19.43-3.94 40.2.78 56.21 12.38 21.3 15.03 33 41.83 29.67 67.68a72.72 72.72 0 0 1-23.86 45.57 72.4 72.4 0 0 1-38.56 17.7 72.55 72.55 0 0 1-71.1-33.11c-9.1-14.4-13.1-32.28-10.5-49.16a72.47 72.47 0 0 1 18.06-38.53 72.54 72.54 0 0 1 40.08-22.53Zm-147.37 27.97c-11.18-4.55-23.8-5.55-35.62-3.26a62.64 62.64 0 0 0-36.57 22.34c-8.74 10.92-13.81 25.01-13.56 39.04-.22 16.16 6.52 32.29 17.9 43.73a62.42 62.42 0 0 0 30 17c15.46 3.52 32.04 1.39 45.78-6.67 15.41-8.7 26.57-24.55 30.12-41.82 2.14-12.06 1.31-24.55-3.44-35.92a62.7 62.7 0 0 0-34.61-34.44Z" fill="#000"/></g></g></svg>