<svg xmlns="http://www.w3.org/2000/svg" viewBox="0 0 400 400" fill="none" shape-rendering="auto"><metadata xmlns:rdf="http://www.w3.org/1999/02/22-rdf-syntax-ns#" xmlns:xsi="http://www.w3.org/2001/XMLSchema-instance" xmlns:dc="http://purl.org/dc/elements/1.1/" xmlns:dcterms="http://purl.org/dc/terms/"><rdf:RDF><rdf:Description><dc:title>Adventurer Neutral</dc:title><dc:creator>Lisa Wischofsky</dc:creator><dc:source xsi:type="dcterms:URI">https://www.figma.com/community/file/1184595184137881796</dc:source><dcterms:license xsi:type="dcterms:URI">https://creativecommons.org/licenses/by/4.0/</dcterms:license><dc:rights>Remix of „Adventurer Neutral” (https://www.figma.com/community/file/1184595184137881796) by „Lisa Wischofsky”, licensed under „CC BY 4.0” (https://creativecommons.org/licenses/by/4.0/)</dc:rights></rdf:Description></rdf:RDF></metadata><mask id="viewboxMask"><rect width="400" height="400" rx="0" ry="0" x="0" y="0" fill="#fff" /></mask><g mask="url(#viewboxMask)"><rect fill="#9e5622" width="400" height="400" x="0" y="0" /><g transform="translate(-279 -322)"><path d="M540.5 447.73c18.9-2.42 39.63-.58 56.95 7.8 8.55 4.17 16.74 10.3 21.22 18.9 3.9 7.33 3.91 16.75-.16 24.02-4.22 8.05-12 14.1-19.93 18.24-13.55 7.02-29.4 9.83-44.57 9.65-12.04.02-23.93-1.81-35.2-6.11-8.98-3.47-17.66-8.68-23.75-16.26-4.84-6.12-7.63-14.13-5.89-21.93 1.84-8.56 7.5-15.36 14.4-20.47 10.64-7.84 23.95-11.98 36.92-13.84Z" fill="#000"/><path d="M546.98 452.71c8.4-.27 17.24-.58 25.5 1.08 10.6 1.7 21.45 5.3 30.3 11.45 5.5 3.95 10.43 9.09 12.35 15.73 2.02 6.8-.27 14.13-4.75 19.45-6.1 7.46-15.56 12.38-24.55 15.43-9.89 3.26-20.41 5.08-30.83 4.84a92.86 92.86 0 0 1-30.23-4.45c-9.19-3.05-18.45-7.69-24.78-15.23-4.3-5.04-6.9-12.45-4.86-18.97 1.5-6.55 6.69-12.06 11.94-15.96 11.4-8.26 26.07-12.06 39.91-13.37Z" fill="#fff"/><path d="M373.48 460.76c16.32-2.29 34.23-.9 49.1 6.64 7.74 4 15.42 10.43 17.96 19.07 2.33 7.1-.17 14.74-4.65 20.42-6.29 7.75-15.28 12.42-24.65 15.4a89.74 89.74 0 0 1-45.3 1.76c-9.87-2.25-20-6.47-27.15-13.89-4.71-4.75-7.92-11.31-7.35-18.12.54-7.22 4.98-13.65 10.43-18.18 8.81-7.42 20.37-11.3 31.6-13.11Z" fill="#000"/><path d="M371.5 466.92c15.62-3 32.92-1.77 47.43 5.05 6.36 3.02 13.43 8.26 15.74 15.2 2.08 5.63.36 11.7-3.32 16.23-4.64 5.76-11.76 9.8-18.6 12.35a80.56 80.56 0 0 1-39 3.9c-9.28-1.29-18.97-4.28-26.66-9.78-5.23-3.9-9.63-9.03-9.9-15.85-.2-6.85 4.16-12.52 9.28-16.58 7.13-5.5 16.25-8.8 25.03-10.52Z" fill="#fff"/><path d="M592.23 469.2c2.12-1.59 4.65-.32 5.95 1.66 2.4 4 2.38 9.6 2.8 14.14.2 4.39.48 9.64-1.23 13.75-1.98 4.07-7.4 1.34-8.7-1.8-2.28-6.35-2.19-13.75-1.68-20.4.42-2.36.64-5.94 2.86-7.35ZM416.85 476.07c2.18.53 2.81 3.77 3.31 5.63.82 5.03 1.38 10.25 1.06 15.34-.33 2.54-.69 5.69-3.12 7.13-2.07 1.29-4.27-.03-5.35-1.93-2.07-3.84-2.16-8.98-2.29-13.24.06-4.36-.1-8.73 2.24-12.56 1.44-.39 2.65-.96 4.15-.37Z" fill="#000"/></g><g transform="translate(-279 -322)"><g fill="#000"><path d="M517.07 379.66c.86-.91 2.17-2.3 1.77-3.56-.35-2.45-3.58-3.11-5.22-1.46a221.7 221.7 0 0 0-8.34 7.33c-2.16 1.96-4.3 3.92-6.5 5.8a117.9 117.9 0 0 1-3.06 2.73c-2.64 2.3-5.21 4.56-7.32 7.5.33.33.6.68.88 1.02.72.9 1.4 1.74 2.73 1.81 1.5-.08 2.71-1.13 3.82-2.1l.41-.35c4.3-4 8.7-7.9 13.1-11.8 2.52-2.24 5.05-4.47 7.55-6.73l.06-.07.12-.12ZM539.69 378.66c.54-1.8-.18-2.95-1.6-4-2-.34-3.84.74-5.58 1.76-.44.26-.87.51-1.3.74-4.43 2.64-8.92 5.2-13.4 7.77-4.83 2.76-9.66 5.51-14.4 8.37-1.63.86-1.65 2.04-1.68 3.44 0 .45-.02.93-.08 1.42.46.1.9.24 1.31.38 1.2.4 2.27.75 3.58-.05 5.06-2.8 10.07-5.7 15.09-8.62a959.63 959.63 0 0 1 14.42-8.28c1.36-.8 2.87-1.67 3.65-2.94ZM566.39 378.4c2.1-.74 4.24.22 4.44 2.6-.08 2.3-1.76 2.9-3.53 3.51l-.77.28c-12.18 3.72-24.35 7.5-36.5 11.31-.37.09-.73.2-1.08.3-1.34.4-2.64.78-4 .08-1.82-1.26-1.8-4.32.36-5.22 1.8-.82 3.73-1.38 5.65-1.93a4048.39 4048.39 0 0 0 14.1-4.35c7.1-2.22 14.2-4.44 21.33-6.58ZM589.38 390.36c1.02-1.63.62-2.97-.45-4.43-2.25-.73-4.9-.11-7.4.47-.87.2-1.72.4-2.52.53-2.84.58-5.7 1.14-8.54 1.7h-.02c-4.14.81-8.27 1.62-12.4 2.5-1.87.47-3.69 1.64-3.1 3.87.65 2.02 2.02 2.45 4.03 2.12 4.01-.7 8-1.52 12-2.35 3.85-.8 7.7-1.6 11.56-2.27l1.3-.26c1.93-.36 4.05-.75 5.54-1.88ZM405.8 394.7c1.93 1.26 3.85 2.5 5.81 3.7.74.48 1.5.94 2.25 1.4 1.73 1.05 3.47 2.11 5 3.4 1.7 1.35 1.2 4.27-.83 5-1.8.35-3.06-.44-4.43-1.29l-.94-.56c-4.3-2.78-8.62-5.51-12.95-8.25l-4.17-2.64c-.1-.08-.22-.17-.35-.25l-.37-.27c-1.1-.75-2.42-1.66-2.4-2.93-.35-2.43 2.22-4.08 4.37-2.87 3.08 1.7 6.05 3.64 9.01 5.57Z"/><path d="M383.94 395.53a45.88 45.88 0 0 0-5.95-1.72c-2.5-.5-4.12 2.02-3.31 4.28 1.14 1.27 2.56 1.75 4.08 2.26l.4.14.32.1c4.02 1.26 8.03 2.55 12.03 3.85h.03c4.14 1.34 8.27 2.68 12.42 3.96 2.46.78 4.88.57 5.36-2.42-.17-2.11-2-2.8-3.72-3.44l-.15-.05-.23-.09-.5-.2c-6.06-1.95-12.14-3.89-18.22-5.83-.85-.26-1.7-.55-2.56-.84ZM587.13 395.34c3.45-.22 6.9-.28 10.37-.34 2.5-.05 5-.1 7.5-.2.4.03.84.03 1.3.03 1.67 0 3.6 0 4.35 1.53 1.26 1.74-.2 3.78-2.02 4.19-2.91.62-6.04.6-9.1.58-1.19 0-2.37-.01-3.53.02-1 0-2 .04-3 .07-1.68.05-3.36.1-5.04.04-1.22 0-3.12-.35-3.5-1.7a3 3 0 0 1 2.67-4.22ZM360.28 402.87c-2.04-.1-4.17-.2-6.08.32-1.5 1.2-1.47 3.44-.15 4.8 1.66.7 3.64.86 5.45 1l.16.01.32.03c3.43.16 6.85.37 10.27.58 3.92.25 7.83.49 11.74.66.85.02 1.72.1 2.6.18 1.84.18 3.72.35 5.44-.06a2.78 2.78 0 0 0 1.12-4.59c-.84-.99-1.87-1.05-2.98-1.12-.38-.03-.77-.05-1.16-.11l-12.51-.81-12.5-.81c-.57-.01-1.14-.04-1.73-.07ZM348.97 411.64l4.48-.33c4.19-.34 8.4-.68 12.56-.42 2.93.26 3.13 4.75.25 5.42-2.9.73-5.97.84-9.03.96-1.76.06-3.52.13-5.23.31-1.17.04-2.36.15-3.55.25-2.47.22-4.96.44-7.36.12-2.45-.43-2.74-4.43-.52-5.35 1.77-.65 3.79-.73 5.76-.8.9-.04 1.79-.07 2.64-.16ZM345.51 425.36c2.91-.95 2.78-5.26-.48-5.63-2.85.03-5.72.55-8.57 1.06-1.35.24-2.69.48-4.02.67-.74.18-1.6.3-2.52.4-2.27.28-4.78.6-6.04 2.18-1.16 2.39.53 4.6 3.07 4.38 6.17-.74 12.5-1.76 18.56-3.06Z"/></g></g><g transform="translate(-279 -322)"><path d="M522.82 563.04c10.94 1.36 21.85 6.96 27.22 16.95 3.39 6.26 4.89 14.23 3.3 21.22-1.46 10.35-7.53 20.05-14.5 27.62a76.94 76.94 0 0 1-44.81 23.04 92.7 92.7 0 0 1-42.88-3c-8.75-2.81-16.6-7.54-23.81-13.16-8.31-6.76-15.78-15.35-19.58-25.48a33.06 33.06 0 0 1-1.77-17.28c1.2-6.9 6.43-12.62 12.81-15.26a36.97 36.97 0 0 1 21.19-1.83c9.02 1.21 16.75 5.04 24.7 9.17 14.67-15.16 36.94-24.58 58.13-22Z" fill="#000"/><path d="M518 568.55c8.8.31 17.43 3.3 23.68 9.68-3 3.63-6.83 6.32-11 8.45-1.69.91-3.64 1.7-5.06 3-2.43 2.96-3.61 8.2-6.65 10.48-3.54-1.12-6.78-3.83-9.93-5.8a175.42 175.42 0 0 1-44.04 4.58c-11.05.23-22.04-.67-32.94-2.47-1.81-.27-4.09-1-5.85-.33-2.18 1.44-3.94 3.6-5.81 5.4-1.83-2.83-3.68-5.66-5.46-8.54l-2.73-1.25c2.73-6 8.37-9.5 14.77-10.37 11.68-1.64 24.09 2.63 34 8.6 1.96 1.02 3.62 2.33 5.79.88 2.83-2.16 5.16-4.92 8-7.08 11.96-9.59 27.77-15.96 43.23-15.23Z" fill="#fff"/><path d="M545.34 583.32a29.2 29.2 0 0 1 2.14 17.66c-1.97 9.52-7.06 17.79-13.83 24.66-10.82 11.28-26.42 18.1-41.67 20.62-11.17 1.37-23.03 1.31-33.94-1.69-14.7-3.87-28.12-12.06-37.6-24.04-5.22-6.78-9.17-14.14-9.37-22.9 2.6 2.67 3.87 6.23 6.31 8.96 4.2 3.28 7.73-2.11 10.5-4.66 17.64 2.5 36.38 4.36 54.12 2.36 8.82-.4 17.5-1.87 26.14-3.56 3.7 1.43 8.33 5.92 12.7 4.94 6.03-2.25 6.05-11.84 12.25-13.61a42.73 42.73 0 0 0 10.12-6.82l2.13-1.92Z" fill="#8F2E45"/></g><g transform="translate(-279 -322)"><path fill-rule="evenodd" clip-rule="evenodd" d="M577.04 416.1c16.03 2.47 31.24 9.63 42.99 20.86a80.3 80.3 0 0 1 24.24 45.54c1.78 12.34 1.1 25.15-2.8 37.04a79.23 79.23 0 0 1-25.44 37.5A79.64 79.64 0 0 1 564 575.23c-14.18-.1-28.4-4.38-40.5-11.72-23.74-14.43-38.9-41.4-38.21-69.26-4.95-5.36-10.7-9.6-18.3-9.71-7.78.07-14.32 5.68-17.23 12.6.78 6.7 1.53 13.27.63 20.02-1.7 15.12-8 29.64-18.58 40.66A70.05 70.05 0 0 1 382 579.83a69.6 69.6 0 0 1-35.05-8.76 69.78 69.78 0 0 1-32.3-38.71c-3.43-10.4-4.98-22.02-2.92-32.86a69.67 69.67 0 0 1 23.86-42.88c12.8-11.05 29.55-16.8 46.4-16.77 12.06.48 23.94 3.63 34.33 9.83a69.78 69.78 0 0 1 30.66 37.6c4.88-5.7 11.3-9.9 19.02-9.94 7.36-.37 14.18 2.55 19.7 7.27 1.7-8.66 3.83-17.07 7.9-24.97 8.88-18.08 24.8-32.3 43.62-39.33 12.7-4.85 26.4-5.96 39.82-4.2Zm-25.54 7.81c19.43-3.94 40.2.78 56.21 12.38 21.3 15.03 33 41.83 29.67 67.68a72.72 72.72 0 0 1-23.86 45.57 72.4 72.4 0 0 1-38.56 17.7 72.55 72.55 0 0 1-71.1-33.11c-9.1-14.4-13.1-32.28-10.5-49.16a72.47 72.47 0 0 1 18.06-38.53 72.54 72.54 0 0 1 40.08-22.53Zm-147.37 27.97c-11.18-4.55-23.8-5.55-35.62-3.26a62.64 62.64 0 0 0-36.57 22.34c-8.74 10.92-13.81 25.01-13.56 39.04-.22 16.16 6.52 32.29 17.9 43.73a62.42 62.42 0 0 0 30 17c15.46 3.52 32.04 1.39 45.78-6.67 15.41-8.7 26.57-24.55 30.12-41.82 2.14-12.06 1.31-24.55-3.44-35.92a62.7 62.7 0 0 0-34.61-34.44Z" fill="#000"/></g></g></svg>