<svg xmlns="http://www.w3.org/2000/svg" viewBox="0 0 400 400" fill="none" shape-rendering="auto"><metadata xmlns:rdf="http://www.w3.org/1999/02/22-rdf-syntax-ns#" xmlns:xsi="http://www.w3.org/2001/XMLSchema-instance" xmlns:dc="http://purl.org/dc/elements/1.1/" xmlns:dcterms="http://purl.org/dc/terms/"><rdf:RDF><rdf:Description><dc:title>Adventurer Neutral</dc:title><dc:creator>Lisa Wischofsky</dc:creator><dc:source xsi:type="dcterms:URI">https://www.figma.com/community/file/1184595184137881796</dc:source><dcterms:license xsi:type="dcterms:URI">https://creativecommons.org/licenses/by/4.0/</dcterms:license><dc:rights>Remix of „Adventurer Neutral” (https://www.figma.com/community/file/1184595184137881796) by „Lisa Wischofsky”, licensed under „CC BY 4.0” (https://creativecommons.org/licenses/by/4.0/)</dc:rights></rdf:Description></rdf:RDF></metadata><mask id="viewboxMask"><rect width="400" height="400" rx="0" ry="0" x="0" y="0" fill="#fff" /></mask><g mask="url(#viewboxMask)"><rect fill="#ecad80" width="400" height="400" x="0" y="0" /><g transform="translate(-279 -322)"><path d="M559.03 444.54c11.35-.74 22.5-.03 33.16 4.25 11.38 4.42 21.3 12.4 26.22 23.8 1.35 3.28 3.11 7.55 2.23 11.1-3.07 3.25-8.56 1.02-12.56 1.03-12.66-.6-25.44-.46-38.07.6-13.92 1-28.4 1.71-41.93 5.23-8.57 1.76-17 4.47-25.23 7.41-3.69 1.26-6.8 2.95-10.86 2.2 1.31-16.82 12.96-31.4 26.26-40.94a87.3 87.3 0 0 1 40.78-14.69Z" fill="#000"/><path d="M572.98 450.16c11.61 1.09 23.19 4.98 31.87 13a36.2 36.2 0 0 1 10.19 16.72c-16.72-2.17-34.3-.87-51.09.1-7.64.88-15.37.98-22.94 2.25 1.15-9.27 2.15-18.43 1.05-27.77 10.01-3.52 20.28-5.48 30.92-4.3Z" fill="#fff"/><path d="M369.22 468.68c17.1-2.83 35.63-.23 50.88 8.19 8.69 4.83 16.86 12.07 20.6 21.48.74 2.06 1.6 4.59-.72 5.96-2.65.08-5.37-.59-8-1-9.4-1.82-19.4-2.12-28.98-2.58-10.7-.45-21.3.47-32 .59-12.48.84-24.76 2.93-37.09 5-2.44.58-3.13-2.39-3.06-4.24.15-12.37 9.08-22.32 19.76-27.45 6-2.54 12.23-4.67 18.62-5.95Z" fill="#000"/><path d="M516.85 467.34c-.57 6.96-.53 13.45.13 20.4-6.16 1.8-12.2 3.88-18.22 6.1 3.2-10.63 9.88-19.24 18.1-26.5ZM374.58 473.35c9.9-.51 19.68.03 29.2 2.93 12.4 3.71 23.8 10.16 30.58 21.56-20.19-3.58-39.98-2.6-60.31-2.46.88-7.35.67-14.65.53-22.03ZM350.49 480.58c-.28 5.86-.25 11.64 0 17.5-4.7.28-9.4.74-14.03 1.68 1.62-7 5.15-12.07 10.65-16.56 1.13-.89 2.26-1.76 3.39-2.62Z" fill="#fff"/></g><g transform="translate(-279 -322)"><path d="M613.54 401.51c1.6 1 1.08 2.86 1.24 4.48-.06 11.34-.05 22.7-.12 34.04.32 2.75-2.42 4.22-4.62 5-40 13.74-80.12 27.25-120.05 41.12-2.53.2-2.84-1.75-3.5-3.66-1.64-6-3.31-11.98-5.02-17.95.97 5.75.98 11.66 1.36 17.47-.02 1.44.45 3.94-1 4.85-1.94 1.4-4.06.13-4.59-2.03-3.64-12.73-7.02-25.58-10.66-38.32-.39-1.83-.65-3.9 1.36-4.88 2.11-.5 3.41.47 4 2.44 1.27 4.55 2.55 9.11 3.68 13.7-.73-5.24-.94-10.5-1.18-15.77 0-1.27-.14-3.73 1.66-3.8 1.47-.25 2.98-.37 4.43-.7 41.23-11.75 82.37-23.45 123.6-35.23 3.27-.87 6.02-2.08 9.4-.76ZM324 433.87c13.64 1.39 27.36 1.44 41 2.58 21.04 1.05 42.11 2.67 63.14 3.42 7.8.78 15.61 1.12 23.44 1.68 2.77 2.19 1.08 8.08 1.91 11.33.56-2.97.18-6.9 1.92-9.46a2.85 2.85 0 0 1 4.76 2.56c-2.36 14.03-4.77 28.14-7.02 42.18-.8 2.93-4.48 2.56-5.29-.15-.27-4.92-.21-9.89-.28-14.83-1.03 4.3-1.47 8.69-2.47 12.98-.42 1.64-1.16 2.84-3.1 2.4-39.47-6.89-79.39-14.23-118.86-21.3-1.88-.19-2.83-1.45-3.09-3.25-1.45-7.98-2.5-16.04-4.12-24-.23-1.7-.74-3.13.56-4.57 2.12-2.3 4.72-1.68 7.5-1.57Z" fill="#000"/></g><g transform="translate(-279 -322)"><path d="M524.2 555.79c.5 6.88-.8 13.42-1.56 20.21a245.12 245.12 0 0 1-19.15 70.23c-3.65 7.33-6.74 15.74-13.95 20.34-4.25 3.06-10.3 1.77-14.6-.52-9.5-4.69-15.15-12.28-21.77-20.2-10.97-13.4-18.85-28.33-26.05-44-3.56-8.2-6.83-16.5-10.25-24.75-.87-2.13-1.17-4.1 1.07-5.43 4.72 0 9.31 1.5 14.06 1.5 9.3.25 18.74.41 27.98-.8 19.98-2.3 39.64-8.31 58-16.45 2.12-1.07 4.02-.6 6.22-.13Z" fill="#000"/><path d="M518.93 561.99c-1.93 15.16-3.98 30.2-8 44.98-4.7 16.77-10.28 33.84-19.06 48.96-2.17 3.44-5.3 7.34-9.89 6.51-7.43-1.55-14.07-8-18.68-13.73-9.88-10.97-17.89-23.26-24.61-36.38-6.13-11.12-10.64-22.89-15.69-34.52 4.8.44 9.6.8 14.4 1.2 1.13 5.94 4.6 11.5 8.45 16.07 5.08 5.94 12.23 9.8 20.13 9.97a27.87 27.87 0 0 0 16.68-7.36c8.02-7.35 11.96-17.07 14.48-27.43a265.03 265.03 0 0 0 21.79-8.27Z" fill="#8F2E45"/><path d="M490.65 572.12c-2.55 8.79-7.09 18.39-14.95 23.6-5.47 3.76-12.7 4.38-18.57 1.11-7-3.86-10.9-10.5-13.93-17.65 16.1-.33 32-2.32 47.45-7.06Z" fill="#fff"/></g><g transform="translate(-279 -322)"></g></g></svg>