<svg xmlns="http://www.w3.org/2000/svg" viewBox="0 0 400 400" fill="none" shape-rendering="auto"><metadata xmlns:rdf="http://www.w3.org/1999/02/22-rdf-syntax-ns#" xmlns:xsi="http://www.w3.org/2001/XMLSchema-instance" xmlns:dc="http://purl.org/dc/elements/1.1/" xmlns:dcterms="http://purl.org/dc/terms/"><rdf:RDF><rdf:Description><dc:title>Adventurer Neutral</dc:title><dc:creator>Lisa Wischofsky</dc:creator><dc:source xsi:type="dcterms:URI">https://www.figma.com/community/file/1184595184137881796</dc:source><dcterms:license xsi:type="dcterms:URI">https://creativecommons.org/licenses/by/4.0/</dcterms:license><dc:rights>Remix of „Adventurer Neutral” (https://www.figma.com/community/file/1184595184137881796) by „Lisa Wischofsky”, licensed under „CC BY 4.0” (https://creativecommons.org/licenses/by/4.0/)</dc:rights></rdf:Description></rdf:RDF></metadata><mask id="viewboxMask"><rect width="400" height="400" rx="0" ry="0" x="0" y="0" fill="#fff" /></mask><g mask="url(#viewboxMask)"><rect fill="#f2d3b1" width="400" height="400" x="0" y="0" /><g transform="translate(-279 -322)"><path d="M550.3 424.38c22.91-2.4 46.2 8 59.5 26.8A65.77 65.77 0 0 1 622.16 491c-.45 10.96-3.32 21.75-8.93 31.21-8.53 14.65-23.03 25.87-39.46 30.13a65.5 65.5 0 0 1-41.5-2.57 65.32 65.32 0 0 1-32.38-28.67c-7.4-12.95-9.7-28.21-7.34-42.87a64.87 64.87 0 0 1 17.9-34.8 65.14 65.14 0 0 1 39.86-19.06Z" fill="#000"/><path d="M549.26 430.26a59.65 59.65 0 0 1 42.62 10.89c15.43 11.05 25 29.84 24.48 48.85.05 22.7-14.12 44.35-34.86 53.52-10.79 4.85-22.8 6.65-34.5 4.52a59.62 59.62 0 0 1-40.35-26.67 61.5 61.5 0 0 1-9.37-29.32 60.42 60.42 0 0 1 13.41-40.36 59.52 59.52 0 0 1 38.57-21.43Z" fill="#fff"/><path d="M381.24 447.1a54.92 54.92 0 0 1 59.96 45.86c1.17 8.18.85 16.9-1.66 24.82A54.86 54.86 0 0 1 380 556.3c-15.8-1.8-30.35-11-39.02-24.28-5.54-8.32-8.46-18.03-9.11-27.97-.3-12.31 3.26-24.64 10.57-34.6a55.1 55.1 0 0 1 38.8-22.35Z" fill="#000"/><path d="M376.5 453.67c18.86-4.33 39.25 3.64 50.42 19.36 7.92 11.03 11.42 25.76 8.17 39.05a48.81 48.81 0 0 1-14.45 25.58 49.5 49.5 0 0 1-29.64 13.28c-19.88 1.83-39.68-9.53-48.32-27.5a49.23 49.23 0 0 1 33.81-69.78Z" fill="#fff"/><path d="M576.41 464.4a24.73 24.73 0 0 1 17.67 1.5c9.98 4.69 16.69 17.38 12.92 28.13a24.34 24.34 0 0 1-17.18 17.45c-6.55 1.67-13.68.8-19.44-2.84-8.89-5.5-13.54-16.73-10.71-26.86a24.59 24.59 0 0 1 16.74-17.38ZM408.46 478.49c12.74-1.61 25.04 8.55 25.32 21.5 1.08 12.37-9.26 24.21-21.78 24.28-12.48.61-23.88-9.65-23.87-22.26-.7-11.8 8.69-22.33 20.33-23.52Z" fill="#000"/></g><g transform="translate(-279 -322)"><path d="M613.54 401.51c1.6 1 1.08 2.86 1.24 4.48-.06 11.34-.05 22.7-.12 34.04.32 2.75-2.42 4.22-4.62 5-40 13.74-80.12 27.25-120.05 41.12-2.53.2-2.84-1.75-3.5-3.66-1.64-6-3.31-11.98-5.02-17.95.97 5.75.98 11.66 1.36 17.47-.02 1.44.45 3.94-1 4.85-1.94 1.4-4.06.13-4.59-2.03-3.64-12.73-7.02-25.58-10.66-38.32-.39-1.83-.65-3.9 1.36-4.88 2.11-.5 3.41.47 4 2.44 1.27 4.55 2.55 9.11 3.68 13.7-.73-5.24-.94-10.5-1.18-15.77 0-1.27-.14-3.73 1.66-3.8 1.47-.25 2.98-.37 4.43-.7 41.23-11.75 82.37-23.45 123.6-35.23 3.27-.87 6.02-2.08 9.4-.76ZM324 433.87c13.64 1.39 27.36 1.44 41 2.58 21.04 1.05 42.11 2.67 63.14 3.42 7.8.78 15.61 1.12 23.44 1.68 2.77 2.19 1.08 8.08 1.91 11.33.56-2.97.18-6.9 1.92-9.46a2.85 2.85 0 0 1 4.76 2.56c-2.36 14.03-4.77 28.14-7.02 42.18-.8 2.93-4.48 2.56-5.29-.15-.27-4.92-.21-9.89-.28-14.83-1.03 4.3-1.47 8.69-2.47 12.98-.42 1.64-1.16 2.84-3.1 2.4-39.47-6.89-79.39-14.23-118.86-21.3-1.88-.19-2.83-1.45-3.09-3.25-1.45-7.98-2.5-16.04-4.12-24-.23-1.7-.74-3.13.56-4.57 2.12-2.3 4.72-1.68 7.5-1.57Z" fill="#000"/></g><g transform="translate(-279 -322)"><path d="M516.47 555.6c6.02 4.43 11.7 10 15.3 16.62 2.64 4.83 3.27 11.66-.42 16.13-4.14 5.37-11.5 7.58-17.88 8.76-15.67 2.47-31.9.95-47.46-1.6-5.74-1.11-10.18 1.63-16 2.55-8.7 1.6-18.36 2.92-27.06 1-5.13-1.02-10.28-3.2-13.34-7.65-2.78-3.87-2.64-9.34-1.12-13.67a37.3 37.3 0 0 1 7.04-11.24c1.33-1.74 3.08-1 4.97-1.12.3 1.84 1.06 3.23-.36 4.82-2.61 3.34-5.24 6.37-6.44 10.55-1.12 3.27-.33 6.93 2.4 9.14 3.03 2.37 7.16 3.47 10.93 3.87 7.78.5 15.57.14 23.16-1.73 5.6-1.06 9.96-3.57 15.81-2.5 12.03 1.92 23.78 3.44 36 2.8 6.92-.23 13.96-1.07 20.27-4.11 3.23-1.78 6.04-4.15 5.68-8.22-.27-6.05-6.07-11.79-10.25-15.7-2.5-2.65-6.66-4.09-6.02-8.36 1.8-.9 2.95-1.8 4.8-.34Z" fill="#000"/></g><g transform="translate(-279 -322)"></g></g></svg>