<svg xmlns="http://www.w3.org/2000/svg" viewBox="0 0 400 400" fill="none" shape-rendering="auto"><metadata xmlns:rdf="http://www.w3.org/1999/02/22-rdf-syntax-ns#" xmlns:xsi="http://www.w3.org/2001/XMLSchema-instance" xmlns:dc="http://purl.org/dc/elements/1.1/" xmlns:dcterms="http://purl.org/dc/terms/"><rdf:RDF><rdf:Description><dc:title>Adventurer Neutral</dc:title><dc:creator>Lisa Wischofsky</dc:creator><dc:source xsi:type="dcterms:URI">https://www.figma.com/community/file/1184595184137881796</dc:source><dcterms:license xsi:type="dcterms:URI">https://creativecommons.org/licenses/by/4.0/</dcterms:license><dc:rights>Remix of „Adventurer Neutral” (https://www.figma.com/community/file/1184595184137881796) by „Lisa Wischofsky”, licensed under „CC BY 4.0” (https://creativecommons.org/licenses/by/4.0/)</dc:rights></rdf:Description></rdf:RDF></metadata><mask id="viewboxMask"><rect width="400" height="400" rx="0" ry="0" x="0" y="0" fill="#fff" /></mask><g mask="url(#viewboxMask)"><rect fill="#9e5622" width="400" height="400" x="0" y="0" /><g transform="translate(-279 -322)"><path d="M558.2 453.21c11.47-1.62 23.68.14 34 5.5 7.61 3.93 14.3 10.28 18.11 18 3.35 6.67 3.82 14.64 2.11 21.82-2.1 8.03-7.22 15.16-13.75 20.2-14.96 11.75-36.54 14.35-54.2 7.75-8.43-3.17-16.54-8.89-21.4-16.55-2.8-4.73-5.22-10.36-5.36-15.93-.7-9.54 3.61-19.3 10.27-26.02 8.05-8.38 18.87-12.97 30.22-14.77Z" fill="#000"/><path d="M559.17 459.11c13.97-2.02 29.72 1.64 39.88 11.85 6.6 6.52 10.35 16.95 7.62 26.05-2.06 8.19-7.68 14.5-14.53 19.15-12.44 8.2-28.98 10.02-43.11 5.63-8.63-2.7-17.05-8.19-21.69-16.1-3.02-5-4.14-10.91-3.6-16.7.77-6.83 4.54-13.12 9.39-17.85 7.05-6.72 16.44-10.78 26.04-12.03Z" fill="#fff"/><path d="M369.48 468.71c17.62-2.69 37.91 3.42 47.71 19.13a30.7 30.7 0 0 1 1.93 29.15c-2.9 6.32-7.9 11.64-13.7 15.43-7.34 4.75-15.75 7.1-24.42 7.8-14.63.56-29.8-4.3-39.4-15.8-5.22-6.27-8.18-14.2-7.54-22.4.56-8.28 4.61-15.75 10.51-21.45 6.92-6.46 15.65-10.23 24.91-11.86Z" fill="#000"/><path d="M376.55 474.11c9.64-.35 19.56 2.27 27.37 8.02 5.14 3.82 9.44 9.18 11.19 15.41 1.61 6.2 1.04 12.92-2.15 18.54-4.72 8.62-13.66 14.22-22.97 16.7-13.7 3.72-30.16.72-40.8-8.98-6.28-5.66-10-13.74-9.23-22.26a27.3 27.3 0 0 1 6.85-14.72c7.34-8.2 18.86-12.64 29.74-12.7Z" fill="#fff"/><path d="M551.46 477.61c3.7-.8 7.51-.7 10.96.96 6.42 3.03 10.48 10.43 8.9 17.48-1.3 7.25-7.9 12.9-15.3 12.85-8.43.47-15.97-6.52-16.35-14.89a15.94 15.94 0 0 1 11.8-16.4Z" fill="#000"/><path d="M553.62 483.21c4-.67 7.83.6 10.2 3.96 3.05 4.06 2.27 9.86-1.37 13.27-4.4 3.95-11.88 3.34-15.16-1.77-4.01-5.83-.63-14.19 6.32-15.46Z" fill="#fff"/><path d="M618.7 484.19c1.7.32 3.64-.24 4.63 1.46 1.61 2.47 2.37 5.58 2.85 8.46 1.44 10.52-2.22 21.8-9.83 29.25-3.27 3.02-7.82 5.97-12.38 6.11-2.73.04-4.27-2.62-2.33-4.8 3.27-1.61 6.54-2.11 9.44-4.56 6.3-5.26 9.64-14.02 9.57-22.11 0-4.02-1.58-7.21-2.66-10.96l.71-2.84ZM380.44 488.46c4.44-.82 9.2.5 12.68 3.35 5.75 4.58 7.69 13.08 4.69 19.76-2.56 5.93-8.24 10.22-14.82 10.23-8.45.57-15.94-6.42-16.44-14.79a17.14 17.14 0 0 1 13.89-18.54Z" fill="#000"/><path d="M379.53 494.79c5.08-1.91 10.94.6 12.92 5.67 2.83 6.48-1.52 14.7-8.68 15.43-4.25.47-7.6-1.26-9.9-4.82-3.45-5.89-.8-13.89 5.66-16.28Z" fill="#fff"/><path d="M330.44 503.6c.44 4.06-1.4 7.43-1.67 11.39a19.33 19.33 0 0 0 7.3 15.89c2.43 1.9 5.11 2.82 7.77 4.29 1.95.85 1.84 2.03 1.58 3.92-1.5 1.78-3.3 1.46-5.3.8-7.29-2.71-13.56-8.6-15.96-16.08-2.04-6.12-1.77-13.6 1.36-19.29 1.26-1.87 3.04-.88 4.92-.92Z" fill="#000"/></g><g transform="translate(-279 -322)"><path d="M568.44 405.96c-.6-2.92-2.48-4.87-4.6-6.82-11.98-10.95-29.88-15.87-45.64-11.58-9.72 2.4-18.51 8.36-23.63 17.06-2.83 5.03-4.78 10.54-3.98 16.4.08.42.13.83.18 1.23.2 1.63.37 3 2.44 3.54 2.17.12 4.4-.29 6.54-.68l.31-.06 6.22-1.2c5.24-1 10.48-2 15.68-3.19a640.08 640.08 0 0 0 44.88-11.08c1.77-.25 1.7-1.62 1.63-3.02l-.03-.6ZM430.1 431.05c-.81-9.8-8.9-17.41-17.88-20.31a39.68 39.68 0 0 0-38.34 9.13c-4.45 4.18-8.39 9.97-9.12 16.14-.08 2.74 2.36 2.78 4.44 2.82.26 0 .52 0 .77.02 3.02-.08 6.05-.14 9.07-.2 9.34-.17 18.7-.35 27.98-1.3 2.4-.21 4.83-.38 7.24-.54 4.26-.3 8.52-.58 12.74-1.14 2.42.03 3.28-2.6 3.1-4.62Z" fill="#000"/></g><g transform="translate(-279 -322)"><path d="M514.98 571.8c9.94-.79 20.34-.67 29.5 3.7 4.76 2.28 8.77 6.1 9.74 11.45.87 5.24-1.16 9.93-4.1 14.14-5.1 7.1-13.02 12.35-20.61 16.48-16.5 8.76-34.08 12.05-52.5 13.76-20.25 3.08-41.64-1.62-59.12-12.17-6.2-3.9-12.82-9.26-16.03-16-2.56-5.26-2.25-12 1.93-16.37 4.77-5.2 12.43-7.15 19.2-7.88 15.6-1.27 30.57 2.31 44.79 8.5a117.73 117.73 0 0 1 47.2-15.61Z" fill="#000"/><path d="M540.41 580c-3.76 3.21-7.89 5.79-12.13 8.3-2.67 1.53-3.75 4.13-5.44 6.6a30.23 30.23 0 0 1-5.75 6.71c-3.02-1.1-5.96-2.85-9.11-3.5-3.03.45-5.9 1.87-8.86 2.66-10.02 2.86-20.67 5-31.12 4.92-2.95-.04-5.77.19-8.66.8.26 2.48-.5 4.68 2.82 5.02 14.67.86 29.74-2 43.63-6.66 4.74-2.07 7.69 3.08 12.84 1.72 4.35-1.27 7.37-6.6 9.92-10.06 1.78-2.8 4.43-4.12 7.14-5.82 3.66-2.24 6.97-4.85 10.35-7.47 1.44 2.56 3.17 4.68 2.42 7.82-1.4 6.39-6.6 11-11.48 14.92-12.52 9.5-28.96 14.76-44.24 17.66-14.5 1.98-28 4.19-42.61 1.47-12.77-2.46-26.17-7.5-36.14-16.1-3.77-3.4-8.37-8.52-7.81-14 .33-3.74 3.92-6.31 7.09-7.71 7.95-3.35 16.73-3.08 25.15-2.22 8.7 1.23 17.39 3.52 25.38 7.26 1.55.63 3.37 1.64 5.08 1.52 3.1-1.25 5.75-3.55 8.75-5.06a101.93 101.93 0 0 1 28.23-9.73c11.45-2.02 23.37-2.95 34.55.95Z" fill="#fff"/></g><g transform="translate(-279 -322)"></g></g></svg>