<svg xmlns="http://www.w3.org/2000/svg" viewBox="0 0 440 440" fill="none" shape-rendering="auto"><metadata xmlns:rdf="http://www.w3.org/1999/02/22-rdf-syntax-ns#" xmlns:xsi="http://www.w3.org/2001/XMLSchema-instance" xmlns:dc="http://purl.org/dc/elements/1.1/" xmlns:dcterms="http://purl.org/dc/terms/"><rdf:RDF><rdf:Description><dc:title>Face Generator</dc:title><dc:creator>The Visual Team</dc:creator><dc:source xsi:type="dcterms:URI">https://www.figma.com/community/file/986078800058673824</dc:source><dcterms:license xsi:type="dcterms:URI">https://creativecommons.org/licenses/by/4.0/</dcterms:license><dc:rights>Remix of „Face Generator” (https://www.figma.com/community/file/986078800058673824) by „The Visual Team”, licensed under „CC BY 4.0” (https://creativecommons.org/licenses/by/4.0/)</dc:rights></rdf:Description></rdf:RDF></metadata><mask id="viewboxMask"><rect width="440" height="440" rx="0" ry="0" x="0" y="0" fill="#fff" /></mask><g mask="url(#viewboxMask)"><g transform="matrix(.71048 0 0 .71048 24 2)"><path d="M131.5 150.4c-30.2 28.5-103.6 121.5 0 245.1 27.7 33 248.2 11.2 271 0C492.8 351 436 132.7 262.8 163c-80.6 14-93-48.6-131.3-12.5Z" fill="#d6b370"/></g><g transform="translate(81.7 150.7) scale(.71856)"><circle cx="189.5" cy="199.5" r="133.5" fill="#da9969"/><path d="M323.3 192.3a133.8 133.8 0 0 1-267.1 0 133.7 133.7 0 1 0 267.1 0Z" fill="#000" fill-opacity=".2"/></g><g transform="translate(199.5 333.4) scale(.71856)"><path d="M-24 22.9a17 17 0 0 1 17-17h65.7a17 17 0 0 1 0 34H-7a17 17 0 0 1-17-17Z" fill="#DE8383"/><path fill-rule="evenodd" clip-rule="evenodd" d="M73.9 14.7c-3 5.4-8.7 9-15.3 9H-6.2c-6.6 0-12.3-3.6-15.3-9 3-5.3 8.7-9 15.3-9h64.8c6.6 0 12.3 3.7 15.3 9Z" fill="#F9F9F9"/></g><g transform="translate(280.7 235.4) scale(.71856)"><path d="M70.9 16A40.4 40.4 0 0 0 31 47.3V109c24.3-3.3 67.7-24.5 74-45 6.2-20.6-1-48-34.1-48Z" fill="#da9969"/><path d="M69.3 27.7c-19 0-27 15-28.6 22.5v44.1c17.5-2.3 48.5-17.5 53-32.2 4.5-14.7-.7-34.4-24.4-34.4Z" fill="#000" fill-opacity=".2"/><path d="M52.4 62.7c0-11.3-7.8-15-11.7-15.4v33.3a18.5 18.5 0 0 0 11.7-18Z" fill="#da9969"/></g><g transform="matrix(-.71856 0 0 .71856 161.5 235.4)"><path d="M70.9 16A40.4 40.4 0 0 0 31 47.3V109c24.3-3.3 67.7-24.5 74-45 6.2-20.6-1-48-34.1-48Z" fill="#da9969"/><path d="M69.3 27.7c-19 0-27 15-28.6 22.5v44.1c17.5-2.3 48.5-17.5 53-32.2 4.5-14.7-.7-34.4-24.4-34.4Z" fill="#000" fill-opacity=".2"/><path d="M52.4 62.7c0-11.3-7.8-15-11.7-15.4v33.3a18.5 18.5 0 0 0 11.7-18Z" fill="#da9969"/></g><g transform="translate(114.8 215.5) scale(.71856)"><circle cx="196.2" cy="81.6" r="11.6" fill="#161616"/><circle cx="96.2" cy="81.6" r="11.6" fill="#161616"/><path d="M180 70c.9 2.5 4 7.8 9.2 9.2M80 70c.9 2.5 4 7.8 9.2 9.2" stroke="#000" stroke-width="4.6" stroke-linecap="round" stroke-linejoin="round"/></g><g transform="translate(127.7 288.7) scale(.71856)"><g fill="#F88888"><rect x="11" y="16" width="56.3" height="43.4" rx="21.7"/><rect x="191" y="16" width="56.3" height="43.4" rx="21.7"/></g></g><g transform="translate(193 279.4) scale(.71856)"><path d="M16.6 46.2A11.3 11.3 0 0 0 28.3 61 11.3 11.3 0 0 0 50 61h1a11.3 11.3 0 0 0 10.7-15A11.3 11.3 0 0 1 50 53.9a11.3 11.3 0 0 1-21.8 0h-1c-5 0-9.2-3.1-10.7-7.6Z" fill="#000" fill-opacity=".2"/></g><g transform="matrix(.52237 0 0 .52237 122.9 244.8)"><path d="M10 94V8h32l-3.7 76.9L10 94Z" fill="#d6b370"/></g><g transform="matrix(-.52237 0 0 .52237 315.7 244.8)"><path d="M10 94V8h32l-3.7 76.9L10 94Z" fill="#d6b370"/></g><g transform="matrix(.52237 0 0 .52237 108.7 145.6)"><path d="M399 203.5a185.5 185.5 0 0 0-371 0h371Z" fill="#d6b370"/></g></g></svg>