<svg xmlns="http://www.w3.org/2000/svg" viewBox="0 0 440 440" fill="none" shape-rendering="auto"><metadata xmlns:rdf="http://www.w3.org/1999/02/22-rdf-syntax-ns#" xmlns:xsi="http://www.w3.org/2001/XMLSchema-instance" xmlns:dc="http://purl.org/dc/elements/1.1/" xmlns:dcterms="http://purl.org/dc/terms/"><rdf:RDF><rdf:Description><dc:title>Face Generator</dc:title><dc:creator>The Visual Team</dc:creator><dc:source xsi:type="dcterms:URI">https://www.figma.com/community/file/986078800058673824</dc:source><dcterms:license xsi:type="dcterms:URI">https://creativecommons.org/licenses/by/4.0/</dcterms:license><dc:rights>Remix of „Face Generator” (https://www.figma.com/community/file/986078800058673824) by „The Visual Team”, licensed under „CC BY 4.0” (https://creativecommons.org/licenses/by/4.0/)</dc:rights></rdf:Description></rdf:RDF></metadata><mask id="viewboxMask"><rect width="440" height="440" rx="0" ry="0" x="0" y="0" fill="#fff" /></mask><g mask="url(#viewboxMask)"><g transform="matrix(.71048 0 0 .71048 24 2)"><path d="m275.5 51 40.3 49 57.5-26.7 15 61.6 63.5 1-13.2 62 56.7 28.4-38.7 50.2 38.7 50.2-56.7 28.4 13.2 62-63.4 1-15 61.6-57.6-26.7-40.3 49-40.3-49-57.5 26.7-15-61.6-63.5-1 13.2-62-56.7-28.4 38.7-50.2-38.7-50.2 56.7-28.4-13.2-62 63.4-1 15-61.6 57.6 26.7 40.3-49Z" fill="#724133"/></g><g transform="translate(81.7 150.7) scale(.71856)"><path d="M293.1 88.7C258 38.7 171.6 25.4 120.3 58 69 91 57.5 145.2 65 204.8c3.1 24.1 7 43 9 63.5 6.6 63.2 93 94.7 118.6 94.7 40.4 0 108.3-44.3 116.8-94.7 7.7-46 7-42.4 7.5-63.5.6-21 11.3-66.1-23.9-116.1Z" fill="#f8b788"/><path d="M76.2 279.7c22.6 47.6 92.6 71.3 115.6 71.3 39 0 102.8-38.9 118-85.2l-.5 2.8C301 319 233 363.5 192.6 363.5c-24 0-101.7-27.9-116.4-83.8Z" fill="#000" fill-opacity=".2"/></g><g transform="translate(199.5 333.4) scale(.71856)"><path d="M82 34.6c0 16.9-24.2 4-54.2 4-29.9 0-54.2 12.9-54.2-4C-26.4 17.6-2 4 27.8 4c30 0 54.3 13.7 54.3 30.6Z" fill="#DE8383"/><path fill-rule="evenodd" clip-rule="evenodd" d="M69.2 15.1c-9.8 3.2-24.8 5.3-41.7 5.3-16.5 0-31.2-2-41-5.1A71 71 0 0 1 28 3.5C44.7 3.5 59.6 8 69.2 15Z" fill="#F9F9F9"/></g><g transform="translate(280.7 235.4) scale(.71856)"><rect x="22" y="19" width="88.1" height="88.1" rx="44.1" fill="#f8b788"/><path d="m79 38.5-39 29L83.5 87" stroke="#000" stroke-opacity=".2" stroke-width="5" stroke-linecap="round" stroke-linejoin="round"/></g><g transform="matrix(-.71856 0 0 .71856 161.5 235.4)"><rect x="22" y="19" width="88.1" height="88.1" rx="44.1" fill="#f8b788"/><path d="m79 38.5-39 29L83.5 87" stroke="#000" stroke-opacity=".2" stroke-width="5" stroke-linecap="round" stroke-linejoin="round"/></g><g transform="translate(114.8 215.5) scale(.71856)"><path d="M92.4 79.9a7 7 0 1 1 13.9 0v13.8a7 7 0 1 1-13.9 0V80ZM190.4 79.9a7 7 0 0 1 13.9 0v13.8a7 7 0 1 1-13.9 0V80Z" fill="#000"/><path d="M83.2 66c-.8 3 .4 10.2 11.5 13.9M181.2 66c-.8 3 .4 10.2 11.5 13.9" stroke="#000" stroke-width="4.6" stroke-linecap="round" stroke-linejoin="round"/></g><g transform="translate(127.7 288.7) scale(.71856)"><g fill="#F88888"><rect x="21" y="16" width="43.4" height="43.4" rx="21.7"/><rect x="194" y="16" width="43.4" height="43.4" rx="21.7"/></g></g><g transform="translate(193 279.4) scale(.71856)"><path d="M37.8 22c-7.1 9.5-20.2 29-16 31 4.3 2 18.6 2.5 25.3 2.5" stroke="#000" stroke-opacity=".5" stroke-width="4" stroke-linecap="round" stroke-linejoin="round"/></g><g transform="matrix(.52237 0 0 .52237 122.9 244.8)"><path d="M10 94V8h32l-3.7 76.9L10 94Z" fill="#724133"/></g><g transform="matrix(-.52237 0 0 .52237 315.7 244.8)"><path d="M10 94V8h32l-3.7 76.9L10 94Z" fill="#724133"/></g><g transform="matrix(.52237 0 0 .52237 108.7 145.6)"><g fill="#724133"><path d="M374 133c6.5 15.9 11.5 34.5 11.5 70-11 0-38.5 11-92.5-18-54.8-29.5-68.9-59.5-82-79-13 27-37 51.3-72.5 73.5C103 201.7 54.2 200.5 38 203c0-23.1 2-46 10.9-67.4A176 176 0 0 1 211 27a175 175 0 0 1 124 51.5c16.4 16.4 30.2 33.1 39 54.5Z"/><path d="M210 148c10.4-22.4 12-39.5 12-47.5-4.5-25-20.5-14-22-7.5s.5 17-1.5 43c-1.6 20.8-22.3 46-34 54a90.6 90.6 0 0 0 45.5-42Z"/></g></g></g></svg>