<svg xmlns="http://www.w3.org/2000/svg" viewBox="0 0 440 440" fill="none" shape-rendering="auto"><metadata xmlns:rdf="http://www.w3.org/1999/02/22-rdf-syntax-ns#" xmlns:xsi="http://www.w3.org/2001/XMLSchema-instance" xmlns:dc="http://purl.org/dc/elements/1.1/" xmlns:dcterms="http://purl.org/dc/terms/"><rdf:RDF><rdf:Description><dc:title>Face Generator</dc:title><dc:creator>The Visual Team</dc:creator><dc:source xsi:type="dcterms:URI">https://www.figma.com/community/file/986078800058673824</dc:source><dcterms:license xsi:type="dcterms:URI">https://creativecommons.org/licenses/by/4.0/</dcterms:license><dc:rights>Remix of „Face Generator” (https://www.figma.com/community/file/986078800058673824) by „The Visual Team”, licensed under „CC BY 4.0” (https://creativecommons.org/licenses/by/4.0/)</dc:rights></rdf:Description></rdf:RDF></metadata><mask id="viewboxMask"><rect width="440" height="440" rx="0" ry="0" x="0" y="0" fill="#fff" /></mask><g mask="url(#viewboxMask)"><g transform="matrix(.71048 0 0 .71048 24 2)"><g fill="#2c1b18"><path d="M75.1 204.2c-7-30.3 21.3-27.4 61.7-65.4 40.4-38 87.4-58.9 169-57.6 81.8 1.2 135.8 55.2 147.7 66 36.2 47.6 10.8 40.6 37.7 57 33.6 20.4 42.6 51.1 16.2 81.8-26.3 30.7-5 15.3 28.7 45s-10.8 56.9-21 82.4c-10.3 25.6 27.5 11.8 27.5 63.6 0 19.5-25 39-79 53-62.9 16.3-176.5 31.5-326.8 0-21.8-4.6-64.8-23.5-83.7-40-19-16.5-24.6-66.9 12-94.5 36.6-27.6 15.6-39-5-64.5-20.4-25.6-11-52.6 25.5-77.2 36.6-24.5-1.7-11.8-10.5-49.6Z"/><ellipse cx="294.1" cy="463.5" rx="250.5" ry="123.5"/></g></g><g transform="translate(81.7 150.7) scale(.71856)"><circle cx="189.5" cy="199.5" r="133.5" fill="#f8b788"/><path d="M323.3 192.3a133.8 133.8 0 0 1-267.1 0 133.7 133.7 0 1 0 267.1 0Z" fill="#000" fill-opacity=".2"/></g><g transform="translate(199.5 333.4) scale(.71856)"><path fill-rule="evenodd" clip-rule="evenodd" d="M59.2 13 63.7 9a3.2 3.2 0 0 1 4 5l-4.1 3.5-2.3 2a49 49 0 0 1-33.7 11.8 51 51 0 0 1-38.3-17.8 3.2 3.2 0 0 1 5-4c4 5 16.3 15.4 33.3 15.4 11 0 17.7-2.3 22.7-5.2a48 48 0 0 0 9-6.9Z" fill="#000"/></g><g transform="translate(280.7 235.4) scale(.71856)"><rect x="20" y="22" width="88" height="88.1" rx="44" fill="#f8b788"/><rect x="29.8" y="31.8" width="68.4" height="68.5" rx="34.2" fill="#000" fill-opacity=".2"/><rect x="23.9" y="49.4" width="37.2" height="37.2" rx="18.6" fill="#f8b788"/></g><g transform="matrix(-.71856 0 0 .71856 161.5 235.4)"><rect x="20" y="22" width="88" height="88.1" rx="44" fill="#f8b788"/><rect x="29.8" y="31.8" width="68.4" height="68.5" rx="34.2" fill="#000" fill-opacity=".2"/><rect x="23.9" y="49.4" width="37.2" height="37.2" rx="18.6" fill="#f8b788"/></g><g transform="translate(114.8 215.5) scale(.71856)"><path d="M187 76a7 7 0 1 1 13.9 0v13.8a7 7 0 1 1-13.9 0V75.9ZM88 76a7 7 0 1 1 13.9 0v13.8a7 7 0 0 1-13.9 0V75.9Z" fill="#000"/></g><g transform="translate(127.7 288.7) scale(.71856)"><g fill="#000" fill-opacity=".4"><rect x="33" y="38.5" width="12.9" height="12.9" rx="6.4"/><rect x="57.1" y="24" width="12.9" height="14.5" rx="6.4"/><rect x="76.4" y="38.5" width="12.9" height="12.9" rx="6.4"/><rect x="166.4" y="38.5" width="12.9" height="12.9" rx="6.4"/><rect x="190.5" y="24" width="12.9" height="14.5" rx="6.4"/><rect x="209.8" y="38.5" width="12.9" height="12.9" rx="6.4"/></g></g><g transform="translate(193 279.4) scale(.71856)"><path d="M22.6 34.4a17 17 0 1 0 32.6 0 16.9 16.9 0 0 1-32.6 0Z" fill="#000" fill-opacity=".2"/></g><g transform="matrix(.52237 0 0 .52237 122.9 244.8)"><path d="M18 31.8C17.3 12.2 15 2.3 32 0c19.6 3.6 14 22.6 12 31.8-2.2 9.3 9.5 19 7.4 39.4-2 20.4-25 30-36 12.8-14-22 3.5-32.6 2.7-52.2Z" fill="#2c1b18"/></g><g transform="matrix(-.52237 0 0 .52237 315.7 244.8)"><path d="M18 31.8C17.3 12.2 15 2.3 32 0c19.6 3.6 14 22.6 12 31.8-2.2 9.3 9.5 19 7.4 39.4-2 20.4-25 30-36 12.8-14-22 3.5-32.6 2.7-52.2Z" fill="#2c1b18"/></g><g transform="matrix(.52237 0 0 .52237 108.7 145.6)"><g fill="#2c1b18"><path d="M374 133c6.5 15.9 11.5 34.5 11.5 70-11 0-38.5 11-92.5-18-54.8-29.5-68.9-59.5-82-79-13 27-37 51.3-72.5 73.5C103 201.7 54.2 200.5 38 203c0-23.1 2-46 10.9-67.4A176 176 0 0 1 211 27a175 175 0 0 1 124 51.5c16.4 16.4 30.2 33.1 39 54.5Z"/><path d="M210 148c10.4-22.4 12-39.5 12-47.5-4.5-25-20.5-14-22-7.5s.5 17-1.5 43c-1.6 20.8-22.3 46-34 54a90.6 90.6 0 0 0 45.5-42Z"/></g></g></g></svg>