<svg xmlns="http://www.w3.org/2000/svg" viewBox="0 0 440 440" fill="none" shape-rendering="auto"><metadata xmlns:rdf="http://www.w3.org/1999/02/22-rdf-syntax-ns#" xmlns:xsi="http://www.w3.org/2001/XMLSchema-instance" xmlns:dc="http://purl.org/dc/elements/1.1/" xmlns:dcterms="http://purl.org/dc/terms/"><rdf:RDF><rdf:Description><dc:title>Face Generator</dc:title><dc:creator>The Visual Team</dc:creator><dc:source xsi:type="dcterms:URI">https://www.figma.com/community/file/986078800058673824</dc:source><dcterms:license xsi:type="dcterms:URI">https://creativecommons.org/licenses/by/4.0/</dcterms:license><dc:rights>Remix of „Face Generator” (https://www.figma.com/community/file/986078800058673824) by „The Visual Team”, licensed under „CC BY 4.0” (https://creativecommons.org/licenses/by/4.0/)</dc:rights></rdf:Description></rdf:RDF></metadata><mask id="viewboxMask"><rect width="440" height="440" rx="0" ry="0" x="0" y="0" fill="#fff" /></mask><g mask="url(#viewboxMask)"><g transform="matrix(.71048 0 0 .71048 24 2)"><g fill="#a55728"><path d="M287.2 100H277c-101.3 0-183.4 94-183.4 210 0 116.1 82.1 129.5 183.4 129.5h10.2c101.3 0 183.4-13.4 183.4-129.4S388.5 100 287.2 100Z"/><path d="M116.6 74.4c66.4-6.4 94 60 99.5 94 10.3 21.5 24.8 105 0 267C185 638-8 550 12 539s56.5-84.5 19-205.5 2.5-251 85.5-259ZM448.8 74.4c-66.4-6.4-94 60-99.5 94-10.3 21.5-24.8 105 0 267 31 202.5 224 114.5 204 103.5s-56.5-84.5-19-205.5-2.5-251-85.5-259Z"/></g></g><g transform="translate(81.7 150.7) scale(.71856)"><path d="M191 39c103.2 3 112.2 97.8 114 138.3.5 12.7 3.3 23.8 6 34.9 3.3 13 6.5 26 6 41 .5 14.7-2.3 31.1-12 51.8-12.8 27-64.4 56-114 56-52.2 0-102.3-30.5-115.6-65.1A142.3 142.3 0 0 1 64 239.5c-.6-16.8 3-29.7 6.5-42.3 1.8-6.5 3.6-13 4.8-20 .7-4.1 1.3-9.3 2-15.3C82 119 91 39 191 39Z" fill="#89532c"/><path d="M64.5 233c-1.6 16.1.3 35.5 10.9 62.9C88.7 330.5 138.8 361 191 361c49.6 0 101.2-29 114-56a105.2 105.2 0 0 0 11.3-60.2 118.6 118.6 0 0 1-11.5 38.6c-12.8 27-64.4 56-114 56-52.1 0-102.3-30.6-115.6-65.1A164.3 164.3 0 0 1 64.5 233Z" fill="#000" fill-opacity=".2"/></g><g transform="translate(199.5 333.4) scale(.71856)"><path fill-rule="evenodd" clip-rule="evenodd" d="M59.2 13 63.7 9a3.2 3.2 0 0 1 4 5l-4.1 3.5-2.3 2a49 49 0 0 1-33.7 11.8 51 51 0 0 1-38.3-17.8 3.2 3.2 0 0 1 5-4c4 5 16.3 15.4 33.3 15.4 11 0 17.7-2.3 22.7-5.2a48 48 0 0 0 9-6.9Z" fill="#000"/></g><g transform="translate(280.7 235.4) scale(.71856)"><path d="M70.9 16A40.4 40.4 0 0 0 31 47.3V109c24.3-3.3 67.7-24.5 74-45 6.2-20.6-1-48-34.1-48Z" fill="#89532c"/><path d="M69.3 27.7c-19 0-27 15-28.6 22.5v44.1c17.5-2.3 48.5-17.5 53-32.2 4.5-14.7-.7-34.4-24.4-34.4Z" fill="#000" fill-opacity=".2"/><path d="M52.4 62.7c0-11.3-7.8-15-11.7-15.4v33.3a18.5 18.5 0 0 0 11.7-18Z" fill="#89532c"/></g><g transform="matrix(-.71856 0 0 .71856 161.5 235.4)"><path d="M70.9 16A40.4 40.4 0 0 0 31 47.3V109c24.3-3.3 67.7-24.5 74-45 6.2-20.6-1-48-34.1-48Z" fill="#89532c"/><path d="M69.3 27.7c-19 0-27 15-28.6 22.5v44.1c17.5-2.3 48.5-17.5 53-32.2 4.5-14.7-.7-34.4-24.4-34.4Z" fill="#000" fill-opacity=".2"/><path d="M52.4 62.7c0-11.3-7.8-15-11.7-15.4v33.3a18.5 18.5 0 0 0 11.7-18Z" fill="#89532c"/></g><g transform="translate(114.8 215.5) scale(.71856)"><ellipse cx="29" cy="17.5" rx="29" ry="17.5" transform="matrix(-1 0 0 1 117 80)" fill="#fff"/><path d="M94.8 114.5a18 18 0 0 1 1.9-33.7C108.5 83 117 89.7 117 97.5c0 8.2-9.5 15.2-22.2 17Z" fill="#000"/><path d="M57 43.4A60.5 60.5 0 0 1 90 34c18.2 0 35.1 7.8 33 9.4 0 18.2-3.5 0-32 0-30.8 0-34 18.2-34 0ZM167.9 43.4a60.5 60.5 0 0 1 33-9.4c18.1 0 35 7.8 32.9 9.4 0 18.2-3.4 0-32 0-30.7 0-34 18.2-34 0Z" fill="#000"/><ellipse cx="29" cy="17.5" rx="29" ry="17.5" transform="matrix(-1 0 0 1 227 80)" fill="#fff"/><path d="M204.8 114.5a18 18 0 0 1 1.9-33.7C218.5 83 227 89.7 227 97.5c0 8.2-9.5 15.2-22.2 17Z" fill="#000"/></g><g transform="translate(127.7 288.7) scale(.71856)"><g fill="#FFC6C6"><rect x="21" y="16" width="43.4" height="43.4" rx="21.7"/><rect x="194" y="16" width="43.4" height="43.4" rx="21.7"/></g></g><g transform="translate(193 279.4) scale(.71856)"><path d="M18.6 38.3A10 10 0 0 0 29 45a10 10 0 0 0 19.4 0h.9a10 10 0 0 0 9.5-6.7 10 10 0 0 1-10.4 13.4 10 10 0 0 1-19.4 0H28a10 10 0 0 1-9.5-13.4Z" fill="#000" fill-opacity=".2"/></g><g transform="matrix(.52237 0 0 .52237 122.9 244.8)"><path d="M26 0h-3A19 19 0 0 0 4 19v52a19 19 0 0 0 19 19h3a19 19 0 0 0 19-19V19A19 19 0 0 0 26 0Z" fill="#a55728"/></g><g transform="matrix(-.52237 0 0 .52237 315.7 244.8)"><path d="M26 0h-3A19 19 0 0 0 4 19v52a19 19 0 0 0 19 19h3a19 19 0 0 0 19-19V19A19 19 0 0 0 26 0Z" fill="#a55728"/></g><g transform="matrix(.52237 0 0 .52237 108.7 145.6)"><path d="M143.3 136.7c-3.5-17 23.9-29.6 38.9-33.1 15-3.6 17.8-3.6 37.4-3.6 19.6 0 63.8 6.8 62.4 30.3-1.2 18.8-21.9 18.3-32.1 15.7 4.9 8 13.2 25.9 7.5 33.8-5.7 8-18.8 1.2-24.6-3.2-.5 5.5-5.2 18-20 24.3C198 207 194 185.7 194 174c-6.6 2.3-21.9 4.6-29.6-4.2-7.7-8.9 3.3-19.6 9.7-24-8.2 3.5-28 3.9-30.7-9.2Z" fill="#a55728"/><path d="M374 131c6.5 15.9 11.5 34.5 11.5 70-11 0-38.5 11-92.5-18-54.8-29.5-68.9-59.5-82-79-13 27-37 51.3-72.5 73.5C103 199.7 54.2 198.5 38 201c0-23.1 2-46 10.9-67.4A176 176 0 0 1 211 25a175 175 0 0 1 124 51.5c16.4 16.4 30.2 33.1 39 54.5Z" fill="#a55728"/></g></g></svg>