<svg xmlns="http://www.w3.org/2000/svg" viewBox="0 0 440 440" fill="none" shape-rendering="auto"><metadata xmlns:rdf="http://www.w3.org/1999/02/22-rdf-syntax-ns#" xmlns:xsi="http://www.w3.org/2001/XMLSchema-instance" xmlns:dc="http://purl.org/dc/elements/1.1/" xmlns:dcterms="http://purl.org/dc/terms/"><rdf:RDF><rdf:Description><dc:title>Face Generator</dc:title><dc:creator>The Visual Team</dc:creator><dc:source xsi:type="dcterms:URI">https://www.figma.com/community/file/986078800058673824</dc:source><dcterms:license xsi:type="dcterms:URI">https://creativecommons.org/licenses/by/4.0/</dcterms:license><dc:rights>Remix of „Face Generator” (https://www.figma.com/community/file/986078800058673824) by „The Visual Team”, licensed under „CC BY 4.0” (https://creativecommons.org/licenses/by/4.0/)</dc:rights></rdf:Description></rdf:RDF></metadata><mask id="viewboxMask"><rect width="440" height="440" rx="0" ry="0" x="0" y="0" fill="#fff" /></mask><g mask="url(#viewboxMask)"><g transform="matrix(.71048 0 0 .71048 24 2)"><g fill="#d6b370"><path d="M287.2 100H277c-101.3 0-183.4 94-183.4 210 0 116.1 82.1 129.5 183.4 129.5h10.2c101.3 0 183.4-13.4 183.4-129.4S388.5 100 287.2 100Z"/><path d="M116.6 74.4c66.4-6.4 94 60 99.5 94 10.3 21.5 24.8 105 0 267C185 638-8 550 12 539s56.5-84.5 19-205.5 2.5-251 85.5-259ZM448.8 74.4c-66.4-6.4-94 60-99.5 94-10.3 21.5-24.8 105 0 267 31 202.5 224 114.5 204 103.5s-56.5-84.5-19-205.5-2.5-251-85.5-259Z"/></g></g><g transform="translate(81.7 150.7) scale(.71856)"><path d="M293.1 88.7C258 38.7 171.6 25.4 120.3 58 69 91 57.5 145.2 65 204.8c3.1 24.1 7 43 9 63.5 6.6 63.2 93 94.7 118.6 94.7 40.4 0 108.3-44.3 116.8-94.7 7.7-46 7-42.4 7.5-63.5.6-21 11.3-66.1-23.9-116.1Z" fill="#da9969"/><path d="M76.2 279.7c22.6 47.6 92.6 71.3 115.6 71.3 39 0 102.8-38.9 118-85.2l-.5 2.8C301 319 233 363.5 192.6 363.5c-24 0-101.7-27.9-116.4-83.8Z" fill="#000" fill-opacity=".2"/></g><g transform="translate(199.5 333.4) scale(.71856)"><path d="M59.5 28.2a31 31 0 1 1-62 0 31 31 0 0 1 62 0Z" fill="#DE8383"/></g><g transform="translate(280.7 235.4) scale(.71856)"><rect x="27" y="21" width="80" height="80" rx="21.3" fill="#da9969"/><rect x="35.9" y="29.9" width="62.2" height="62.2" rx="12.4" fill="#000" fill-opacity=".2"/><rect x="28.8" y="44.1" width="17.8" height="35.5" rx="5.3" fill="#da9969"/></g><g transform="matrix(-.71856 0 0 .71856 161.5 235.4)"><rect x="27" y="21" width="80" height="80" rx="21.3" fill="#da9969"/><rect x="35.9" y="29.9" width="62.2" height="62.2" rx="12.4" fill="#000" fill-opacity=".2"/><rect x="28.8" y="44.1" width="17.8" height="35.5" rx="5.3" fill="#da9969"/></g><g transform="translate(114.8 215.5) scale(.71856)"><path d="M58.7 45.3A60 60 0 0 1 91.4 36c18 0 34.8 7.8 32.6 9.3 0 18-3.3 0-31.6 0-30.5 0-33.7 18-33.7 0ZM165.7 45.3a60 60 0 0 1 32.7-9.3c18 0 34.8 7.8 32.6 9.3 0 18-3.3 0-31.6 0-30.5 0-33.7 18-33.7 0Z" fill="#000"/><path d="M87.3 69.1a4.1 4.1 0 0 1 7.8 0l3.3 10a4.1 4.1 0 0 0 4 3h10.5c4 0 5.7 5 2.4 7.4l-8.5 6.2c-1.5 1-2 3-1.5 4.6l3.2 10c1.3 3.9-3 7-6.3 4.7l-8.6-6.2c-1.4-1-3.4-1-4.8 0l-8.6 6.2a4.1 4.1 0 0 1-6.3-4.6l3.2-10c.6-1.8 0-3.6-1.5-4.7l-8.5-6.2a4.1 4.1 0 0 1 2.4-7.5h10.6c1.8 0 3.4-1.1 4-2.8l3.2-10ZM194.8 69.1a4.1 4.1 0 0 1 8 0l3.2 10a4.1 4.1 0 0 0 4 3h10.5c4 0 5.7 5 2.4 7.4l-8.5 6.2c-1.5 1-2 3-1.5 4.6l3.2 10c1.3 3.9-3.1 7-6.3 4.7l-8.6-6.2c-1.4-1-3.4-1-4.9 0l-8.5 6.2a4.1 4.1 0 0 1-6.4-4.6l3.3-10c.6-1.8 0-3.6-1.5-4.7l-8.5-6.2A4.1 4.1 0 0 1 177 82h10.5c1.8 0 3.4-1.1 4-2.8l3.2-10Z" fill="#FFEBB7"/></g><g transform="translate(127.7 288.7) scale(.71856)"></g><g transform="translate(193 279.4) scale(.71856)"><path d="M37 14v27c-3.7.7-11 4-11 10.5 0 8.2 7.3 10.5 11 11.7" stroke="#000" stroke-opacity=".5" stroke-width="4" stroke-linecap="round" stroke-linejoin="round"/></g><g transform="matrix(.52237 0 0 .52237 122.9 244.8)"><path d="M18 31.8C17.3 12.2 15 2.3 32 0c19.6 3.6 14 22.6 12 31.8-2.2 9.3 9.5 19 7.4 39.4-2 20.4-25 30-36 12.8-14-22 3.5-32.6 2.7-52.2Z" fill="#d6b370"/></g><g transform="matrix(-.52237 0 0 .52237 315.7 244.8)"><path d="M18 31.8C17.3 12.2 15 2.3 32 0c19.6 3.6 14 22.6 12 31.8-2.2 9.3 9.5 19 7.4 39.4-2 20.4-25 30-36 12.8-14-22 3.5-32.6 2.7-52.2Z" fill="#d6b370"/></g><g transform="matrix(.52237 0 0 .52237 108.7 145.6)"><path d="M384.9 132.5a185.5 185.5 0 0 1 14.1 71H151.5l-24-47-24 47H28a185.5 185.5 0 0 1 356.9-71Z" fill="#d6b370"/></g></g></svg>