<svg xmlns="http://www.w3.org/2000/svg" viewBox="0 0 440 440" fill="none" shape-rendering="auto"><metadata xmlns:rdf="http://www.w3.org/1999/02/22-rdf-syntax-ns#" xmlns:xsi="http://www.w3.org/2001/XMLSchema-instance" xmlns:dc="http://purl.org/dc/elements/1.1/" xmlns:dcterms="http://purl.org/dc/terms/"><rdf:RDF><rdf:Description><dc:title>Face Generator</dc:title><dc:creator>The Visual Team</dc:creator><dc:source xsi:type="dcterms:URI">https://www.figma.com/community/file/986078800058673824</dc:source><dcterms:license xsi:type="dcterms:URI">https://creativecommons.org/licenses/by/4.0/</dcterms:license><dc:rights>Remix of „Face Generator” (https://www.figma.com/community/file/986078800058673824) by „The Visual Team”, licensed under „CC BY 4.0” (https://creativecommons.org/licenses/by/4.0/)</dc:rights></rdf:Description></rdf:RDF></metadata><mask id="viewboxMask"><rect width="440" height="440" rx="0" ry="0" x="0" y="0" fill="#fff" /></mask><g mask="url(#viewboxMask)"><g transform="matrix(.71048 0 0 .71048 24 2)"><g fill="#c93305"><path d="M83.6 337.2c11.2 73.5 27.2 93.7 57 130.5 47.2 72.2 222.4 105.8 289-15.2 109-197.3-24.8-183.3-140.6-183.3-96 0-132.1-32-148.4 0-38-28-65.5 12.5-57 68Z"/><path d="M99.9 245c-8.8 46.2-3.7 65.5 0 69.4 47 69.5 273.3 129.3 336.2 17.4 50.4-89.6-6.7-176.2-41.5-208.4 2 2.6 7.6 12.4 4.7 29.6a34.7 34.7 0 0 1-13.5 23.8c1.3-11.8 6.1-40.5-3-59.8-11.6-24.5-23.8-33.3-36.5-39.3 6 18.7 8.2 27.7 6.5 39.3-1.7 11.5-12.1 31.7-20.1 36 3.8-14.5 4.8-36-2.2-55.5-11.3-31.4-31.5-46.1-44.8-50.6 1 2.7 6 24.3 4.3 43-2.6 29.6-13.5 39.6-17.5 44.6 4-9.5 6-25 4-43-3.5-31.2-34.1-52.4-43.6-57.5 1.5 6.6 2.1 37-4 63.7C223 123.4 211 137 198 153c3.5-9.5 2-24-4-41-5.1-14.6-10.9-17.3-15.2-22 .2 7-2.2 27.5-13 52.7-13.5 31.5-18.5 56.6-18.5 43v-43A254.4 254.4 0 0 0 100 244.9Z"/></g></g><g transform="translate(81.7 150.7) scale(.71856)"><path d="M309 148H71v124h.3v1.3c0 29.8 53.3 77.4 119 77.4 65.8 0 119.1-47.6 119.1-77.4 0-1.6-.1-3.1-.4-4.7V148Z" fill="#da9969"/><path d="M71.2 253.6v.9-.9ZM71.2 254.5v18.8c0 29.8 53.4 77.4 119.1 77.4 65.8 0 119.1-47.6 119.1-77.4v-19.7.9c0 29.9-53.3 77.4-119 77.4-65.8 0-119.1-47.5-119.2-77.4Z" fill="#000" fill-opacity=".2"/><path d="M309 152.5c0 55.9-54.2 101.8-120 101.8-65.7 0-119-45.3-119-101.2C70 97.3 123.3 52 189 52c65.8 0 120 44.6 120 100.5Z" fill="#da9969"/></g><g transform="translate(199.5 333.4) scale(.71856)"><path d="M-24 22.9a17 17 0 0 1 17-17h65.7a17 17 0 0 1 0 34H-7a17 17 0 0 1-17-17Z" fill="#DE8383"/><path fill-rule="evenodd" clip-rule="evenodd" d="M73.9 14.7c-3 5.4-8.7 9-15.3 9H-6.2c-6.6 0-12.3-3.6-15.3-9 3-5.3 8.7-9 15.3-9h64.8c6.6 0 12.3 3.7 15.3 9Z" fill="#F9F9F9"/></g><g transform="translate(280.7 235.4) scale(.71856)"><rect x="27" y="21" width="80" height="80" rx="21.3" fill="#da9969"/><rect x="35.9" y="29.9" width="62.2" height="62.2" rx="12.4" fill="#000" fill-opacity=".2"/><rect x="28.8" y="44.1" width="17.8" height="35.5" rx="5.3" fill="#da9969"/></g><g transform="matrix(-.71856 0 0 .71856 161.5 235.4)"><rect x="27" y="21" width="80" height="80" rx="21.3" fill="#da9969"/><rect x="35.9" y="29.9" width="62.2" height="62.2" rx="12.4" fill="#000" fill-opacity=".2"/><rect x="28.8" y="44.1" width="17.8" height="35.5" rx="5.3" fill="#da9969"/></g><g transform="translate(114.8 215.5) scale(.71856)"><ellipse cx="29" cy="17.5" rx="29" ry="17.5" transform="matrix(-1 0 0 1 117 80)" fill="#fff"/><path d="M94.8 114.5a18 18 0 0 1 1.9-33.7C108.5 83 117 89.7 117 97.5c0 8.2-9.5 15.2-22.2 17Z" fill="#000"/><path d="M57 43.4A60.5 60.5 0 0 1 90 34c18.2 0 35.1 7.8 33 9.4 0 18.2-3.5 0-32 0-30.8 0-34 18.2-34 0ZM167.9 43.4a60.5 60.5 0 0 1 33-9.4c18.1 0 35 7.8 32.9 9.4 0 18.2-3.4 0-32 0-30.7 0-34 18.2-34 0Z" fill="#000"/><ellipse cx="29" cy="17.5" rx="29" ry="17.5" transform="matrix(-1 0 0 1 227 80)" fill="#fff"/><path d="M204.8 114.5a18 18 0 0 1 1.9-33.7C218.5 83 227 89.7 227 97.5c0 8.2-9.5 15.2-22.2 17Z" fill="#000"/></g><g transform="translate(127.7 288.7) scale(.71856)"><g fill="#F88888"><rect x="11" y="16" width="56.3" height="43.4" rx="21.7"/><rect x="191" y="16" width="56.3" height="43.4" rx="21.7"/></g></g><g transform="translate(193 279.4) scale(.71856)"><path d="M42.4 22c-.7 5.4-3 16.3-7.1 17-5 1-11-8-13.1-2-2 6 12 21.2 22.2 18.2" stroke="#000" stroke-opacity=".5" stroke-width="3.7" stroke-linecap="round" stroke-linejoin="round"/></g><g transform="matrix(.52237 0 0 .52237 122.9 244.8)"><path d="M18 31.8C17.3 12.2 15 2.3 32 0c19.6 3.6 14 22.6 12 31.8-2.2 9.3 9.5 19 7.4 39.4-2 20.4-25 30-36 12.8-14-22 3.5-32.6 2.7-52.2Z" fill="#c93305"/></g><g transform="matrix(-.52237 0 0 .52237 315.7 244.8)"><path d="M18 31.8C17.3 12.2 15 2.3 32 0c19.6 3.6 14 22.6 12 31.8-2.2 9.3 9.5 19 7.4 39.4-2 20.4-25 30-36 12.8-14-22 3.5-32.6 2.7-52.2Z" fill="#c93305"/></g><g transform="matrix(.52237 0 0 .52237 108.7 145.6)"><g fill="#c93305"><path d="M374 131c6.5 15.9 11.5 34.5 11.5 70-11 0-38.5 11-92.5-18-54.8-29.5-68.9-59.5-82-79-13 27-37 51.3-72.5 73.5C103 199.7 54.2 198.5 38 201c0-23.1 2-46 10.9-67.4A176 176 0 0 1 211 25a175 175 0 0 1 124 51.5c16.4 16.4 30.2 33.1 39 54.5Z"/><path d="M302 77c-11.6-28.6-41.2-46.3-87-39.6-30.2 3.7-48.3 24.3-67.4 39.6-19.2 15.3-44.3 49.6-24.2 83.5 20.1 33.8 163.5 72.5 212.8 6.7 26.6-35.6-22.6-61.6-34.2-90.2Z"/></g></g></g></svg>