<svg xmlns="http://www.w3.org/2000/svg" viewBox="0 0 440 440" fill="none" shape-rendering="auto"><metadata xmlns:rdf="http://www.w3.org/1999/02/22-rdf-syntax-ns#" xmlns:xsi="http://www.w3.org/2001/XMLSchema-instance" xmlns:dc="http://purl.org/dc/elements/1.1/" xmlns:dcterms="http://purl.org/dc/terms/"><rdf:RDF><rdf:Description><dc:title>Face Generator</dc:title><dc:creator>The Visual Team</dc:creator><dc:source xsi:type="dcterms:URI">https://www.figma.com/community/file/986078800058673824</dc:source><dcterms:license xsi:type="dcterms:URI">https://creativecommons.org/licenses/by/4.0/</dcterms:license><dc:rights>Remix of „Face Generator” (https://www.figma.com/community/file/986078800058673824) by „The Visual Team”, licensed under „CC BY 4.0” (https://creativecommons.org/licenses/by/4.0/)</dc:rights></rdf:Description></rdf:RDF></metadata><mask id="viewboxMask"><rect width="440" height="440" rx="0" ry="0" x="0" y="0" fill="#fff" /></mask><g mask="url(#viewboxMask)"><g transform="matrix(.71048 0 0 .71048 24 2)"><g fill="#e8e1e1"><path d="M78.7 224.1c13.7-116.4 116.8-174.6 210.8-171 144 5.6 197.7 105 204 171 5.6 56.6 64.2 114.4 24.3 169.8-65.4 90.7-421 36.9-447.8 17.9-71-50.2-.8-107.4 8.7-187.7Z"/><path d="M63.4 400.5a127.3 127.3 0 0 0 39-46.5c28.6-62.2-36.7-75.8-47.5-48.7a328 328 0 0 1-19.4 38.4C25.4 362 15.8 369.7-15 371c12 16 41.6 54.4 78.4 29.5ZM506.8 400.5a127.3 127.3 0 0 1-39-46.5c-28.6-62.2 36.7-75.8 47.5-48.7 2.5 6.2 6.7 15.6 19.4 38.4 10.1 18.3 19.7 26 50.5 27.3-12 16-41.6 54.4-78.4 29.5Z"/><path d="M513.7 359.5c-25.4-7.2-46.2-26-51.7-31.8-46.8-50 7.3-108.5 26.1-86.2 4.3 5 14.8 37.7 34 55.3 15.5 14.1 27 18.6 56.6 10-6.3 18.9-22.3 64.7-65 52.7ZM57.1 359.5c25.4-7.2 46.2-26 51.7-31.8 46.8-50-13-108-31.7-85.7-4.3 5-9.3 37.2-28.5 54.8-15.4 14.1-26.9 18.6-56.5 10 6.3 18.9 22.3 64.7 65 52.7ZM409.4 455.3a127.3 127.3 0 0 1-11.3-59.6c5.5-68.2 69.1-48 65.3-19.2a328 328 0 0 0-2 43c0 20.9 4.4 32.4 30.7 48.5-18.2 8-62.9 27-82.7-12.7ZM168.5 455.3a127.3 127.3 0 0 0 11.2-59.6c-5.5-68.2-69-48-65.2-19.2.8 6.6 1.8 17 2 43 0 20.9-4.5 32.4-30.8 48.5 18.2 8 63 27 82.8-12.7ZM287.7 489.4c13.8-27.7 14-60.7 13.2-70C294.4 339 199 356 203.6 390c1 7.8 16.4 20.3 16.5 51 .1 24.5 1.2 44.3-29.7 63.4 21.4 9.4 74 31.8 97.3-15Z"/><path d="M102.5 438c17.3-19.8 24.4-47 25.8-54.9 11.6-67.5-55-63.8-58.4-34.8a328 328 0 0 1-8.9 42c-5 20.3-12.3 30.3-41.8 39.4 15.6 12.4 54.2 41.9 83.3 8.4ZM467.7 438a127.3 127.3 0 0 1-25.8-54.9c-11.6-67.5 55-63.8 58.5-34.8a328 328 0 0 0 8.8 42c5 20.3 12.3 30.3 41.8 39.4-15.6 12.4-54.2 41.9-83.3 8.4ZM356.8 469c-5.3-25.8 1.8-53 4.5-60.6 22.8-64.5 79-28.7 68-1.8-2.6 6.2-6.2 16-13 41-5.4 20.2-4 32.5 17.2 54.9-19.7 3-67.7 10-76.7-33.6ZM221 469c5.4-25.8-1.7-53-4.4-60.6-22.9-64.5-79.2-28.7-68-1.8a328 328 0 0 1 13 41c5.4 20.2 4 32.5-17.3 54.9 19.7 3 67.7 10 76.7-33.6Z"/><path d="M288.9 486.4c-10.3-29.2-6.4-62-4.5-71.2 16.4-79 87.7-46 79-13-2 7.7 4 15.4 0 45.8-3.1 24.3-8.1 42.6 20.2 65.3-22.4 6.7-77.3 22.3-94.7-27Z"/></g></g><g transform="translate(81.7 150.7) scale(.71856)"><ellipse cx="190" cy="198.5" rx="132" ry="152.5" fill="#a66637"/><path d="M322 192.4c-2.6 81.6-60.7 146.8-132 146.8-71.2 0-129.3-65.2-132-146.8v5.9c0 84.2 59.1 152.6 132 152.6 73 0 132.1-68.4 132.1-152.6v-5.9Z" fill="#000" fill-opacity=".2"/></g><g transform="translate(199.5 333.4) scale(.71856)"><path fill-rule="evenodd" clip-rule="evenodd" d="M16.8 33.3a2.5 2.5 0 0 1 3.5-.7c4.1 2.7 18.5 5.6 37-14a2.5 2.5 0 0 1 3.7 3.5C41.4 42.8 24.4 41.3 17.5 36.9a2.5 2.5 0 0 1-.7-3.6Z" fill="#000"/></g><g transform="translate(280.7 235.4) scale(.71856)"><rect x="20" y="22" width="88" height="88.1" rx="44" fill="#a66637"/><rect x="29.8" y="31.8" width="68.4" height="68.5" rx="34.2" fill="#000" fill-opacity=".2"/><rect x="23.9" y="49.4" width="37.2" height="37.2" rx="18.6" fill="#a66637"/></g><g transform="matrix(-.71856 0 0 .71856 161.5 235.4)"><rect x="20" y="22" width="88" height="88.1" rx="44" fill="#a66637"/><rect x="29.8" y="31.8" width="68.4" height="68.5" rx="34.2" fill="#000" fill-opacity=".2"/><rect x="23.9" y="49.4" width="37.2" height="37.2" rx="18.6" fill="#a66637"/></g><g transform="translate(114.8 215.5) scale(.71856)"><path d="M75 52.4c3.6-2.8 9-8.4 19.7-8.4 9 0 16.7 6.2 18 8.4M179.6 52.4c3.5-2.8 9-8.4 19.7-8.4 9 0 16.7 6.2 18 8.4" stroke="#000" stroke-width="4.2" stroke-linecap="round"/><rect x="72" y="60.4" width="49.4" height="60.4" rx="16.5" fill="#fff"/><rect x="173.6" y="60.4" width="49.4" height="60.4" rx="16.5" fill="#fff"/><rect x="81.4" y="68.8" width="30.2" height="46.7" rx="15.1" fill="#757575"/><rect x="182.9" y="68.8" width="30.2" height="46.7" rx="15.1" fill="#757575"/><rect x="88.5" y="78.4" width="16.5" height="26" rx="8.3" fill="#000"/><rect x="190" y="78.4" width="16.5" height="26" rx="8.3" fill="#000"/></g><g transform="translate(127.7 288.7) scale(.71856)"></g><g transform="translate(193 279.4) scale(.71856)"><path d="m24.6 39.3-.2 2.6a14.7 14.7 0 1 0 29-.4l-.1-2a14.7 14.7 0 0 1-28.7-.2Z" fill="#000" fill-opacity=".2"/></g><g transform="matrix(.52237 0 0 .52237 122.9 244.8)"><path d="M26 0h-3A19 19 0 0 0 4 19v52a19 19 0 0 0 19 19h3a19 19 0 0 0 19-19V19A19 19 0 0 0 26 0Z" fill="#e8e1e1"/></g><g transform="matrix(-.52237 0 0 .52237 315.7 244.8)"><path d="M26 0h-3A19 19 0 0 0 4 19v52a19 19 0 0 0 19 19h3a19 19 0 0 0 19-19V19A19 19 0 0 0 26 0Z" fill="#e8e1e1"/></g><g transform="matrix(.52237 0 0 .52237 108.7 145.6)"><path d="M384.9 132.5a185.5 185.5 0 0 1 14.1 71H151.5l-24-47-24 47H28a185.5 185.5 0 0 1 356.9-71Z" fill="#e8e1e1"/></g></g></svg>