<svg xmlns="http://www.w3.org/2000/svg" viewBox="0 0 440 440" fill="none" shape-rendering="auto"><metadata xmlns:rdf="http://www.w3.org/1999/02/22-rdf-syntax-ns#" xmlns:xsi="http://www.w3.org/2001/XMLSchema-instance" xmlns:dc="http://purl.org/dc/elements/1.1/" xmlns:dcterms="http://purl.org/dc/terms/"><rdf:RDF><rdf:Description><dc:title>Face Generator</dc:title><dc:creator>The Visual Team</dc:creator><dc:source xsi:type="dcterms:URI">https://www.figma.com/community/file/986078800058673824</dc:source><dcterms:license xsi:type="dcterms:URI">https://creativecommons.org/licenses/by/4.0/</dcterms:license><dc:rights>Remix of „Face Generator” (https://www.figma.com/community/file/986078800058673824) by „The Visual Team”, licensed under „CC BY 4.0” (https://creativecommons.org/licenses/by/4.0/)</dc:rights></rdf:Description></rdf:RDF></metadata><mask id="viewboxMask"><rect width="440" height="440" rx="0" ry="0" x="0" y="0" fill="#fff" /></mask><g mask="url(#viewboxMask)"><g transform="matrix(.71048 0 0 .71048 24 2)"><g fill="#d6b370"><path d="M431 317.5v-8a155.5 155.5 0 0 0-311 0v8a155.5 155.5 0 0 0 311 0Z"/><path d="M114.2 293.4c-15.2 52.4 6.4 90.2 19 102.5 40.5 90.5 233.5 67.5 293 0 47.6-54-19.8-207.2-59.5-277L332 161.4c-16.5-14.2-46.5-53.4-55-53.4-8.7 0-29.6 33.2-47.8 53.4-10.5-17.7-33-51-39.5-42.5-8 10.5-56.5 109-75.5 174.5Z"/></g></g><g transform="translate(81.7 150.7) scale(.71856)"><path d="M293.1 88.7C258 38.7 171.6 25.4 120.3 58 69 91 57.5 145.2 65 204.8c3.1 24.1 7 43 9 63.5 6.6 63.2 93 94.7 118.6 94.7 40.4 0 108.3-44.3 116.8-94.7 7.7-46 7-42.4 7.5-63.5.6-21 11.3-66.1-23.9-116.1Z" fill="#da9969"/><path d="M76.2 279.7c22.6 47.6 92.6 71.3 115.6 71.3 39 0 102.8-38.9 118-85.2l-.5 2.8C301 319 233 363.5 192.6 363.5c-24 0-101.7-27.9-116.4-83.8Z" fill="#000" fill-opacity=".2"/></g><g transform="translate(199.5 333.4) scale(.71856)"><path d="M-2.4 23.5a57 57 0 0 1 31-8.9c17 0 33 7.4 31 8.9 0 17-2-3.6-29-3.6-28.9 0-33 20.7-33 3.6Z" fill="#000"/></g><g transform="translate(280.7 235.4) scale(.71856)"><rect x="30" y="23" width="80" height="80" rx="21.3" fill="#da9969"/><rect x="38.9" y="31.9" width="42.6" height="62.2" rx="12.4" fill="#000" fill-opacity=".2"/><rect x="30" y="46.1" width="17.8" height="35.5" rx="8.9" fill="#da9969"/></g><g transform="matrix(-.71856 0 0 .71856 161.5 235.4)"><rect x="30" y="23" width="80" height="80" rx="21.3" fill="#da9969"/><rect x="38.9" y="31.9" width="42.6" height="62.2" rx="12.4" fill="#000" fill-opacity=".2"/><rect x="30" y="46.1" width="17.8" height="35.5" rx="8.9" fill="#da9969"/></g><g transform="translate(114.8 215.5) scale(.71856)"><g stroke="#000" stroke-linecap="round"><path d="M106 43c-3.6 2.9-9.3 8.7-20.3 8.7-9.4 0-17.3-6.4-18.7-8.7M184.9 43c3.7 2.9 9.3 8.7 20.4 8.7 9.4 0 17.3-6.4 18.7-8.7" stroke-width="7"/><path d="m73 74 35.5 15.5L73 110M220.5 74 185 89.5l35.5 20.5" stroke-width="4" stroke-linejoin="round"/></g></g><g transform="translate(127.7 288.7) scale(.71856)"></g><g transform="translate(193 279.4) scale(.71856)"><path d="M37 14v27c-3.7.7-11 4-11 10.5 0 8.2 7.3 10.5 11 11.7" stroke="#000" stroke-opacity=".5" stroke-width="4" stroke-linecap="round" stroke-linejoin="round"/></g><g transform="matrix(.52237 0 0 .52237 122.9 244.8)"><path d="M11 103V7.5h40L11 103Z" fill="#d6b370"/></g><g transform="matrix(-.52237 0 0 .52237 315.7 244.8)"><path d="M11 103V7.5h40L11 103Z" fill="#d6b370"/></g><g transform="matrix(.52237 0 0 .52237 108.7 145.6)"><g fill="#d6b370"><path d="M374 131c6.5 15.9 11.5 34.5 11.5 70-11 0-38.5 11-92.5-18-54.8-29.5-68.9-59.5-82-79-13 27-37 51.3-72.5 73.5C103 199.7 54.2 198.5 38 201c0-23.1 2-46 10.9-67.4A176 176 0 0 1 211 25a175 175 0 0 1 124 51.5c16.4 16.4 30.2 33.1 39 54.5Z"/><path d="M302 77c-11.6-28.6-41.2-46.3-87-39.6-30.2 3.7-48.3 24.3-67.4 39.6-19.2 15.3-44.3 49.6-24.2 83.5 20.1 33.8 163.5 72.5 212.8 6.7 26.6-35.6-22.6-61.6-34.2-90.2Z"/></g></g></g></svg>