<svg xmlns="http://www.w3.org/2000/svg" viewBox="0 0 440 440" fill="none" shape-rendering="auto"><metadata xmlns:rdf="http://www.w3.org/1999/02/22-rdf-syntax-ns#" xmlns:xsi="http://www.w3.org/2001/XMLSchema-instance" xmlns:dc="http://purl.org/dc/elements/1.1/" xmlns:dcterms="http://purl.org/dc/terms/"><rdf:RDF><rdf:Description><dc:title>Face Generator</dc:title><dc:creator>The Visual Team</dc:creator><dc:source xsi:type="dcterms:URI">https://www.figma.com/community/file/986078800058673824</dc:source><dcterms:license xsi:type="dcterms:URI">https://creativecommons.org/licenses/by/4.0/</dcterms:license><dc:rights>Remix of „Face Generator” (https://www.figma.com/community/file/986078800058673824) by „The Visual Team”, licensed under „CC BY 4.0” (https://creativecommons.org/licenses/by/4.0/)</dc:rights></rdf:Description></rdf:RDF></metadata><mask id="viewboxMask"><rect width="440" height="440" rx="0" ry="0" x="0" y="0" fill="#fff" /></mask><g mask="url(#viewboxMask)"><g transform="matrix(.71048 0 0 .71048 24 2)"><path d="M431 346v-8c0-35.3-11.7-76.1-31.5-112-28.4-51.6-73.4-93-124-93-53.2 0-100.2 45.8-128.2 101A238.8 238.8 0 0 0 120 338v8a155.5 155.5 0 0 0 311 0Z" fill="#c93305"/></g><g transform="translate(81.7 150.7) scale(.71856)"><path d="M190.5 37C120.6 37 64 102.1 64 182.5a170.3 170.3 0 0 0 0 3C64 265.8 120.6 361 190.5 361S317 265.8 317 185.5a182.4 182.4 0 0 0 0-3C317 102 260.4 37 190.5 37Z" fill="#da9969"/><path d="M64 181.5v4C64 265.8 120.6 361 190.5 361S317 265.8 317 185.5v-4C315 261 259.2 353 190.5 353S65.9 261 64 181.5Z" fill="#000" fill-opacity=".2"/></g><g transform="translate(199.5 333.4) scale(.71856)"><path fill-rule="evenodd" clip-rule="evenodd" d="M-1.5 27.9-6 31.4a3.2 3.2 0 1 1-3.7-5.2l4-3.1 2.3-1.9c2.3-1.7 4.8-3.6 7.8-5.2a52 52 0 0 1 25.8-5.7 52.5 52.5 0 0 1 38.2 16.5 3.2 3.2 0 1 1-4.8 4 46.3 46.3 0 0 0-33.4-14c-11 0-17.7 2-22.8 4.8a48 48 0 0 0-6.9 4.6l-2 1.7Z" fill="#000"/></g><g transform="translate(280.7 235.4) scale(.71856)"><rect x="20" y="22" width="88" height="88.1" rx="44" fill="#da9969"/><rect x="29.8" y="31.8" width="68.4" height="68.5" rx="34.2" fill="#000" fill-opacity=".2"/><rect x="23.9" y="49.4" width="37.2" height="37.2" rx="18.6" fill="#da9969"/></g><g transform="matrix(-.71856 0 0 .71856 161.5 235.4)"><rect x="20" y="22" width="88" height="88.1" rx="44" fill="#da9969"/><rect x="29.8" y="31.8" width="68.4" height="68.5" rx="34.2" fill="#000" fill-opacity=".2"/><rect x="23.9" y="49.4" width="37.2" height="37.2" rx="18.6" fill="#da9969"/></g><g transform="translate(114.8 215.5) scale(.71856)"><g stroke="#000" stroke-linecap="round"><path d="M184.9 51.7c3.7-3 9.3-8.7 20.4-8.7 9.4 0 17.3 6.4 18.7 8.7M106 51.7c-3.6-3-9.3-8.7-20.3-8.7-9.4 0-17.3 6.4-18.7 8.7" stroke-width="7"/><path d="m73 74 35.5 15.5L73 110M220.5 74 185 89.5l35.5 20.5" stroke-width="4" stroke-linejoin="round"/></g></g><g transform="translate(127.7 288.7) scale(.71856)"></g><g transform="translate(193 279.4) scale(.71856)"><path d="M5.6 34.4a17 17 0 0 0 16.3 21.4h33.7A16.9 16.9 0 0 0 72 34.4C70 41.6 63.4 47 55.6 47H22c-7.8 0-14.4-5.3-16.3-12.5Z" fill="#000" fill-opacity=".2"/></g><g transform="matrix(.52237 0 0 .52237 122.9 244.8)"><path d="M10 94V8h32l-3.7 76.9L10 94Z" fill="#c93305"/></g><g transform="matrix(-.52237 0 0 .52237 315.7 244.8)"><path d="M10 94V8h32l-3.7 76.9L10 94Z" fill="#c93305"/></g><g transform="matrix(.52237 0 0 .52237 108.7 145.6)"><g fill="#c93305"><path d="M374 131c6.5 15.9 11.5 34.5 11.5 70-11 0-38.5 11-92.5-18-54.8-29.5-68.9-59.5-82-79-13 27-37 51.3-72.5 73.5C103 199.7 54.2 198.5 38 201c0-23.1 2-46 10.9-67.4A176 176 0 0 1 211 25a175 175 0 0 1 124 51.5c16.4 16.4 30.2 33.1 39 54.5Z"/><path d="M302 77c-11.6-28.6-41.2-46.3-87-39.6-30.2 3.7-48.3 24.3-67.4 39.6-19.2 15.3-44.3 49.6-24.2 83.5 20.1 33.8 163.5 72.5 212.8 6.7 26.6-35.6-22.6-61.6-34.2-90.2Z"/></g></g></g></svg>