<svg xmlns="http://www.w3.org/2000/svg" viewBox="0 0 440 440" fill="none" shape-rendering="auto"><metadata xmlns:rdf="http://www.w3.org/1999/02/22-rdf-syntax-ns#" xmlns:xsi="http://www.w3.org/2001/XMLSchema-instance" xmlns:dc="http://purl.org/dc/elements/1.1/" xmlns:dcterms="http://purl.org/dc/terms/"><rdf:RDF><rdf:Description><dc:title>Face Generator</dc:title><dc:creator>The Visual Team</dc:creator><dc:source xsi:type="dcterms:URI">https://www.figma.com/community/file/986078800058673824</dc:source><dcterms:license xsi:type="dcterms:URI">https://creativecommons.org/licenses/by/4.0/</dcterms:license><dc:rights>Remix of „Face Generator” (https://www.figma.com/community/file/986078800058673824) by „The Visual Team”, licensed under „CC BY 4.0” (https://creativecommons.org/licenses/by/4.0/)</dc:rights></rdf:Description></rdf:RDF></metadata><mask id="viewboxMask"><rect width="440" height="440" rx="0" ry="0" x="0" y="0" fill="#fff" /></mask><g mask="url(#viewboxMask)"><g transform="matrix(.71048 0 0 .71048 24 2)"><path d="M293 197h-35a138 138 0 0 0 0 276h35a138 138 0 0 0 0-276Z" fill="#e8e1e1"/></g><g transform="translate(81.7 150.7) scale(.71856)"><circle cx="189.5" cy="199.5" r="133.5" fill="#a66637"/><path d="M323.3 192.3a133.8 133.8 0 0 1-267.1 0 133.7 133.7 0 1 0 267.1 0Z" fill="#000" fill-opacity=".2"/></g><g transform="translate(199.5 333.4) scale(.71856)"><path fill-rule="evenodd" clip-rule="evenodd" d="M16.8 33.3a2.5 2.5 0 0 1 3.5-.7c4.1 2.7 18.5 5.6 37-14a2.5 2.5 0 0 1 3.7 3.5C41.4 42.8 24.4 41.3 17.5 36.9a2.5 2.5 0 0 1-.7-3.6Z" fill="#000"/></g><g transform="translate(280.7 235.4) scale(.71856)"><rect x="22" y="19" width="88.1" height="88.1" rx="44.1" fill="#a66637"/><path d="m79 38.5-39 29L83.5 87" stroke="#000" stroke-opacity=".2" stroke-width="5" stroke-linecap="round" stroke-linejoin="round"/></g><g transform="matrix(-.71856 0 0 .71856 161.5 235.4)"><rect x="22" y="19" width="88.1" height="88.1" rx="44.1" fill="#a66637"/><path d="m79 38.5-39 29L83.5 87" stroke="#000" stroke-opacity=".2" stroke-width="5" stroke-linecap="round" stroke-linejoin="round"/></g><g transform="translate(114.8 215.5) scale(.71856)"><ellipse cx="29" cy="17.5" rx="29" ry="17.5" transform="matrix(-1 0 0 1 117 80)" fill="#fff"/><path d="M94.8 114.5a18 18 0 0 1 1.9-33.7C108.5 83 117 89.7 117 97.5c0 8.2-9.5 15.2-22.2 17Z" fill="#000"/><path d="M57 43.4A60.5 60.5 0 0 1 90 34c18.2 0 35.1 7.8 33 9.4 0 18.2-3.5 0-32 0-30.8 0-34 18.2-34 0ZM167.9 43.4a60.5 60.5 0 0 1 33-9.4c18.1 0 35 7.8 32.9 9.4 0 18.2-3.4 0-32 0-30.7 0-34 18.2-34 0Z" fill="#000"/><ellipse cx="29" cy="17.5" rx="29" ry="17.5" transform="matrix(-1 0 0 1 227 80)" fill="#fff"/><path d="M204.8 114.5a18 18 0 0 1 1.9-33.7C218.5 83 227 89.7 227 97.5c0 8.2-9.5 15.2-22.2 17Z" fill="#000"/></g><g transform="translate(127.7 288.7) scale(.71856)"></g><g transform="translate(193 279.4) scale(.71856)"><path d="M37 14v27c-3.7.7-11 4-11 10.5 0 8.2 7.3 10.5 11 11.7" stroke="#000" stroke-opacity=".5" stroke-width="4" stroke-linecap="round" stroke-linejoin="round"/></g><g transform="matrix(.52237 0 0 .52237 122.9 244.8)"><path d="M32.5 87.5C8.1 87.5 2.5 32.5 5 4h27.5c-6.2 16-3.2 29.8-1.5 47 2 20 21.3 5.1 25.4-2.7.5 15.6-12 39.2-23.9 39.2Z" fill="#e8e1e1"/></g><g transform="matrix(-.52237 0 0 .52237 315.7 244.8)"><path d="M32.5 87.5C8.1 87.5 2.5 32.5 5 4h27.5c-6.2 16-3.2 29.8-1.5 47 2 20 21.3 5.1 25.4-2.7.5 15.6-12 39.2-23.9 39.2Z" fill="#e8e1e1"/></g><g transform="matrix(.52237 0 0 .52237 108.7 145.6)"><g fill="#e8e1e1"><path d="M374 131c6.5 15.9 11.5 34.5 11.5 70-11 0-38.5 11-92.5-18-54.8-29.5-68.9-59.5-82-79-13 27-37 51.3-72.5 73.5C103 199.7 54.2 198.5 38 201c0-23.1 2-46 10.9-67.4A176 176 0 0 1 211 25a175 175 0 0 1 124 51.5c16.4 16.4 30.2 33.1 39 54.5Z"/><path d="M302 77c-11.6-28.6-41.2-46.3-87-39.6-30.2 3.7-48.3 24.3-67.4 39.6-19.2 15.3-44.3 49.6-24.2 83.5 20.1 33.8 163.5 72.5 212.8 6.7 26.6-35.6-22.6-61.6-34.2-90.2Z"/></g></g></g></svg>