<svg xmlns="http://www.w3.org/2000/svg" viewBox="0 0 440 440" fill="none" shape-rendering="auto"><metadata xmlns:rdf="http://www.w3.org/1999/02/22-rdf-syntax-ns#" xmlns:xsi="http://www.w3.org/2001/XMLSchema-instance" xmlns:dc="http://purl.org/dc/elements/1.1/" xmlns:dcterms="http://purl.org/dc/terms/"><rdf:RDF><rdf:Description><dc:title>Face Generator</dc:title><dc:creator>The Visual Team</dc:creator><dc:source xsi:type="dcterms:URI">https://www.figma.com/community/file/986078800058673824</dc:source><dcterms:license xsi:type="dcterms:URI">https://creativecommons.org/licenses/by/4.0/</dcterms:license><dc:rights>Remix of „Face Generator” (https://www.figma.com/community/file/986078800058673824) by „The Visual Team”, licensed under „CC BY 4.0” (https://creativecommons.org/licenses/by/4.0/)</dc:rights></rdf:Description></rdf:RDF></metadata><mask id="viewboxMask"><rect width="440" height="440" rx="0" ry="0" x="0" y="0" fill="#fff" /></mask><g mask="url(#viewboxMask)"><g transform="matrix(.71048 0 0 .71048 24 2)"><path d="M293 197h-35a138 138 0 0 0 0 276h35a138 138 0 0 0 0-276Z" fill="#c93305"/></g><g transform="translate(81.7 150.7) scale(.71856)"><path d="M69 111.3C69 95 82 82 98.3 82h185.4C300 82 313 95 313 111.3v241.4c0 16.2-13 29.3-29.3 29.3H98.3C82 382 69 369 69 352.7V111.3Z" fill="#c07f50"/><path d="M69 330.8v22c0 16.1 13 29.2 29.3 29.2h185.4c16.2 0 29.3-13 29.3-29.3v-22c0 16.2-13 29.3-29.3 29.3H98.3C82 360 69 347 69 330.8Z" fill="#000" fill-opacity=".2"/></g><g transform="translate(199.5 333.4) scale(.71856)"><path d="M59.2 32c0 17.1-13.8 4.1-31 4.1-17 0-31 13-31-4a31 31 0 1 1 62 0Z" fill="#DE8383"/></g><g transform="translate(280.7 235.4) scale(.71856)"><rect x="23" y="20" width="88" height="88.1" rx="44" fill="#c07f50"/><path d="M47.6 57.5c2.5-6 18-32 34.5-17.2 12.7 11.3-15 33.2-16.5 22.2C64 51.5 99 52 89 78.5 84.8 90 62 91 47.6 77" stroke="#000" stroke-opacity=".2" stroke-width="4" stroke-linecap="round" stroke-linejoin="round"/></g><g transform="matrix(-.71856 0 0 .71856 161.5 235.4)"><rect x="23" y="20" width="88" height="88.1" rx="44" fill="#c07f50"/><path d="M47.6 57.5c2.5-6 18-32 34.5-17.2 12.7 11.3-15 33.2-16.5 22.2C64 51.5 99 52 89 78.5 84.8 90 62 91 47.6 77" stroke="#000" stroke-opacity=".2" stroke-width="4" stroke-linecap="round" stroke-linejoin="round"/></g><g transform="translate(114.8 215.5) scale(.71856)"><path d="M51 66.6c6.9-2.2 17.4-6.6 38-6.6 17.6 0 32.3 4.9 35 6.6M164 66.6c6.9-2.2 17.4-6.6 38-6.6 17.6 0 32.3 4.9 35 6.6" stroke="#000" stroke-width="3.7" stroke-linecap="round"/><path d="M120.6 94.8s-24 11.6-35.4 11.6c-11.4 0-30.9-11.6-30.9-11.6s21.8-11.6 33.2-11.6c11.3 0 33.1 11.6 33.1 11.6ZM233.6 94.8s-24 11.6-35.4 11.6c-11.4 0-30.9-11.6-30.9-11.6s21.8-11.6 33.2-11.6c11.3 0 33.1 11.6 33.1 11.6Z" fill="#fff"/><circle cx="89.1" cy="94.8" r="11.6" fill="#000"/><circle cx="198.8" cy="94.8" r="11.6" fill="#000"/></g><g transform="translate(127.7 288.7) scale(.71856)"><g fill="#FFC6C6"><rect x="11" y="16" width="56.3" height="43.4" rx="21.7"/><rect x="191" y="16" width="56.3" height="43.4" rx="21.7"/></g></g><g transform="translate(193 279.4) scale(.71856)"><path d="M37.8 22c-7.1 9.5-20.2 29-16 31 4.3 2 18.6 2.5 25.3 2.5" stroke="#000" stroke-opacity=".5" stroke-width="4" stroke-linecap="round" stroke-linejoin="round"/></g><g transform="matrix(.52237 0 0 .52237 122.9 244.8)"><path d="M43.1 45C43 31.8 41.5 1 25.6 0 8 0 8.6 33.7 7.8 45c-.9 10-3.5 17.3 0 36.4C9.8 92.6 17.5 94 25.6 94c7.6 0 15.6-.9 17.5-9.6 4-18 .3-26.2 0-39.4Z" fill="#c93305"/></g><g transform="matrix(-.52237 0 0 .52237 315.7 244.8)"><path d="M43.1 45C43 31.8 41.5 1 25.6 0 8 0 8.6 33.7 7.8 45c-.9 10-3.5 17.3 0 36.4C9.8 92.6 17.5 94 25.6 94c7.6 0 15.6-.9 17.5-9.6 4-18 .3-26.2 0-39.4Z" fill="#c93305"/></g><g transform="matrix(.52237 0 0 .52237 108.7 145.6)"><path d="M374 130c6.5 15.9 11.5 34.5 11.5 70-11 0-73.7 6-114.5-10s-46.9-28.5-60-48c-13 27-37 38-73.5 48s-83.3 7.5-99.5 10c0-23.1 2-46 10.9-67.4A176 176 0 0 1 211 24a175 175 0 0 1 124 51.5c16.4 16.4 30.2 33.1 39 54.5Z" fill="#c93305"/></g></g></svg>