<svg xmlns="http://www.w3.org/2000/svg" viewBox="0 0 440 440" fill="none" shape-rendering="auto"><metadata xmlns:rdf="http://www.w3.org/1999/02/22-rdf-syntax-ns#" xmlns:xsi="http://www.w3.org/2001/XMLSchema-instance" xmlns:dc="http://purl.org/dc/elements/1.1/" xmlns:dcterms="http://purl.org/dc/terms/"><rdf:RDF><rdf:Description><dc:title>Face Generator</dc:title><dc:creator>The Visual Team</dc:creator><dc:source xsi:type="dcterms:URI">https://www.figma.com/community/file/986078800058673824</dc:source><dcterms:license xsi:type="dcterms:URI">https://creativecommons.org/licenses/by/4.0/</dcterms:license><dc:rights>Remix of „Face Generator” (https://www.figma.com/community/file/986078800058673824) by „The Visual Team”, licensed under „CC BY 4.0” (https://creativecommons.org/licenses/by/4.0/)</dc:rights></rdf:Description></rdf:RDF></metadata><mask id="viewboxMask"><rect width="440" height="440" rx="0" ry="0" x="0" y="0" fill="#fff" /></mask><g mask="url(#viewboxMask)"><g transform="matrix(.71048 0 0 .71048 24 2)"><path d="M41.6 296.4c-5.7 42.1 30.8 58.1 63.3 60-7.7 18.8 9.6 62 47.2 69.8 37.7 7.7 66.2-26.5 75.8-44.5 2.5 16.2 19.2 51 65.5 60.1 46.4 9.1 59.8-61.6 62.1-85.5 29 21 69 49.2 115.5 25.4 26.5-13.6 14-58.3 0-71 16.1-9.8 46.7-37.5 40-69.7-6.5-32.2-52.3-38.3-74.4-37.3 15.3-13 40-45.6 16.6-71.5-23.5-26-59.9-10.9-75.1 0 4.8-16.9 1.8-50.2-45.9-63.2-27.7-7.5-68 19.9-71.9 36.1-10.8-17-41.6-44.5-74.7-32.5-33 12-38.6 45.4-33.3 66.2-13.1-4-47.4-6.6-68.2 23.7-21 30.3 6.1 65.3 20.8 78.5-17.6 2-58.7 21.8-63.3 55.4Z" fill="#e8e1e1"/></g><g transform="translate(81.7 150.7) scale(.71856)"><path d="M190.5 37C120.6 37 64 102.1 64 182.5a170.3 170.3 0 0 0 0 3C64 265.8 120.6 361 190.5 361S317 265.8 317 185.5a182.4 182.4 0 0 0 0-3C317 102 260.4 37 190.5 37Z" fill="#a66637"/><path d="M64 181.5v4C64 265.8 120.6 361 190.5 361S317 265.8 317 185.5v-4C315 261 259.2 353 190.5 353S65.9 261 64 181.5Z" fill="#000" fill-opacity=".2"/></g><g transform="translate(199.5 333.4) scale(.71856)"><path fill-rule="evenodd" clip-rule="evenodd" d="M16.8 33.3a2.5 2.5 0 0 1 3.5-.7c4.1 2.7 18.5 5.6 37-14a2.5 2.5 0 0 1 3.7 3.5C41.4 42.8 24.4 41.3 17.5 36.9a2.5 2.5 0 0 1-.7-3.6Z" fill="#000"/></g><g transform="translate(280.7 235.4) scale(.71856)"><rect x="30" y="23" width="80" height="80" rx="21.3" fill="#a66637"/><rect x="38.9" y="31.9" width="42.6" height="62.2" rx="12.4" fill="#000" fill-opacity=".2"/><rect x="30" y="46.1" width="17.8" height="35.5" rx="8.9" fill="#a66637"/></g><g transform="matrix(-.71856 0 0 .71856 161.5 235.4)"><rect x="30" y="23" width="80" height="80" rx="21.3" fill="#a66637"/><rect x="38.9" y="31.9" width="42.6" height="62.2" rx="12.4" fill="#000" fill-opacity=".2"/><rect x="30" y="46.1" width="17.8" height="35.5" rx="8.9" fill="#a66637"/></g><g transform="translate(114.8 215.5) scale(.71856)"><g stroke="#000" stroke-linecap="round"><path d="M106 43c-3.6 2.9-9.3 8.7-20.3 8.7-9.4 0-17.3-6.4-18.7-8.7M184.9 43c3.7 2.9 9.3 8.7 20.4 8.7 9.4 0 17.3-6.4 18.7-8.7" stroke-width="7"/><path d="m73 74 35.5 15.5L73 110M220.5 74 185 89.5l35.5 20.5" stroke-width="4" stroke-linejoin="round"/></g></g><g transform="translate(127.7 288.7) scale(.71856)"></g><g transform="translate(193 279.4) scale(.71856)"><path d="M42.4 22c-.7 5.4-3 16.3-7.1 17-5 1-11-8-13.1-2-2 6 12 21.2 22.2 18.2" stroke="#000" stroke-opacity=".5" stroke-width="3.7" stroke-linecap="round" stroke-linejoin="round"/></g><g transform="matrix(.52237 0 0 .52237 122.9 244.8)"><path d="M18 31.8C17.3 12.2 15 2.3 32 0c19.6 3.6 14 22.6 12 31.8-2.2 9.3 9.5 19 7.4 39.4-2 20.4-25 30-36 12.8-14-22 3.5-32.6 2.7-52.2Z" fill="#e8e1e1"/></g><g transform="matrix(-.52237 0 0 .52237 315.7 244.8)"><path d="M18 31.8C17.3 12.2 15 2.3 32 0c19.6 3.6 14 22.6 12 31.8-2.2 9.3 9.5 19 7.4 39.4-2 20.4-25 30-36 12.8-14-22 3.5-32.6 2.7-52.2Z" fill="#e8e1e1"/></g><g transform="matrix(.52237 0 0 .52237 108.7 145.6)"><g fill="#e8e1e1"><path d="M132 85.2c2.7-21 39-24.4 57.5-22.6 18.5 1.8 21.7 3 44 10.7 22.4 7.8 70.2 33 59.3 59.4-8.7 21.2-32.1 12.4-42.8 5.3 2.5 11 5 34.9-4.8 41.8-9.6 6.9-21.8-6-26.8-13.4-2.6 6-12.9 18.5-32.3 19.8-19.4 1.4-15.4-24.8-11-38-8.5-.1-26.8-3.5-32-16.7-5.4-13.2 11.3-21.2 20.3-23.5-10.7.7-33.4-6.7-31.3-22.8Z"/><path d="M375 131c6.5 15.9 11.5 34.5 11.5 70-11 0-38.5 11-92.5-18-54.8-29.5-68.9-59.5-82-79-13 27-37 51.3-72.5 73.5C104 199.7 55.2 198.5 39 201c0-23.1 2-46 10.9-67.4A176 176 0 0 1 212 25a175 175 0 0 1 124 51.5c16.4 16.4 30.2 33.1 39 54.5Z"/></g></g></g></svg>