<svg xmlns="http://www.w3.org/2000/svg" viewBox="0 0 440 440" fill="none" shape-rendering="auto"><metadata xmlns:rdf="http://www.w3.org/1999/02/22-rdf-syntax-ns#" xmlns:xsi="http://www.w3.org/2001/XMLSchema-instance" xmlns:dc="http://purl.org/dc/elements/1.1/" xmlns:dcterms="http://purl.org/dc/terms/"><rdf:RDF><rdf:Description><dc:title>Face Generator</dc:title><dc:creator>The Visual Team</dc:creator><dc:source xsi:type="dcterms:URI">https://www.figma.com/community/file/986078800058673824</dc:source><dcterms:license xsi:type="dcterms:URI">https://creativecommons.org/licenses/by/4.0/</dcterms:license><dc:rights>Remix of „Face Generator” (https://www.figma.com/community/file/986078800058673824) by „The Visual Team”, licensed under „CC BY 4.0” (https://creativecommons.org/licenses/by/4.0/)</dc:rights></rdf:Description></rdf:RDF></metadata><mask id="viewboxMask"><rect width="440" height="440" rx="0" ry="0" x="0" y="0" fill="#fff" /></mask><g mask="url(#viewboxMask)"><g transform="matrix(.71048 0 0 .71048 24 2)"><g fill="#4a312c"><path d="M288.2 88.3H278C176.7 88.3 94.6 151 94.6 228.1v98.4c0 77.2 82.1 139.8 183.4 139.8h10.2c101.3 0 183.4-62.6 183.4-139.8v-98.4c0-77.2-82.1-139.8-183.4-139.8Z"/><path d="M127.1 76.8c50-43.7 238-81 278 48 38 14.5-104 177.3-104 278 0 107.5-93 181.4-210 147-65.3-19.1-74.5-95.1-57.5-147 17.5-53.3 30-45 7.5-143-9.2-40 38-84.4 63-113.5-13-41.5 11-59 23-69.5Z"/></g></g><g transform="translate(81.7 150.7) scale(.71856)"><path d="M325 213v-1.6C325 139.8 264.6 55 190 55S55 139.8 55 211.4a128.6 128.6 0 0 0 0 3.2c0 71.5 60.4 129.5 135 129.5s135-58 135-129.5V213Z" fill="#da9969"/><path d="M324.6 204.8c-5.1 67-63.4 119.8-134.6 119.8-71.2 0-129.5-52.8-134.6-119.8-.3 3.3-.4 6.6-.4 9.8 0 71.5 60.4 129.5 135 129.5s135-58 135-129.5c0-3.2-.1-6.5-.4-9.8Z" fill="#000" fill-opacity=".2"/></g><g transform="translate(199.5 333.4) scale(.71856)"><path d="M-2.4 23.5a57 57 0 0 1 31-8.9c17 0 33 7.4 31 8.9 0 17-2-3.6-29-3.6-28.9 0-33 20.7-33 3.6Z" fill="#000"/></g><g transform="translate(280.7 235.4) scale(.71856)"><rect x="21" y="21" width="88.1" height="88.1" rx="44.1" fill="#da9969"/><path d="M87 43 42.5 84.5" stroke="#000" stroke-opacity=".2" stroke-width="5" stroke-linecap="round" stroke-linejoin="round"/></g><g transform="matrix(-.71856 0 0 .71856 161.5 235.4)"><rect x="21" y="21" width="88.1" height="88.1" rx="44.1" fill="#da9969"/><path d="M87 43 42.5 84.5" stroke="#000" stroke-opacity=".2" stroke-width="5" stroke-linecap="round" stroke-linejoin="round"/></g><g transform="translate(114.8 215.5) scale(.71856)"><path d="M92.4 79.9a7 7 0 1 1 13.9 0v13.8a7 7 0 1 1-13.9 0V80ZM190.4 79.9a7 7 0 0 1 13.9 0v13.8a7 7 0 1 1-13.9 0V80Z" fill="#000"/><path d="M83.2 66c-.8 3 .4 10.2 11.5 13.9M181.2 66c-.8 3 .4 10.2 11.5 13.9" stroke="#000" stroke-width="4.6" stroke-linecap="round" stroke-linejoin="round"/></g><g transform="translate(127.7 288.7) scale(.71856)"><g fill="#000" fill-opacity=".2"><rect x="33" y="38.5" width="12.9" height="12.9" rx="6.4"/><rect x="57.1" y="24" width="12.9" height="14.5" rx="6.4"/><rect x="76.4" y="38.5" width="12.9" height="12.9" rx="6.4"/><rect x="166.4" y="38.5" width="12.9" height="12.9" rx="6.4"/><rect x="190.5" y="24" width="12.9" height="14.5" rx="6.4"/><rect x="209.8" y="38.5" width="12.9" height="12.9" rx="6.4"/></g></g><g transform="translate(193 279.4) scale(.71856)"><g fill="#000" fill-opacity=".2"><rect x="25.9" y="51.5" width="11.7" height="8.9" rx="4.4" transform="rotate(-90 25.9 51.5)"/><rect x="43.7" y="51.5" width="11.7" height="8.9" rx="4.4" transform="rotate(-90 43.7 51.5)"/><path d="M61.2 41.4c.2-.8.2-1.7.2-2.5C61.4 29.6 54 22 44.5 22H34a16.9 16.9 0 0 0-16.7 19.4A16.9 16.9 0 0 1 33.9 27h10.6C53 27 60 33.2 61.2 41.4Z"/></g></g><g transform="matrix(.52237 0 0 .52237 122.9 244.8)"><path d="M26 0h-3A19 19 0 0 0 4 19v52a19 19 0 0 0 19 19h3a19 19 0 0 0 19-19V19A19 19 0 0 0 26 0Z" fill="#4a312c"/></g><g transform="matrix(-.52237 0 0 .52237 315.7 244.8)"><path d="M26 0h-3A19 19 0 0 0 4 19v52a19 19 0 0 0 19 19h3a19 19 0 0 0 19-19V19A19 19 0 0 0 26 0Z" fill="#4a312c"/></g><g transform="matrix(.52237 0 0 .52237 108.7 145.6)"><path d="M374 130c6.5 15.9 11.5 34.5 11.5 70-11 0-73.7 6-114.5-10s-46.9-28.5-60-48c-13 27-37 38-73.5 48s-83.3 7.5-99.5 10c0-23.1 2-46 10.9-67.4A176 176 0 0 1 211 24a175 175 0 0 1 124 51.5c16.4 16.4 30.2 33.1 39 54.5Z" fill="#4a312c"/></g></g></svg>