<svg xmlns="http://www.w3.org/2000/svg" viewBox="0 0 440 440" fill="none" shape-rendering="auto"><metadata xmlns:rdf="http://www.w3.org/1999/02/22-rdf-syntax-ns#" xmlns:xsi="http://www.w3.org/2001/XMLSchema-instance" xmlns:dc="http://purl.org/dc/elements/1.1/" xmlns:dcterms="http://purl.org/dc/terms/"><rdf:RDF><rdf:Description><dc:title>Face Generator</dc:title><dc:creator>The Visual Team</dc:creator><dc:source xsi:type="dcterms:URI">https://www.figma.com/community/file/986078800058673824</dc:source><dcterms:license xsi:type="dcterms:URI">https://creativecommons.org/licenses/by/4.0/</dcterms:license><dc:rights>Remix of „Face Generator” (https://www.figma.com/community/file/986078800058673824) by „The Visual Team”, licensed under „CC BY 4.0” (https://creativecommons.org/licenses/by/4.0/)</dc:rights></rdf:Description></rdf:RDF></metadata><mask id="viewboxMask"><rect width="440" height="440" rx="0" ry="0" x="0" y="0" fill="#fff" /></mask><g mask="url(#viewboxMask)"><g transform="matrix(.71048 0 0 .71048 24 2)"><path d="M506 402.8c39.6-108.3-13.3-145.4-46.7-202.2-33.3-56.8-86.9-77.8-95.3-62.3-18.5-37.2-46.3-47.2-95.7-47.2-60.8 0-136 35-149 81-17.2 61-33 68-57.3 111.5-16.2 29-22.2 92 0 130.5 33.8 58.7 101.3 109 222.4 109 71.8 0 189.7-33 221.6-120.3Z" fill="#d6b370"/></g><g transform="translate(81.7 150.7) scale(.71856)"><path d="M191 39c103.2 3 112.2 97.8 114 138.3.5 12.7 3.3 23.8 6 34.9 3.3 13 6.5 26 6 41 .5 14.7-2.3 31.1-12 51.8-12.8 27-64.4 56-114 56-52.2 0-102.3-30.5-115.6-65.1A142.3 142.3 0 0 1 64 239.5c-.6-16.8 3-29.7 6.5-42.3 1.8-6.5 3.6-13 4.8-20 .7-4.1 1.3-9.3 2-15.3C82 119 91 39 191 39Z" fill="#f8b788"/><path d="M64.5 233c-1.6 16.1.3 35.5 10.9 62.9C88.7 330.5 138.8 361 191 361c49.6 0 101.2-29 114-56a105.2 105.2 0 0 0 11.3-60.2 118.6 118.6 0 0 1-11.5 38.6c-12.8 27-64.4 56-114 56-52.1 0-102.3-30.6-115.6-65.1A164.3 164.3 0 0 1 64.5 233Z" fill="#000" fill-opacity=".2"/></g><g transform="translate(199.5 333.4) scale(.71856)"><path d="M58.4 34.6c0 17.2-13.9 4.2-31 4.2s-31 13-31-4.2a31 31 0 0 1 62 0Z" fill="#DE8383"/><path fill-rule="evenodd" clip-rule="evenodd" d="M51.5 14.8a49 49 0 0 1-24.3 5.6c-9.5 0-18-2-23.7-5.2a31 31 0 0 1 48-.4Z" fill="#F9F9F9"/></g><g transform="translate(280.7 235.4) scale(.71856)"><rect x="27" y="21" width="80" height="80" rx="21.3" fill="#f8b788"/><rect x="35.9" y="29.9" width="62.2" height="62.2" rx="12.4" fill="#000" fill-opacity=".2"/><rect x="28.8" y="44.1" width="17.8" height="35.5" rx="5.3" fill="#f8b788"/></g><g transform="matrix(-.71856 0 0 .71856 161.5 235.4)"><rect x="27" y="21" width="80" height="80" rx="21.3" fill="#f8b788"/><rect x="35.9" y="29.9" width="62.2" height="62.2" rx="12.4" fill="#000" fill-opacity=".2"/><rect x="28.8" y="44.1" width="17.8" height="35.5" rx="5.3" fill="#f8b788"/></g><g transform="translate(114.8 215.5) scale(.71856)"><path d="M178.4 52.7c3.7-2.9 9.4-8.7 20.6-8.7a26 26 0 0 1 18.8 8.7M67.4 52.7C71 49.8 76.8 44 87.9 44a26 26 0 0 1 18.9 8.7" stroke="#000" stroke-width="3.7" stroke-linecap="round"/><circle cx="88.4" cy="90.8" r="28.4" fill="#fff"/><circle cx="198.7" cy="90.8" r="28.4" fill="#fff"/><circle cx="88.4" cy="90.8" r="15.3" fill="#757575"/><circle cx="198.7" cy="90.8" r="15.3" fill="#757575"/></g><g transform="translate(127.7 288.7) scale(.71856)"></g><g transform="translate(193 279.4) scale(.71856)"><path d="M5.6 34.4a17 17 0 0 0 16.3 21.4h33.7A16.9 16.9 0 0 0 72 34.4C70 41.6 63.4 47 55.6 47H22c-7.8 0-14.4-5.3-16.3-12.5Z" fill="#000" fill-opacity=".2"/></g><g transform="matrix(.52237 0 0 .52237 122.9 244.8)"><path d="M52 8H11v96h41V8Z" fill="#d6b370"/></g><g transform="matrix(-.52237 0 0 .52237 315.7 244.8)"><path d="M52 8H11v96h41V8Z" fill="#d6b370"/></g><g transform="matrix(.52237 0 0 .52237 108.7 145.6)"><g fill="#d6b370"><path d="M276 196.5a63.5 63.5 0 0 0-18.6-45c-5.9-5.8-12.9-61-20.6-64.2a63.5 63.5 0 0 0-48.6 0c-7.7 3.2-14.7 58.4-20.6 64.3a63.5 63.5 0 0 0-18.6 44.9h127Z"/><path d="M374 132c6.5 15.9 11.5 34.5 11.5 70-11 0-38.5 11-92.5-18-54.8-29.5-68.9-59.5-82-79-13 27-37 51.3-72.5 73.5C103 200.7 54.2 199.5 38 202c0-23.1 2-46 10.9-67.4A176 176 0 0 1 211 26a175 175 0 0 1 124 51.5c16.4 16.4 30.2 33.1 39 54.5Z"/></g></g></g></svg>