<svg xmlns="http://www.w3.org/2000/svg" viewBox="0 0 440 440" fill="none" shape-rendering="auto"><metadata xmlns:rdf="http://www.w3.org/1999/02/22-rdf-syntax-ns#" xmlns:xsi="http://www.w3.org/2001/XMLSchema-instance" xmlns:dc="http://purl.org/dc/elements/1.1/" xmlns:dcterms="http://purl.org/dc/terms/"><rdf:RDF><rdf:Description><dc:title>Face Generator</dc:title><dc:creator>The Visual Team</dc:creator><dc:source xsi:type="dcterms:URI">https://www.figma.com/community/file/986078800058673824</dc:source><dcterms:license xsi:type="dcterms:URI">https://creativecommons.org/licenses/by/4.0/</dcterms:license><dc:rights>Remix of „Face Generator” (https://www.figma.com/community/file/986078800058673824) by „The Visual Team”, licensed under „CC BY 4.0” (https://creativecommons.org/licenses/by/4.0/)</dc:rights></rdf:Description></rdf:RDF></metadata><mask id="viewboxMask"><rect width="440" height="440" rx="0" ry="0" x="0" y="0" fill="#fff" /></mask><g mask="url(#viewboxMask)"><g transform="matrix(.71048 0 0 .71048 24 2)"><g fill="#2c1b18"><path d="M83.6 337.2c11.2 73.5 27.2 93.7 57 130.5 47.2 72.2 222.4 105.8 289-15.2 109-197.3-24.8-183.3-140.6-183.3-96 0-132.1-32-148.4 0-38-28-65.5 12.5-57 68Z"/><path d="M99.9 245c-8.8 46.2-3.7 65.5 0 69.4 47 69.5 273.3 129.3 336.2 17.4 50.4-89.6-6.7-176.2-41.5-208.4 2 2.6 7.6 12.4 4.7 29.6a34.7 34.7 0 0 1-13.5 23.8c1.3-11.8 6.1-40.5-3-59.8-11.6-24.5-23.8-33.3-36.5-39.3 6 18.7 8.2 27.7 6.5 39.3-1.7 11.5-12.1 31.7-20.1 36 3.8-14.5 4.8-36-2.2-55.5-11.3-31.4-31.5-46.1-44.8-50.6 1 2.7 6 24.3 4.3 43-2.6 29.6-13.5 39.6-17.5 44.6 4-9.5 6-25 4-43-3.5-31.2-34.1-52.4-43.6-57.5 1.5 6.6 2.1 37-4 63.7C223 123.4 211 137 198 153c3.5-9.5 2-24-4-41-5.1-14.6-10.9-17.3-15.2-22 .2 7-2.2 27.5-13 52.7-13.5 31.5-18.5 56.6-18.5 43v-43A254.4 254.4 0 0 0 100 244.9Z"/></g></g><g transform="translate(81.7 150.7) scale(.71856)"><path d="M190.5 37C120.6 37 64 102.1 64 182.5a170.3 170.3 0 0 0 0 3C64 265.8 120.6 361 190.5 361S317 265.8 317 185.5a182.4 182.4 0 0 0 0-3C317 102 260.4 37 190.5 37Z" fill="#89532c"/><path d="M64 181.5v4C64 265.8 120.6 361 190.5 361S317 265.8 317 185.5v-4C315 261 259.2 353 190.5 353S65.9 261 64 181.5Z" fill="#000" fill-opacity=".2"/></g><g transform="translate(199.5 333.4) scale(.71856)"><path d="M59 19.4a31 31 0 1 1-62 0c0-17.2 13.8-4.2 31-4.2 17 0 31-13 31 4.2Z" fill="#DE8383"/><path fill-rule="evenodd" clip-rule="evenodd" d="M57.5 28.6H-1.7c-.9-3-1.3-6-1.3-9.2 0-11.2 5.9-9.6 14.8-7a59.5 59.5 0 0 0 16.1 2.8c6 0 11.5-1.5 16.2-2.9 9-2.5 14.8-4.1 14.8 7a31 31 0 0 1-1.4 9.3Z" fill="#F9F9F9"/></g><g transform="translate(280.7 235.4) scale(.71856)"><path d="M70.9 16A40.4 40.4 0 0 0 31 47.3V109c24.3-3.3 67.7-24.5 74-45 6.2-20.6-1-48-34.1-48Z" fill="#89532c"/><path d="M69.3 27.7c-19 0-27 15-28.6 22.5v44.1c17.5-2.3 48.5-17.5 53-32.2 4.5-14.7-.7-34.4-24.4-34.4Z" fill="#000" fill-opacity=".2"/><path d="M52.4 62.7c0-11.3-7.8-15-11.7-15.4v33.3a18.5 18.5 0 0 0 11.7-18Z" fill="#89532c"/></g><g transform="matrix(-.71856 0 0 .71856 161.5 235.4)"><path d="M70.9 16A40.4 40.4 0 0 0 31 47.3V109c24.3-3.3 67.7-24.5 74-45 6.2-20.6-1-48-34.1-48Z" fill="#89532c"/><path d="M69.3 27.7c-19 0-27 15-28.6 22.5v44.1c17.5-2.3 48.5-17.5 53-32.2 4.5-14.7-.7-34.4-24.4-34.4Z" fill="#000" fill-opacity=".2"/><path d="M52.4 62.7c0-11.3-7.8-15-11.7-15.4v33.3a18.5 18.5 0 0 0 11.7-18Z" fill="#89532c"/></g><g transform="translate(114.8 215.5) scale(.71856)"><path d="M75 52.4c3.6-2.8 9-8.4 19.7-8.4 9 0 16.7 6.2 18 8.4M179.6 52.4c3.5-2.8 9-8.4 19.7-8.4 9 0 16.7 6.2 18 8.4" stroke="#000" stroke-width="4.2" stroke-linecap="round"/><rect x="72" y="60.4" width="49.4" height="60.4" rx="16.5" fill="#fff"/><rect x="173.6" y="60.4" width="49.4" height="60.4" rx="16.5" fill="#fff"/><rect x="81.4" y="68.8" width="30.2" height="46.7" rx="15.1" fill="#757575"/><rect x="182.9" y="68.8" width="30.2" height="46.7" rx="15.1" fill="#757575"/><rect x="88.5" y="78.4" width="16.5" height="26" rx="8.3" fill="#000"/><rect x="190" y="78.4" width="16.5" height="26" rx="8.3" fill="#000"/></g><g transform="translate(127.7 288.7) scale(.71856)"><g fill="#FFC6C6"><rect x="11" y="16" width="56.3" height="43.4" rx="21.7"/><rect x="191" y="16" width="56.3" height="43.4" rx="21.7"/></g></g><g transform="translate(193 279.4) scale(.71856)"><path d="m24.6 39.3-.2 2.6a14.7 14.7 0 1 0 29-.4l-.1-2a14.7 14.7 0 0 1-28.7-.2Z" fill="#000" fill-opacity=".2"/></g><g transform="matrix(.52237 0 0 .52237 122.9 244.8)"><path d="M32.5 87.5C8.1 87.5 2.5 32.5 5 4h27.5c-6.2 16-3.2 29.8-1.5 47 2 20 21.3 5.1 25.4-2.7.5 15.6-12 39.2-23.9 39.2Z" fill="#2c1b18"/></g><g transform="matrix(-.52237 0 0 .52237 315.7 244.8)"><path d="M32.5 87.5C8.1 87.5 2.5 32.5 5 4h27.5c-6.2 16-3.2 29.8-1.5 47 2 20 21.3 5.1 25.4-2.7.5 15.6-12 39.2-23.9 39.2Z" fill="#2c1b18"/></g><g transform="matrix(.52237 0 0 .52237 108.7 145.6)"><g fill="#2c1b18"><path d="m292.5 119.2-39-41.2h-95l-36 49.3L164 115l-5.5 73.7L192 165l16.5 36.9 22.5-36.9 33 21.6-10.5-67.5h39Z"/><path d="M374 130c6.5 15.9 11.5 34.5 11.5 70-11 0-38.5 11-92.5-18-54.8-29.5-68.9-59.5-82-79-13 27-37 51.3-72.5 73.5-35.5 22.2-83.8 22.5-100 25 0-23.1 1.5-47.5 10.4-68.9A176 176 0 0 1 211 24a175 175 0 0 1 124 51.5c16.4 16.4 30.2 33.1 39 54.5Z"/></g></g></g></svg>