<svg xmlns="http://www.w3.org/2000/svg" viewBox="0 0 200 200" fill="none" shape-rendering="auto"><metadata xmlns:rdf="http://www.w3.org/1999/02/22-rdf-syntax-ns#" xmlns:xsi="http://www.w3.org/2001/XMLSchema-instance" xmlns:dc="http://purl.org/dc/elements/1.1/" xmlns:dcterms="http://purl.org/dc/terms/"><rdf:RDF><rdf:Description><dc:title>Fun Emoji Set</dc:title><dc:creator>Davis Uche</dc:creator><dc:source xsi:type="dcterms:URI">https://www.figma.com/community/file/968125295144990435</dc:source><dcterms:license xsi:type="dcterms:URI">https://creativecommons.org/licenses/by/4.0/</dcterms:license><dc:rights>Remix of „Fun Emoji Set” (https://www.figma.com/community/file/968125295144990435) by „Davis Uche”, licensed under „CC BY 4.0” (https://creativecommons.org/licenses/by/4.0/)</dc:rights></rdf:Description></rdf:RDF></metadata><mask id="viewboxMask"><rect width="200" height="200" rx="0" ry="0" x="0" y="0" fill="#fff" /></mask><g mask="url(#viewboxMask)"><rect fill="#fcbc34" width="200" height="200" x="0" y="0" /><g transform="matrix(1.5625 0 0 1.5625 37.5 110.94)"><path fill-rule="evenodd" clip-rule="evenodd" d="M20 28c8-13 29-13 37 0-13-6-24-6-37 0Z" fill="#1E120B"/><path d="M19.37 29a.37.37 0 0 1-.16-.04.4.4 0 0 1-.13-.1.44.44 0 0 1 0-.5C22.76 21.9 30.28 18 38.7 18h.15c8.29 0 15.45 3.9 19.07 10.32a.48.48 0 0 1 0 .52.4.4 0 0 1-.22.13.39.39 0 0 1-.25-.03c-13.42-7.1-24.4-7.1-37.92 0l-.16.06Zm19.17-6.29a39.78 39.78 0 0 1 17.96 4.72c-3.73-5.4-10.27-8.61-17.61-8.64h-.12c-7.56 0-14.37 3.26-18.17 8.64a40.03 40.03 0 0 1 17.94-4.72Z" fill="#000"/><path d="M104.7-9.65 57.64 28.27a32.88 32.88 0 0 0-5.27-2.3 36.9 36.9 0 0 0-5.28-1.56c-1.23-.26-2.48-.5-3.75-.66l53.53-43.12a3.13 3.13 0 0 1 4.4.48l3.92 4.83c.3.37.52.82.61 1.3a3.12 3.12 0 0 1-1.1 3.11Z" fill="#E2E0E0" stroke="#777" stroke-width=".39" stroke-miterlimit="10"/><path opacity=".66" d="M105.8-12.76c-.2.43-.5.8-.88 1.1L56.25 27.56l-.3-.13a32.88 32.88 0 0 0-3.58-1.47 37.79 37.79 0 0 0-5.28-1.55c-1.23-.26-2.48-.5-3.75-.66l53.53-43.12a3.13 3.13 0 0 1 4.4.48l3.92 4.83c.3.37.52.82.61 1.3Z" fill="#fff"/><path d="M96.55-11.11a1.46 1.46 0 0 0-2.08-.22L49.4 24.97c1.14.32 2.25.69 3.37 1.1L96.4-9.03a1.47 1.47 0 0 0 .14-2.08Z" fill="#CECCCC"/><path d="M83.9-.92a1.46 1.46 0 0 0-2.13-.24L49.4 24.97c1.14.32 2.25.69 3.37 1.1l30.9-24.94a1.47 1.47 0 0 0 .24-2.05Z" fill="#EF5656"/><path d="M75.58 3.45a.36.36 0 0 1-.28-.13l-.73-.91a.35.35 0 0 1 0-.49.37.37 0 0 1 .5 0l.73.9a.37.37 0 0 1 0 .5.3.3 0 0 1-.22.14ZM63.17 13.45a.37.37 0 0 1-.28-.13l-.73-.9a.37.37 0 0 1 .32-.55c.09 0 .17.03.24.09l.73.9a.35.35 0 0 1 0 .5.32.32 0 0 1-.28.1ZM51.04 23.28a.34.34 0 0 1-.28-.13l-.73-.91a.35.35 0 0 1 0-.5.37.37 0 0 1 .5 0l.71.9a.35.35 0 0 1 0 .5.34.34 0 0 1-.2.14ZM69.5 8.35a.3.3 0 0 1-.27-.13L67.77 6.4a.36.36 0 0 1 .55-.44l1.47 1.82a.35.35 0 0 1 0 .5.44.44 0 0 1-.3.07ZM56.9 18.54a.37.37 0 0 1-.29-.13l-1.46-1.82a.37.37 0 0 1 0-.5.35.35 0 0 1 .5 0l1.46 1.82a.37.37 0 0 1 0 .5.44.44 0 0 1-.22.13Z" fill="#000"/></g><g transform="matrix(1.5625 0 0 1.5625 31.25 59.38)"><path fill-rule="evenodd" clip-rule="evenodd" d="M-10.24 2.64c-4.65 4.43-2.22 27.02 7.48 32.71 3.24 1.9 15.66 3.74 21.17 1.63 10.32-3.94 16.86-18.34 16.86-25.23 0-5.08-9.94-10.86-18.17-11.8C9.1-1-6-1.39-10.24 2.64Z" fill="url(#eyesShades-a)"/><path fill-rule="evenodd" clip-rule="evenodd" d="M98.51 2.64c4.66 4.43 2.24 27.02-7.47 32.71-3.23 1.9-15.66 3.74-21.18 1.63C59.55 33.04 53 18.7 53 11.75 53 6.67 62.95.89 71.18-.05c7.97-.95 23.1-1.33 27.33 2.7Z" fill="url(#eyesShades-b)"/><path d="M109.83-2.7a.62.62 0 0 0-.48-.5c-8.12-1.39-30.47-2.95-42.45-.7A33.37 33.37 0 0 0 56.73-.04l-2.37 1.21A20.61 20.61 0 0 1 44.15 3.5c-3.55.12-7.08-.68-10.23-2.32l-2.37-1.2a33.23 33.23 0 0 0-10.17-3.89C9.4-6.1-12.93-4.59-21.07-3.2a.57.57 0 0 0-.47.5 33.81 33.81 0 0 0 0 9.3.6.6 0 0 0 .44.47s2.95.83 4.01 9.09c.84 6.53 4.21 22.03 17.7 24.5 3.63.6 7.3.92 11 .92 1.62.02 3.24-.07 4.85-.28 14.98-2.18 19.62-15.62 21.86-22.13.3-.86.55-1.58.78-2.16 1.48-3.55 2.64-3.93 5.06-3.93 1.9 0 3.58.3 5.05 3.93.22.58.49 1.32.78 2.16 2.23 6.46 6.89 19.9 21.84 22.13 5.3.5 10.62.28 15.85-.65 13.5-2.46 16.89-17.96 17.68-24.5 1.04-8.25 3.97-9.07 3.98-9.08a.6.6 0 0 0 .47-.47c.44-3.08.45-6.21.03-9.3Zm-9.87 18.58c-.77 6.71-3.66 15.7-9.21 18.96-3.08 1.81-15.26 3.66-20.64 1.6-10.25-3.92-16.52-18.2-16.52-24.7 0-4.42 9.08-10.22 17.69-11.22C74.88.1 78.48-.1 82.1-.1c6.8 0 13.54.8 16.03 3.17 1.78 1.71 2.52 6.86 1.83 12.8Zm-65.27-4.13c0 6.49-6.25 20.77-16.48 24.68-5.42 2.07-17.59.22-20.62-1.6-5.56-3.25-8.43-12.24-9.22-18.95-.69-5.9 0-11.1 1.86-12.8C-7.28.7-.54-.1 6.26-.1c3.61 0 7.22.2 10.81.62 8.55 1 17.62 6.77 17.62 11.23Z" fill="#000"/><defs><linearGradient id="eyesShades-a" x1="11.37" y1="37.92" x2="11.37" y2="-.68" gradientUnits="userSpaceOnUse"><stop offset=".32" stop-color="#121212"/><stop offset="1" stop-color="#474747"/></linearGradient><linearGradient id="eyesShades-b" x1="76.91" y1="-.68" x2="76.91" y2="37.92" gradientUnits="userSpaceOnUse"><stop stop-color="#474747"/><stop offset=".68" stop-color="#121212"/></linearGradient></defs></g></g></svg>