<svg xmlns="http://www.w3.org/2000/svg" viewBox="0 0 768 768" fill="none" shape-rendering="auto"><metadata xmlns:rdf="http://www.w3.org/1999/02/22-rdf-syntax-ns#" xmlns:xsi="http://www.w3.org/2001/XMLSchema-instance" xmlns:dc="http://purl.org/dc/elements/1.1/" xmlns:dcterms="http://purl.org/dc/terms/"><rdf:RDF><rdf:Description><dc:title>ToonHead</dc:title><dc:creator>Johan Melin</dc:creator><dc:source xsi:type="dcterms:URI">https://www.figma.com/community/file/1589627891082866389</dc:source><dcterms:license xsi:type="dcterms:URI">https://creativecommons.org/licenses/by/4.0/</dcterms:license><dc:rights>Remix of „ToonHead” (https://www.figma.com/community/file/1589627891082866389) by „Johan Melin”, licensed under „CC BY 4.0” (https://creativecommons.org/licenses/by/4.0/)</dc:rights></rdf:Description></rdf:RDF></metadata><mask id="viewboxMask"><rect width="768" height="768" rx="0" ry="0" x="0" y="0" fill="#fff" /></mask><g mask="url(#viewboxMask)"><g transform="translate(0 10)"><path d="M384.5 330c69.54 0 138.96 29.46 167.55 88.22 6.94 14.26 7.73 25.3 5.89 34.87-1.85 9.6-6.34 17.72-10.05 26.3-3.7 8.52-6.59 17.41-5.05 28.37 1.53 10.94 7.47 23.88 21.25 40.54 17.88 21.61 23.35 40.5 19.69 56.66-3.67 16.18-16.5 29.8-35.6 40.77-38.2 21.97-101.14 33.23-164.1 33.5-62.97.29-125.82-10.4-163.89-32.24-19.03-10.9-31.8-24.55-35.36-40.92-3.57-16.36 2.02-35.6 20.03-57.77 13.52-16.67 19.33-29.6 20.82-40.55s-1.35-19.84-4.99-28.37c-3.63-8.56-8.02-16.7-9.79-26.3-1.77-9.58-.92-20.62 6.02-34.88 28.62-58.75 98.03-88.2 167.57-88.2Z" fill="#a55728" stroke="black"/><path d="M261.1 418.6c41.82-117.47 202.94-117.47 244.76 0 5.08 14.26 5.66 25.32 4.31 34.91-1.35 9.63-4.64 17.77-7.35 26.31s-4.8 17.39-3.67 28.3 5.45 23.82 15.53 40.47c13.07 21.6 17.1 40.5 14.4 56.71-2.68 16.21-12.08 29.8-26.02 40.75-27.9 21.92-73.86 33.16-119.87 33.44s-91.92-10.4-119.72-32.17c-13.9-10.88-23.23-24.5-25.85-40.91-2.61-16.4 1.5-35.66 14.66-57.82 9.9-16.66 14.14-29.57 15.22-40.47 1.1-10.9-.98-19.77-3.64-28.3s-5.88-16.68-7.18-26.3c-1.3-9.6-.67-20.65 4.42-34.92Z" fill="black" fill-opacity="0.2" stroke="black"/></g><path d="M432.5 556.5v69.45l.4.07c120.31 22.8 211.36 128.92 211.6 256.48h-520c.24-127.56 91.29-233.7 211.6-256.48l.4-.07V556.5z" fill="#5c3829" stroke="black"/><path d="M336 556h97v37s-30.58 9.4-49 9.5c-19.59.1-48-9.5-48-9.5z" fill="black" fill-opacity="0.2"/><path d="M191.5 452.5c-20-77.5 33.5-50 33.5-50C189.18 286.68 217 140 384 140s194.82 146.68 159 262.5c0 0 53.5-27.5 33.5 50-11.1 43-51 43-51 43C519.57 545.9 434 591 384 591s-135.57-45.1-141.5-95.5c0 0-39.9 0-51-43Z" fill="#5c3829" stroke="black"/><path d="M202.22 410c19.81-10.14 38.7 54.5 30 69-16.5 8.5-55-56.21-30-69m363.96 0c-19.82-10.14-38.7 54.5-30 69 16.5 8.5 55-56.21 30-69M384 469.5c-7.81 0-18-7.5-16-9.5 2-3 8.19 3 16 3s14-6 16-3c1.81 2.17-8.19 9.5-16 9.5" fill="black" fill-opacity="0.2"/><path d="M167.5 722.71c-43.73 58.54-52.5 169.5-52.5 169.5h553s-21.02-104.28-54-157.5c-43.09-69.52-139-102.5-157-107s.49-32.12-8.5-38c-5.88-3.85-12.5 0-12.5 0s-28.43 23.5-50.5 23.5c-22.06 0-49-23.5-49-23.5s-9.5-2.64-14.5 0c-9.5 5 5 35.5-9.5 38-19.79 3.41-103.5 39.43-145 95Z" fill="#f97316" stroke="black"/><path d="M384.5 641.21c-24.5 0-68.5-15.5-68.5-15.5s43.23 24.5 68.5 24.5 67-26.5 67-26.5-42.5 17.5-67 17.5" fill="black" fill-opacity="0.2"/><path d="M363 533c6.08 6.96 16.76 6.57 25 4.36 3.88-1.04 7.8-1.87 10-5.36l-18 1.99z" fill="black" fill-opacity="0.2"/><path d="M326 504c5.6 6.77 14.7 8.63 23 10.2 6.89 1.3 14.02.8 21 .8 16.38 0 33.36-1.3 49-6.7 8.06-2.78 19.39-6.74 24-14.3-4.88 1.4-9.12 4.31-14 5.7-14.38 4.1-29.32 4.07-44 5.47-12.54 1.2-25.36 4.61-38 3.74-7.36-.5-13.98-3-21-4.91" fill="#3F2626" fill-opacity="0.5"/><path d="M318.5 380.68c29 10 25.5 40 25.5 40s-8 21-52.5 11c-27.15-6.1-26.5-41-26.5-41s24.5-20 53.5-10" fill="#F6F1E4"/><circle cx="314" cy="407.677" r="27" fill="#4B2422"/><path d="m266.5 375.18 13.5 3s20.5-16 50 3.5c16.64 11 14 32.5 14 32.5s-5.25-29-43.5-29-30.5 28-30.5 28-3.18-5.55-4.25-9.75L263 392.68l-10-7.5h18.5z" fill="#4B2422"/><path d="M448.65 380.68c-29 10-25.5 40-25.5 40s8 21 52.5 11c27.16-6.1 26.5-41 26.5-41s-24.5-20-53.5-10" fill="#F6F1E4"/><circle cx="27" cy="27" r="27" transform="matrix(-1 0 0 1 480.15 380.68)" fill="#4B2422"/><path d="m500.65 375.18-13.5 3s-20.5-16-50 3.5c-16.64 11-14 32.5-14 32.5s5.25-29 43.5-29 30.5 28 30.5 28 3.18-5.55 4.25-9.75l2.75-10.75 10-7.5h-18.5z" fill="#4B2422"/><g fill="#a55728"><path d="M304.39 358.06c15.17-1.74 30.44 14.5 39.1 2.83s-26.89-24.06-44.03-20.97c-14.7 2.66-35.6 17.59-32.9 19.59s23.14.22 37.83-1.45m160.76-20.2c-15.26-.4-29.06 17.1-38.7 6.22s24.68-26.32 42.03-24.72c14.89 1.36 36.99 14.41 34.48 16.64-2.5 2.22-23.03 2.24-37.8 1.85"/><path d="M304.39 358.06c15.17-1.74 30.44 14.5 39.1 2.83s-26.89-24.06-44.03-20.97c-14.7 2.66-35.6 17.59-32.9 19.59s23.14.22 37.83-1.45Zm160.76-20.2c-15.26-.4-29.06 17.1-38.7 6.22s24.68-26.32 42.03-24.72c14.89 1.36 36.99 14.41 34.48 16.64-2.5 2.22-23.03 2.24-37.8 1.85Z" stroke="black"/></g><path d="m543.5 402.5 13-5.5s28.48-120.79 13-178c-8.35-30.85-74-47.5-74-47.5s0-81.41-152-47c-105.94 23.98-164.98 107.13-146.5 205 5.57 29.49 13.47 40.2 19 69.5l8.5 3L249 297s70.6-1.43 112-15 100-54.5 100-54.5 39.82 28.78 56.5 54.5c26.2 40.39 26 120.5 26 120.5Z" fill="#a55728" stroke="black"/></g></svg>