<svg xmlns="http://www.w3.org/2000/svg" viewBox="0 0 768 768" fill="none" shape-rendering="auto"><metadata xmlns:rdf="http://www.w3.org/1999/02/22-rdf-syntax-ns#" xmlns:xsi="http://www.w3.org/2001/XMLSchema-instance" xmlns:dc="http://purl.org/dc/elements/1.1/" xmlns:dcterms="http://purl.org/dc/terms/"><rdf:RDF><rdf:Description><dc:title>ToonHead</dc:title><dc:creator>Johan Melin</dc:creator><dc:source xsi:type="dcterms:URI">https://www.figma.com/community/file/1589627891082866389</dc:source><dcterms:license xsi:type="dcterms:URI">https://creativecommons.org/licenses/by/4.0/</dcterms:license><dc:rights>Remix of „ToonHead” (https://www.figma.com/community/file/1589627891082866389) by „Johan Melin”, licensed under „CC BY 4.0” (https://creativecommons.org/licenses/by/4.0/)</dc:rights></rdf:Description></rdf:RDF></metadata><mask id="viewboxMask"><rect width="768" height="768" rx="0" ry="0" x="0" y="0" fill="#fff" /></mask><g mask="url(#viewboxMask)"><g transform="translate(0 10)"><path d="m551.97 418.5-.04.6-.2 3.28a1729 1729 0 0 0-2.15 53.42c-.8 32.9-.8 73.8 2.42 105.75 3.23 31.96 11.48 72.86 18.93 105.76a1876 1876 0 0 0 13.79 56.68l.13.5h-400.7l.13-.5a1140 1140 0 0 0 3.96-15.44c2.59-10.34 6.1-24.8 9.83-41.24 7.45-32.9 15.7-73.8 18.93-105.76 3.22-31.96 3.22-72.86 2.42-105.76a1729 1729 0 0 0-2.35-56.7l-.04-.61z" fill="#b58143" stroke="black"/><path d="m503.5 418.5-.03.61-.14 3.28a2427 2427 0 0 0-1.53 53.41c-.57 32.9-.57 73.79 1.72 105.74s8.17 72.84 13.47 105.73a2538 2538 0 0 0 9.8 56.69l.1.54H242.1l.1-.54.61-3.28a2538 2538 0 0 0 9.2-53.4c5.3-32.9 11.17-73.79 13.47-105.74 2.29-31.95 2.29-72.85 1.72-105.74a2427 2427 0 0 0-1.67-56.69l-.03-.6z" fill="black" fill-opacity="0.2" stroke="black"/></g><path d="M432.5 556.5v69.45l.4.07c120.31 22.8 211.36 128.92 211.6 256.48h-520c.24-127.56 91.29-233.7 211.6-256.48l.4-.07V556.5z" fill="#5c3829" stroke="black"/><path d="M336 556h97v37s-30.58 9.4-49 9.5c-19.59.1-48-9.5-48-9.5z" fill="black" fill-opacity="0.2"/><path d="M191.5 452.5c-20-77.5 33.5-50 33.5-50C189.18 286.68 217 140 384 140s194.82 146.68 159 262.5c0 0 53.5-27.5 33.5 50-11.1 43-51 43-51 43C519.57 545.9 434 591 384 591s-135.57-45.1-141.5-95.5c0 0-39.9 0-51-43Z" fill="#5c3829" stroke="black"/><path d="M202.22 410c19.81-10.14 38.7 54.5 30 69-16.5 8.5-55-56.21-30-69m363.96 0c-19.82-10.14-38.7 54.5-30 69 16.5 8.5 55-56.21 30-69M384 469.5c-7.81 0-18-7.5-16-9.5 2-3 8.19 3 16 3s14-6 16-3c1.81 2.17-8.19 9.5-16 9.5" fill="black" fill-opacity="0.2"/><path d="m238 774 292 3.5s-5.75-40.84-12-67-18-61.7-18-61.7-7.31-3.73-12-5.8-12-4.8-12-4.8-56.07 21.8-92 21.8-92-21.5-92-21.5-7.31 2.91-12 5-12 5.7-12 5.7-11.75 34.07-18 59.55S238 774 238 774Z" fill="#545454" stroke="black"/><mask id="mouthLaugh-a" style="mask-type:alpha" maskUnits="userSpaceOnUse" x="336" y="487" width="97" height="52"><path d="M384.13 487.07c19.7 0 33.7-1.33 47.46 7.54 4.36 2.81-12.42 44.35-47.46 44.35s-51.81-41.54-47.45-44.35c13.75-8.87 27.75-7.54 47.45-7.54" fill="#611519"/></mask><g mask="url(#mouthLaugh-a)"><path d="M384.13 487.07c19.7 0 33.7-1.33 47.46 7.54 4.36 2.81-12.42 44.35-47.46 44.35s-51.81-41.54-47.45-44.35c13.75-8.87 27.75-7.54 47.45-7.54" fill="#611519"/><path d="M384.13 485.3c.04 0 18.64 0 29.27 1.33 7 .87 12.86 5.32 12.86 5.32s-1.76 4.31-3.54 6.65a37 37 0 0 1-4.44 4.44s-9.37-2.44-15.52-3.1c-7.4-.8-18.6-.9-18.63-.9 0 0-11.22.09-18.62.9-6.14.66-15.5 3.09-15.53 3.1 0 0-2.95-2.5-4.43-4.44-1.79-2.34-3.55-6.64-3.55-6.65.02-.01 5.87-4.45 12.86-5.32 10.64-1.33 29.27-1.33 29.27-1.33" fill="#F6F1E4"/><path d="M384.13 519.89c.03 0 9.48.24 15.08 2.22 5.27 1.85 12.42 7.1 12.42 7.1s-5.96 6.92-11.09 9.3c-5.85 2.73-16.38 2.23-16.4 2.22 0 0-10.56.52-16.42-2.21-5.12-2.39-11.07-9.3-11.09-9.32.02-.01 7.16-5.24 12.42-7.1 5.62-1.97 15.08-2.21 15.08-2.21" fill="#E0564B"/></g><path d="m274.5 407.9-4.25-11c27.75 0 40.74-15.53 64.25 0 16.64 11 14.5 21.76 14.5 21.76s-2.75-16.93-41-16.93c-22.71 0-28 19-47 10zm218.59 0 4.23-11c-27.75 0-40.74-15.53-64.25 0-16.64 11-14.5 21.76-14.5 21.76s2.75-16.93 41-16.93c22.71 0 28 19 47 10z" fill="#4B2422"/><g fill="#b58143"><path d="M304.39 358.06c15.17-1.74 30.44 14.5 39.1 2.83s-26.89-24.06-44.03-20.97c-14.7 2.66-35.6 17.59-32.9 19.59s23.14.22 37.83-1.45m160.76-20.2c-15.26-.4-29.06 17.1-38.7 6.22s24.68-26.32 42.03-24.72c14.89 1.36 36.99 14.41 34.48 16.64-2.5 2.22-23.03 2.24-37.8 1.85"/><path d="M304.39 358.06c15.17-1.74 30.44 14.5 39.1 2.83s-26.89-24.06-44.03-20.97c-14.7 2.66-35.6 17.59-32.9 19.59s23.14.22 37.83-1.45Zm160.76-20.2c-15.26-.4-29.06 17.1-38.7 6.22s24.68-26.32 42.03-24.72c14.89 1.36 36.99 14.41 34.48 16.64-2.5 2.22-23.03 2.24-37.8 1.85Z" stroke="black"/></g><path d="m543.5 402.5 13-5.5s28.48-120.79 13-178c-8.35-30.85-74-47.5-74-47.5s0-81.41-152-47c-105.94 23.98-164.98 107.13-146.5 205 5.57 29.49 13.47 40.2 19 69.5l8.5 3L249 297s70.6-1.43 112-15 100-54.5 100-54.5 39.82 28.78 56.5 54.5c26.2 40.39 26 120.5 26 120.5Z" fill="#b58143" stroke="black"/></g></svg>