<svg xmlns="http://www.w3.org/2000/svg" viewBox="0 0 768 768" fill="none" shape-rendering="auto"><metadata xmlns:rdf="http://www.w3.org/1999/02/22-rdf-syntax-ns#" xmlns:xsi="http://www.w3.org/2001/XMLSchema-instance" xmlns:dc="http://purl.org/dc/elements/1.1/" xmlns:dcterms="http://purl.org/dc/terms/"><rdf:RDF><rdf:Description><dc:title>ToonHead</dc:title><dc:creator>Johan Melin</dc:creator><dc:source xsi:type="dcterms:URI">https://www.figma.com/community/file/1589627891082866389</dc:source><dcterms:license xsi:type="dcterms:URI">https://creativecommons.org/licenses/by/4.0/</dcterms:license><dc:rights>Remix of „ToonHead” (https://www.figma.com/community/file/1589627891082866389) by „Johan Melin”, licensed under „CC BY 4.0” (https://creativecommons.org/licenses/by/4.0/)</dc:rights></rdf:Description></rdf:RDF></metadata><mask id="viewboxMask"><rect width="768" height="768" rx="0" ry="0" x="0" y="0" fill="#fff" /></mask><g mask="url(#viewboxMask)"><g transform="translate(0 10)"></g><path d="M432.5 556.5v69.45l.4.07c120.31 22.8 211.36 128.92 211.6 256.48h-520c.24-127.56 91.29-233.7 211.6-256.48l.4-.07V556.5z" fill="#c68e7a" stroke="black"/><path d="M336 556h97v37s-30.58 9.4-49 9.5c-19.59.1-48-9.5-48-9.5z" fill="black" fill-opacity="0.2"/><path d="M191.5 452.5c-20-77.5 33.5-50 33.5-50C189.18 286.68 217 140 384 140s194.82 146.68 159 262.5c0 0 53.5-27.5 33.5 50-11.1 43-51 43-51 43C519.57 545.9 434 591 384 591s-135.57-45.1-141.5-95.5c0 0-39.9 0-51-43Z" fill="#c68e7a" stroke="black"/><path d="M202.22 410c19.81-10.14 38.7 54.5 30 69-16.5 8.5-55-56.21-30-69m363.96 0c-19.82-10.14-38.7 54.5-30 69 16.5 8.5 55-56.21 30-69M384 469.5c-7.81 0-18-7.5-16-9.5 2-3 8.19 3 16 3s14-6 16-3c1.81 2.17-8.19 9.5-16 9.5" fill="black" fill-opacity="0.2"/><path d="M645 883H124c0-114.39 72.89-211.66 174.5-247.39 12.12-4.26 24.64-39.68 37.5-42.11 15.71 46.5 31.43 56.5 48 67 16.57-10.5 33.29-20.5 49-67 12.86 2.43 25.38 37.85 37.5 42.11C572.11 671.34 645 768.61 645 883Z" fill="#CBECF7" stroke="black"/><path d="M336.5 715 302 652l34.5 52.5L379 670zm94 0 34.5-63-34.5 52.5L389 670z" fill="black" fill-opacity="0.2"/><path d="M645 883H124a262.1 262.1 0 0 1 163-243.03C308 670 350.03 779 384.5 779S468 670 482 639.97c95.57 38.82 163 133 163 243.03Z" fill="#f97316" stroke="black"/><path d="M363 533c6.08 6.96 16.76 6.57 25 4.36 3.88-1.04 7.8-1.87 10-5.36l-18 1.99z" fill="black" fill-opacity="0.2"/><path d="M326 504c5.6 6.77 14.7 8.63 23 10.2 6.89 1.3 14.02.8 21 .8 16.38 0 33.36-1.3 49-6.7 8.06-2.78 19.39-6.74 24-14.3-4.88 1.4-9.12 4.31-14 5.7-14.38 4.1-29.32 4.07-44 5.47-12.54 1.2-25.36 4.61-38 3.74-7.36-.5-13.98-3-21-4.91" fill="#3F2626" fill-opacity="0.5"/><path d="M383.5 573.5c-6.15 0-28.16-3.85-31.5 0-7.69 8.86 19.77 19 31.5 19s39.19-10.14 31.5-19c-3.34-3.85-25.35 0-31.5 0Z" fill="#b58143" stroke="black"/><path d="m274.5 400.75-4.25 11c27.75 0 40.74 15.54 64.25 0C351.14 400.75 349 390 349 390s-2.75 16.93-41 16.93c-22.71 0-28-19-47-10zm218.59 0 4.23 11c-27.75 0-40.74 15.54-64.25 0-16.64-11-14.5-21.75-14.5-21.75s2.75 16.93 41 16.93c22.71 0 28-19 47-10z" fill="#4B2422"/><g fill="#b58143"><path d="M306.31 309.47c13.66-6.82 33.57 3.22 37.71-10.7 4.15-13.94-33.5-13.42-48.54-4.65-12.92 7.53-27.43 28.7-24.22 29.66 3.22.95 21.82-7.7 35.05-14.3m156.46 0c-13.66-6.83-33.56 3.21-37.7-10.7-4.15-13.95 33.49-13.43 48.53-4.66 12.92 7.53 27.44 28.7 24.22 29.66-3.2.95-21.82-7.7-35.05-14.3"/><path d="M306.31 309.47c13.66-6.82 33.57 3.22 37.71-10.7 4.15-13.94-33.5-13.42-48.54-4.65-12.92 7.53-27.43 28.7-24.22 29.66 3.22.95 21.82-7.7 35.05-14.3Zm156.46 0c-13.66-6.82-33.56 3.22-37.7-10.7-4.15-13.94 33.49-13.42 48.53-4.65 12.92 7.53 27.44 28.7 24.22 29.66-3.2.95-21.82-7.7-35.05-14.3Z" stroke="black"/></g><path d="m543.5 402.5 13-5.5s28.48-120.79 13-178c-8.35-30.85-74-47.5-74-47.5s0-81.41-152-47c-105.94 23.98-164.98 107.13-146.5 205 5.57 29.49 13.47 40.2 19 69.5l8.5 3L249 297s70.6-1.43 112-15 100-54.5 100-54.5 39.82 28.78 56.5 54.5c26.2 40.39 26 120.5 26 120.5Z" fill="#b58143" stroke="black"/></g></svg>