<svg xmlns="http://www.w3.org/2000/svg" viewBox="0 0 768 768" fill="none" shape-rendering="auto"><metadata xmlns:rdf="http://www.w3.org/1999/02/22-rdf-syntax-ns#" xmlns:xsi="http://www.w3.org/2001/XMLSchema-instance" xmlns:dc="http://purl.org/dc/elements/1.1/" xmlns:dcterms="http://purl.org/dc/terms/"><rdf:RDF><rdf:Description><dc:title>ToonHead</dc:title><dc:creator>Johan Melin</dc:creator><dc:source xsi:type="dcterms:URI">https://www.figma.com/community/file/1589627891082866389</dc:source><dcterms:license xsi:type="dcterms:URI">https://creativecommons.org/licenses/by/4.0/</dcterms:license><dc:rights>Remix of „ToonHead” (https://www.figma.com/community/file/1589627891082866389) by „Johan Melin”, licensed under „CC BY 4.0” (https://creativecommons.org/licenses/by/4.0/)</dc:rights></rdf:Description></rdf:RDF></metadata><mask id="viewboxMask"><rect width="768" height="768" rx="0" ry="0" x="0" y="0" fill="#fff" /></mask><g mask="url(#viewboxMask)"><g transform="translate(0 10)"><path d="M384.5 330c69.54 0 138.96 29.46 167.55 88.22 6.95 14.28 8.58 25.68 7.78 35.7-.8 10.04-4.04 18.7-6.9 27.58-2.84 8.86-5.28 17.9-4.38 28.57s5.13 22.91 15.54 38.21c2.53 3.73 3.19 7.1 2.3 10.14-.86 3.07-3.32 5.93-7.25 8.57-7.87 5.27-21.37 9.5-38.73 12.72-34.67 6.45-84.43 8.85-134.35 7.91-49.9-.93-99.93-5.21-135.14-12.13-17.6-3.46-31.46-7.57-39.73-12.22-4.14-2.33-6.8-4.75-7.9-7.22-1.05-2.41-.65-4.97 1.6-7.73 9.38-11.58 13.1-21.96 13.8-31.93s-1.6-19.5-4.2-29.3c-5.15-19.57-11.43-40.41 2.45-68.93 28.6-58.75 98.02-88.2 167.56-88.2Z" fill="#b58143" stroke="black"/><path d="M255.76 418.4c44.19-117.2 214.44-117.2 258.63 0 5.37 14.24 6.64 25.62 6.02 35.63s-3.13 18.68-5.33 27.52-4.08 17.83-3.4 28.43c.69 10.62 3.96 22.8 12 38.06 1.96 3.72 2.48 7.1 1.8 10.18q-1.07 4.63-5.62 8.55c-6.05 5.24-16.45 9.44-29.84 12.65-26.77 6.42-65.2 8.82-103.74 7.89s-77.18-5.2-104.36-12.1c-13.6-3.4-24.27-7.5-30.64-12.1q-4.81-3.44-6.1-7.2c-.82-2.42-.5-5.01 1.24-7.8 7.26-11.5 10.12-21.84 10.66-31.75s-1.24-19.37-3.23-29.12c-4-19.51-8.85-40.32 1.88-68.8Z" fill="black" fill-opacity="0.2" stroke="black"/></g><path d="M432.5 556.5v69.45l.4.07c120.31 22.8 211.36 128.92 211.6 256.48h-520c.24-127.56 91.29-233.7 211.6-256.48l.4-.07V556.5z" fill="#c68e7a" stroke="black"/><path d="M336 556h97v37s-30.58 9.4-49 9.5c-19.59.1-48-9.5-48-9.5z" fill="black" fill-opacity="0.2"/><path d="M191.5 452.5c-20-77.5 33.5-50 33.5-50C189.18 286.68 217 140 384 140s194.82 146.68 159 262.5c0 0 53.5-27.5 33.5 50-11.1 43-51 43-51 43C519.57 545.9 434 591 384 591s-135.57-45.1-141.5-95.5c0 0-39.9 0-51-43Z" fill="#c68e7a" stroke="black"/><path d="M202.22 410c19.81-10.14 38.7 54.5 30 69-16.5 8.5-55-56.21-30-69m363.96 0c-19.82-10.14-38.7 54.5-30 69 16.5 8.5 55-56.21 30-69M384 469.5c-7.81 0-18-7.5-16-9.5 2-3 8.19 3 16 3s14-6 16-3c1.81 2.17-8.19 9.5-16 9.5" fill="black" fill-opacity="0.2"/><path d="M167.5 722.71c-43.73 58.54-52.5 169.5-52.5 169.5h553s-21.02-104.28-54-157.5c-43.09-69.52-139-102.5-157-107s.49-32.12-8.5-38c-5.88-3.85-12.5 0-12.5 0s-28.43 23.5-50.5 23.5c-22.06 0-49-23.5-49-23.5s-9.5-2.64-14.5 0c-9.5 5 5 35.5-9.5 38-19.79 3.41-103.5 39.43-145 95Z" fill="#e8e9e6" stroke="black"/><path d="M384.5 641.21c-24.5 0-68.5-15.5-68.5-15.5s43.23 24.5 68.5 24.5 67-26.5 67-26.5-42.5 17.5-67 17.5" fill="black" fill-opacity="0.2"/><mask id="mouthAngry-a" style="mask-type:alpha" maskUnits="userSpaceOnUse" x="335" y="487" width="98" height="48"><path d="M384 528.5c19.7 0 33.84 11.72 47.59 2.85 4.32-2.82-12.59-44.35-47.6-44.35s-51.7 41.53-47.35 44.35c13.75 8.87 27.62-2.85 47.32-2.85" fill="#611519"/></mask><g mask="url(#mouthAngry-a)"><path d="M384.13 538.89c19.7 0 33.7 1.33 47.46-7.54 4.36-2.82-12.42-44.35-47.46-44.35s-51.81 41.53-47.45 44.35c13.75 8.87 27.75 7.54 47.45 7.54" fill="#611519"/><path d="M384.13 540.66c.04 0 18.64 0 29.27-1.33 7-.87 12.86-5.32 12.86-5.32s-1.76-4.3-3.54-6.65a37 37 0 0 0-4.44-4.44 180 180 0 0 0-34.15-2.92c-11.62-.1-22.88.85-34.15 2.92 0 0-2.95 2.5-4.43 4.44-1.8 2.34-3.55 6.64-3.55 6.64.02 0 5.87 4.45 12.86 5.32 10.64 1.33 29.27 1.33 29.27 1.33m0-55.65c.04 0 18.64 0 29.27 1.33 7 .88 12.86 5.32 12.86 5.32s-1.76 4.31-3.54 6.66a37 37 0 0 1-4.44 4.43 180 180 0 0 1-34.15 2.92c-11.62.1-22.88-.85-34.15-2.92 0 0-2.95-2.49-4.43-4.44-1.79-2.33-3.55-6.64-3.55-6.65.02 0 5.87-4.45 12.86-5.32C365.5 485 384.13 485 384.13 485" fill="#F6F1E4"/></g><path d="m274.5 400.75-4.25 11c27.75 0 40.74 15.54 64.25 0C351.14 400.75 349 390 349 390s-2.75 16.93-41 16.93c-22.71 0-28-19-47-10zm218.59 0 4.23 11c-27.75 0-40.74 15.54-64.25 0-16.64-11-14.5-21.75-14.5-21.75s2.75 16.93 41 16.93c22.71 0 28-19 47-10z" fill="#4B2422"/><path d="m365.5 360.35-5.5 19s5.68-4.86 7-8.5c1.68-4.64-1.5-10.5-1.5-10.5m37.5.35 5.5 19s-5.69-4.86-7-8.5c-1.7-4.64 1.5-10.5 1.5-10.5" fill="black" fill-opacity="0.2"/><g fill="#b58143"><path d="M313.9 367.95c15.24.92 27.47 19.57 38.02 9.58s-22.3-28.37-39.72-28.3c-14.95.07-38.1 11.14-35.8 13.58s22.75 4.24 37.5 5.14m140.69.35c-15.24.92-27.46 19.57-38.02 9.58-10.55-10 22.3-28.37 39.72-28.3 14.95.07 38.1 11.15 35.8 13.58-2.33 2.44-22.78 4.24-37.53 5.14"/><path d="M313.9 367.95c15.24.92 27.47 19.57 38.02 9.58s-22.3-28.37-39.72-28.3c-14.95.07-38.1 11.14-35.8 13.58s22.75 4.24 37.5 5.14Zm140.69.35c-15.24.92-27.46 19.57-38.02 9.58-10.55-10 22.3-28.37 39.72-28.3 14.95.07 38.1 11.15 35.8 13.58-2.33 2.44-22.78 4.24-37.53 5.14Z" stroke="black"/></g><path d="m543.5 402.5 13-5.5s28.48-120.79 13-178c-8.35-30.85-74-47.5-74-47.5s0-81.41-152-47c-105.94 23.98-164.98 107.13-146.5 205 5.57 29.49 13.47 40.2 19 69.5l8.5 3L249 297s70.6-1.43 112-15 100-54.5 100-54.5 39.82 28.78 56.5 54.5c26.2 40.39 26 120.5 26 120.5Z" fill="#b58143" stroke="black"/></g></svg>