<svg xmlns="http://www.w3.org/2000/svg" viewBox="0 0 768 768" fill="none" shape-rendering="auto"><metadata xmlns:rdf="http://www.w3.org/1999/02/22-rdf-syntax-ns#" xmlns:xsi="http://www.w3.org/2001/XMLSchema-instance" xmlns:dc="http://purl.org/dc/elements/1.1/" xmlns:dcterms="http://purl.org/dc/terms/"><rdf:RDF><rdf:Description><dc:title>ToonHead</dc:title><dc:creator>Johan Melin</dc:creator><dc:source xsi:type="dcterms:URI">https://www.figma.com/community/file/1589627891082866389</dc:source><dcterms:license xsi:type="dcterms:URI">https://creativecommons.org/licenses/by/4.0/</dcterms:license><dc:rights>Remix of „ToonHead” (https://www.figma.com/community/file/1589627891082866389) by „Johan Melin”, licensed under „CC BY 4.0” (https://creativecommons.org/licenses/by/4.0/)</dc:rights></rdf:Description></rdf:RDF></metadata><mask id="viewboxMask"><rect width="768" height="768" rx="0" ry="0" x="0" y="0" fill="#fff" /></mask><g mask="url(#viewboxMask)"><g transform="translate(0 10)"><path d="m551.97 418.5-.04.6-.2 3.28a1729 1729 0 0 0-2.15 53.42c-.8 32.9-.8 73.8 2.42 105.75 3.23 31.96 11.48 72.86 18.93 105.76a1876 1876 0 0 0 13.79 56.68l.13.5h-400.7l.13-.5a1140 1140 0 0 0 3.96-15.44c2.59-10.34 6.1-24.8 9.83-41.24 7.45-32.9 15.7-73.8 18.93-105.76 3.22-31.96 3.22-72.86 2.42-105.76a1729 1729 0 0 0-2.35-56.7l-.04-.61z" fill="#b58143" stroke="black"/><path d="m503.5 418.5-.03.61-.14 3.28a2427 2427 0 0 0-1.53 53.41c-.57 32.9-.57 73.79 1.72 105.74s8.17 72.84 13.47 105.73a2538 2538 0 0 0 9.8 56.69l.1.54H242.1l.1-.54.61-3.28a2538 2538 0 0 0 9.2-53.4c5.3-32.9 11.17-73.79 13.47-105.74 2.29-31.95 2.29-72.85 1.72-105.74a2427 2427 0 0 0-1.67-56.69l-.03-.6z" fill="black" fill-opacity="0.2" stroke="black"/></g><path d="M432.5 556.5v69.45l.4.07c120.31 22.8 211.36 128.92 211.6 256.48h-520c.24-127.56 91.29-233.7 211.6-256.48l.4-.07V556.5z" fill="#a36b4f" stroke="black"/><path d="M336 556h97v37s-30.58 9.4-49 9.5c-19.59.1-48-9.5-48-9.5z" fill="black" fill-opacity="0.2"/><path d="M191.5 452.5c-20-77.5 33.5-50 33.5-50C189.18 286.68 217 140 384 140s194.82 146.68 159 262.5c0 0 53.5-27.5 33.5 50-11.1 43-51 43-51 43C519.57 545.9 434 591 384 591s-135.57-45.1-141.5-95.5c0 0-39.9 0-51-43Z" fill="#a36b4f" stroke="black"/><path d="M202.22 410c19.81-10.14 38.7 54.5 30 69-16.5 8.5-55-56.21-30-69m363.96 0c-19.82-10.14-38.7 54.5-30 69 16.5 8.5 55-56.21 30-69M384 469.5c-7.81 0-18-7.5-16-9.5 2-3 8.19 3 16 3s14-6 16-3c1.81 2.17-8.19 9.5-16 9.5" fill="black" fill-opacity="0.2"/><path d="m238 774 292 3.5s-5.75-40.84-12-67-18-61.7-18-61.7-7.31-3.73-12-5.8-12-4.8-12-4.8-56.07 21.8-92 21.8-92-21.5-92-21.5-7.31 2.91-12 5-12 5.7-12 5.7-11.75 34.07-18 59.55S238 774 238 774Z" fill="#731ac3" stroke="black"/><path d="M363 533c6.08 6.96 16.76 6.57 25 4.36 3.88-1.04 7.8-1.87 10-5.36l-18 1.99z" fill="black" fill-opacity="0.2"/><path d="M326 504c5.6 6.77 14.7 8.63 23 10.2 6.89 1.3 14.02.8 21 .8 16.38 0 33.36-1.3 49-6.7 8.06-2.78 19.39-6.74 24-14.3-4.88 1.4-9.12 4.31-14 5.7-14.38 4.1-29.32 4.07-44 5.47-12.54 1.2-25.36 4.61-38 3.74-7.36-.5-13.98-3-21-4.91" fill="#3F2626" fill-opacity="0.5"/><path d="M321.5 373.47c29 10 22.5 53 22.5 53s-8 21-52.5 11c-27.15-6.1-26.5-41-26.5-41s27.5-33 56.5-23" fill="#F6F1E4"/><circle cx="314" cy="413.473" r="27" fill="#4B2422"/><path d="M266.5 380.97h7s22.06-25.12 53-8c23.5 13 18 43 18 43s1.25-43-37-43-37.5 46-37.5 46-3.18-5.55-4.25-9.75L263 398.47l-10-7.5h18.5z" fill="#4B2422"/><path d="M445.56 373.47c-29 10-22.5 53-22.5 53s8 21 52.5 11c27.15-6.1 26.5-41 26.5-41s-27.5-33-56.5-23" fill="#F6F1E4"/><circle cx="27" cy="27" r="27" transform="matrix(-1 0 0 1 480.06 386.47)" fill="#4B2422"/><path d="M500.56 380.97h-7s-22.06-25.12-53-8c-23.5 13-18 43-18 43s-1.25-43 37-43 37.5 46 37.5 46 3.18-5.55 4.25-9.75l2.75-10.75 10-7.5h-18.5z" fill="#4B2422"/><g fill="#b58143"><path d="M305.33 338.35c14.64-4.35 32.5 9 39-4s-30.66-19.03-47-13c-14.03 5.17-32 23.5-29 25s22.83-3.8 37-8m158.43 0c-14.64-4.35-32.5 9-39-4s30.65-19.03 47-13c14.02 5.17 32 23.5 29 25s-22.83-3.8-37-8"/><path d="M305.33 338.35c14.64-4.35 32.5 9 39-4s-30.66-19.03-47-13c-14.03 5.17-32 23.5-29 25s22.83-3.8 37-8Zm158.43 0c-14.64-4.35-32.5 9-39-4s30.65-19.03 47-13c14.02 5.17 32 23.5 29 25s-22.83-3.8-37-8Z" stroke="black"/></g><path d="m543.5 402.5 13-5.5s28.48-120.79 13-178c-8.35-30.85-74-47.5-74-47.5s0-81.41-152-47c-105.94 23.98-164.98 107.13-146.5 205 5.57 29.49 13.47 40.2 19 69.5l8.5 3L249 297s70.6-1.43 112-15 100-54.5 100-54.5 39.82 28.78 56.5 54.5c26.2 40.39 26 120.5 26 120.5Z" fill="#b58143" stroke="black"/></g></svg>