<svg xmlns="http://www.w3.org/2000/svg" viewBox="0 0 768 768" fill="none" shape-rendering="auto"><metadata xmlns:rdf="http://www.w3.org/1999/02/22-rdf-syntax-ns#" xmlns:xsi="http://www.w3.org/2001/XMLSchema-instance" xmlns:dc="http://purl.org/dc/elements/1.1/" xmlns:dcterms="http://purl.org/dc/terms/"><rdf:RDF><rdf:Description><dc:title>ToonHead</dc:title><dc:creator>Johan Melin</dc:creator><dc:source xsi:type="dcterms:URI">https://www.figma.com/community/file/1589627891082866389</dc:source><dcterms:license xsi:type="dcterms:URI">https://creativecommons.org/licenses/by/4.0/</dcterms:license><dc:rights>Remix of „ToonHead” (https://www.figma.com/community/file/1589627891082866389) by „Johan Melin”, licensed under „CC BY 4.0” (https://creativecommons.org/licenses/by/4.0/)</dc:rights></rdf:Description></rdf:RDF></metadata><mask id="viewboxMask"><rect width="768" height="768" rx="0" ry="0" x="0" y="0" fill="#fff" /></mask><g mask="url(#viewboxMask)"><g transform="translate(0 10)"><path d="M384.5 330c69.54 0 138.96 29.46 167.55 88.22 6.95 14.28 8.58 25.68 7.78 35.7-.8 10.04-4.04 18.7-6.9 27.58-2.84 8.86-5.28 17.9-4.38 28.57s5.13 22.91 15.54 38.21c2.53 3.73 3.19 7.1 2.3 10.14-.86 3.07-3.32 5.93-7.25 8.57-7.87 5.27-21.37 9.5-38.73 12.72-34.67 6.45-84.43 8.85-134.35 7.91-49.9-.93-99.93-5.21-135.14-12.13-17.6-3.46-31.46-7.57-39.73-12.22-4.14-2.33-6.8-4.75-7.9-7.22-1.05-2.41-.65-4.97 1.6-7.73 9.38-11.58 13.1-21.96 13.8-31.93s-1.6-19.5-4.2-29.3c-5.15-19.57-11.43-40.41 2.45-68.93 28.6-58.75 98.02-88.2 167.56-88.2Z" fill="#b58143" stroke="black"/><path d="M255.76 418.4c44.19-117.2 214.44-117.2 258.63 0 5.37 14.24 6.64 25.62 6.02 35.63s-3.13 18.68-5.33 27.52-4.08 17.83-3.4 28.43c.69 10.62 3.96 22.8 12 38.06 1.96 3.72 2.48 7.1 1.8 10.18q-1.07 4.63-5.62 8.55c-6.05 5.24-16.45 9.44-29.84 12.65-26.77 6.42-65.2 8.82-103.74 7.89s-77.18-5.2-104.36-12.1c-13.6-3.4-24.27-7.5-30.64-12.1q-4.81-3.44-6.1-7.2c-.82-2.42-.5-5.01 1.24-7.8 7.26-11.5 10.12-21.84 10.66-31.75s-1.24-19.37-3.23-29.12c-4-19.51-8.85-40.32 1.88-68.8Z" fill="black" fill-opacity="0.2" stroke="black"/></g><path d="M432.5 556.5v69.45l.4.07c120.31 22.8 211.36 128.92 211.6 256.48h-520c.24-127.56 91.29-233.7 211.6-256.48l.4-.07V556.5z" fill="#b98e6a" stroke="black"/><path d="M336 556h97v37s-30.58 9.4-49 9.5c-19.59.1-48-9.5-48-9.5z" fill="black" fill-opacity="0.2"/><path d="M191.5 452.5c-20-77.5 33.5-50 33.5-50C189.18 286.68 217 140 384 140s194.82 146.68 159 262.5c0 0 53.5-27.5 33.5 50-11.1 43-51 43-51 43C519.57 545.9 434 591 384 591s-135.57-45.1-141.5-95.5c0 0-39.9 0-51-43Z" fill="#b98e6a" stroke="black"/><path d="M202.22 410c19.81-10.14 38.7 54.5 30 69-16.5 8.5-55-56.21-30-69m363.96 0c-19.82-10.14-38.7 54.5-30 69 16.5 8.5 55-56.21 30-69M384 469.5c-7.81 0-18-7.5-16-9.5 2-3 8.19 3 16 3s14-6 16-3c1.81 2.17-8.19 9.5-16 9.5" fill="black" fill-opacity="0.2"/><path d="m238 774 292 3.5s-5.75-40.84-12-67-18-61.7-18-61.7-7.31-3.73-12-5.8-12-4.8-12-4.8-56.07 21.8-92 21.8-92-21.5-92-21.5-7.31 2.91-12 5-12 5.7-12 5.7-11.75 34.07-18 59.55S238 774 238 774Z" fill="#f97316" stroke="black"/><mask id="mouthAngry-a" style="mask-type:alpha" maskUnits="userSpaceOnUse" x="335" y="487" width="98" height="48"><path d="M384 528.5c19.7 0 33.84 11.72 47.59 2.85 4.32-2.82-12.59-44.35-47.6-44.35s-51.7 41.53-47.35 44.35c13.75 8.87 27.62-2.85 47.32-2.85" fill="#611519"/></mask><g mask="url(#mouthAngry-a)"><path d="M384.13 538.89c19.7 0 33.7 1.33 47.46-7.54 4.36-2.82-12.42-44.35-47.46-44.35s-51.81 41.53-47.45 44.35c13.75 8.87 27.75 7.54 47.45 7.54" fill="#611519"/><path d="M384.13 540.66c.04 0 18.64 0 29.27-1.33 7-.87 12.86-5.32 12.86-5.32s-1.76-4.3-3.54-6.65a37 37 0 0 0-4.44-4.44 180 180 0 0 0-34.15-2.92c-11.62-.1-22.88.85-34.15 2.92 0 0-2.95 2.5-4.43 4.44-1.8 2.34-3.55 6.64-3.55 6.64.02 0 5.87 4.45 12.86 5.32 10.64 1.33 29.27 1.33 29.27 1.33m0-55.65c.04 0 18.64 0 29.27 1.33 7 .88 12.86 5.32 12.86 5.32s-1.76 4.31-3.54 6.66a37 37 0 0 1-4.44 4.43 180 180 0 0 1-34.15 2.92c-11.62.1-22.88-.85-34.15-2.92 0 0-2.95-2.49-4.43-4.44-1.79-2.33-3.55-6.64-3.55-6.65.02 0 5.87-4.45 12.86-5.32C365.5 485 384.13 485 384.13 485" fill="#F6F1E4"/></g><path d="M383.5 573.5c-6.15 0-28.16-3.85-31.5 0-7.69 8.86 19.77 19 31.5 19s39.19-10.14 31.5-19c-3.34-3.85-25.35 0-31.5 0Z" fill="#b58143" stroke="black"/><path d="M318.5 380.68c29 10 25.5 40 25.5 40s-8 21-52.5 11c-27.15-6.1-26.5-41-26.5-41s24.5-20 53.5-10" fill="#F6F1E4"/><circle cx="314" cy="407.677" r="27" fill="#4B2422"/><path d="m266.5 375.18 13.5 3s20.5-16 50 3.5c16.64 11 14 32.5 14 32.5s-5.25-29-43.5-29-30.5 28-30.5 28-3.18-5.55-4.25-9.75L263 392.68l-10-7.5h18.5z" fill="#4B2422"/><path d="M448.65 380.68c-29 10-25.5 40-25.5 40s8 21 52.5 11c27.16-6.1 26.5-41 26.5-41s-24.5-20-53.5-10" fill="#F6F1E4"/><circle cx="27" cy="27" r="27" transform="matrix(-1 0 0 1 480.15 380.68)" fill="#4B2422"/><path d="m500.65 375.18-13.5 3s-20.5-16-50 3.5c-16.64 11-14 32.5-14 32.5s5.25-29 43.5-29 30.5 28 30.5 28 3.18-5.55 4.25-9.75l2.75-10.75 10-7.5h-18.5z" fill="#4B2422"/><g fill="#b58143"><path d="M302.87 328.48c14.96-3.04 24.47-23.2 36.31-14.78s-18.13 31.2-35.4 33.54c-14.8 2.02-39.28-5.72-37.33-8.45 1.94-2.74 21.93-7.37 36.42-10.3m163.35 0c-14.97-3.05-24.48-23.2-36.32-14.79s18.14 31.2 35.4 33.54c14.81 2.02 39.28-5.72 37.34-8.45-1.94-2.74-21.94-7.37-36.43-10.3"/><path d="M302.87 328.48c14.96-3.04 24.47-23.2 36.31-14.78s-18.13 31.2-35.4 33.54c-14.8 2.02-39.28-5.72-37.33-8.45 1.94-2.74 21.93-7.37 36.42-10.3Zm163.35 0c-14.97-3.04-24.48-23.2-36.32-14.78s18.14 31.2 35.4 33.54c14.81 2.02 39.28-5.72 37.34-8.45-1.94-2.74-21.94-7.37-36.43-10.3Z" stroke="black"/></g><path d="m543.5 402.5 13-5.5s28.48-120.79 13-178c-8.35-30.85-74-47.5-74-47.5s0-81.41-152-47c-105.94 23.98-164.98 107.13-146.5 205 5.57 29.49 13.47 40.2 19 69.5l8.5 3L249 297s70.6-1.43 112-15 100-54.5 100-54.5 39.82 28.78 56.5 54.5c26.2 40.39 26 120.5 26 120.5Z" fill="#b58143" stroke="black"/></g></svg>